<?xml version="1.0" encoding="UTF-8" standalone="no"?>
<!-- Created with Inkscape (http://www.inkscape.org/) -->

<svg
   width="1024"
   height="1024"
   viewBox="0 0 270.93333 270.93333"
   version="1.1"
   id="svg202"
   inkscape:version="1.2.2 (b0a8486541, 2022-12-01)"
   sodipodi:docname="favicon.svg"
   xmlns:inkscape="http://www.inkscape.org/namespaces/inkscape"
   xmlns:sodipodi="http://sodipodi.sourceforge.net/DTD/sodipodi-0.dtd"
   xmlns="http://www.w3.org/2000/svg"
   xmlns:svg="http://www.w3.org/2000/svg">
  <sodipodi:namedview
     id="namedview204"
     pagecolor="#ffffff"
     bordercolor="#000000"
     borderopacity="0.25"
     inkscape:showpageshadow="2"
     inkscape:pageopacity="0.0"
     inkscape:pagecheckerboard="0"
     inkscape:deskcolor="#d1d1d1"
     inkscape:document-units="mm"
     showgrid="false"
     inkscape:zoom="0.35479915"
     inkscape:cx="93.01037"
     inkscape:cy="605.97665"
     inkscape:window-width="1920"
     inkscape:window-height="1008"
     inkscape:window-x="0"
     inkscape:window-y="0"
     inkscape:window-maximized="1"
     inkscape:current-layer="layer1" />
  <defs
     id="defs199" />
  <g
     inkscape:label="Layer 1"
     inkscape:groupmode="layer"
     id="layer1">
    <g
       id="g943"
       transform="matrix(4.7416768,0,0,4.7416768,-11.67955,-515.99386)">
      <path
         class="fil0"
         d="m 48.914299,152.73866 c -0.456571,0.43071 -0.911531,0.82807 -1.400384,1.22204 -0.0054,1.52167 -0.132158,2.83199 -0.404141,4.32922 -0.265024,1.31746 -0.714104,1.84377 -1.918845,2.47137 -0.495451,0.23703 -0.986801,0.45515 -1.494736,0.66399 -0.705902,0.28572 -1.393969,0.53398 -2.119846,0.76494 -1.333865,0.364 -1.906898,0.1696 -3.041905,-0.49902 -1.22115,-0.90422 -2.230778,-1.77902 -3.292306,-2.86605 -0.649009,0.0517 -1.274832,0.0774 -1.925803,0.0794 -0.522917,-0.001 -1.029604,-0.0183 -1.545208,-0.0519 l 1.545208,-1.54521 3.78847,-3.78847 c 0.9135,-0.19458 1.801673,-0.46443 2.782231,-0.83824 0.01784,-0.007 0.203138,-0.0815 0.203138,-0.0815 1.736397,-0.7323 3.021217,-1.49652 4.488666,-2.67897 0.309612,-0.2554 0.901371,-0.79758 0.901371,-0.79758 0.0091,-0.009 0.104869,-0.10023 0.104869,-0.10023 0.257,-0.24951 0.501514,-0.50062 0.743535,-0.76475 1.28963,-1.44641 2.1243,-2.71767 2.923661,-4.48367 0,0 0.0054,-0.0118 0.0047,-0.0116 0.747814,-1.76922 1.10879,-3.21865 1.279292,-5.13251 0.03102,-0.40859 0.04673,-1.2281 0.04673,-1.2281 -1.76e-4,-0.40984 -0.04673,-1.22811 -0.04673,-1.22811 -0.170677,-1.91367 -0.531653,-3.36347 -1.279292,-5.1325 -3.58e-4,-0.001 -0.0047,-0.0116 -0.0047,-0.0116 -0.798822,-1.76528 -1.634739,-3.03816 -2.923661,-4.48385 -0.242377,-0.26413 -0.486179,-0.51489 -0.743535,-0.76458 -0.0032,0.002 -0.104869,-0.10041 -0.104869,-0.10041 -0.291064,-0.27632 -0.901371,-0.79763 -0.901371,-0.79763 -1.465843,-1.18139 -2.753517,-1.94774 -4.488487,-2.67897 -0.06759,-0.0276 -0.135367,-0.0548 -0.203139,-0.0815 -1.833953,-0.69912 -3.345097,-1.03531 -5.301754,-1.19315 -0.422329,-0.0291 -1.268769,-0.0437 -1.268769,-0.0437 -0.42322,1.8e-4 -1.268768,0.0437 -1.268768,0.0437 -1.956657,0.15784 -3.467801,0.49403 -5.301754,1.19315 -0.01784,0.007 -0.203139,0.0815 -0.203139,0.0815 -1.736397,0.7323 -3.021217,1.49652 -4.488665,2.67897 -0.105047,0.0867 -0.242732,0.20634 -0.378812,0.32673 l -3.534503,-3.5345 c 0.317817,-0.2859 0.639913,-0.56019 0.97824,-0.83307 0.0053,-1.52166 0.132156,-2.83199 0.404137,-4.32922 0.265025,-1.31746 0.714106,-1.84376 1.918847,-2.47137 0.495451,-0.23702 0.9868,-0.45514 1.494736,-0.66399 0.705902,-0.28571 1.393968,-0.53397 2.119846,-0.76493 1.333686,-0.36401 1.906897,-0.16961 3.041905,0.49901 1.221149,0.90423 2.230778,1.77903 3.292306,2.86606 0.649009,-0.0517 1.274832,-0.0774 1.925803,-0.0794 0.65097,0.002 1.276794,0.0276 1.925802,0.0794 1.062064,-1.08739 2.0708,-1.96147 3.292307,-2.86606 1.077579,-0.76814 1.75013,-0.85981 3.041906,-0.49901 0.725341,0.23078 1.4143,0.47922 2.119845,0.76493 0.507757,0.20885 0.999284,0.42697 1.494557,0.66399 1.241305,0.65543 1.541105,1.18566 1.918846,2.47119 0.271802,1.49848 0.398612,2.80613 0.404142,4.32922 0.488845,0.39415 0.943812,0.79116 1.400384,1.22204 0.0118,0.0113 0.135368,0.12967 0.135368,0.12967 0.407884,0.39611 0.788834,0.79346 1.167647,1.21775 1.525051,-0.066 2.839301,-6.7e-4 4.352051,0.20457 1.330475,0.20689 1.878892,0.6351 2.557688,1.81541 0.310859,0.58713 0.591042,1.16533 0.859283,1.77314 0.264842,0.60977 0.499905,1.20777 0.720166,1.83502 0.408956,1.33672 0.236493,1.92687 -0.409307,3.09345 -0.879615,1.2545 -1.726767,2.26859 -2.814154,3.34795 0.05725,0.64812 0.08525,1.26948 0.08757,1.9201 -0.002,0.65061 -0.03014,1.27198 -0.08757,1.92009 1.087563,1.07955 1.934364,2.09345 2.814154,3.34795 0.747275,1.11004 0.813267,1.80079 0.409307,3.09345 -0.220261,0.6269 -0.455324,1.22543 -0.720166,1.83503 -0.268241,0.60798 -0.548424,1.18566 -0.859283,1.77313 -0.708042,1.21509 -1.253964,1.49456 -2.557688,1.8154 -1.513822,0.20529 -2.825928,0.27074 -4.352051,0.20457 -0.378813,0.42429 -0.759588,0.82148 -1.167472,1.21776 -0.04491,0.0435 -0.09024,0.0865 -0.135361,0.12966 z"
         id="path838"
         style="clip-rule:evenodd;fill:#ee3d37;fill-rule:nonzero;stroke-width:0.000178348;image-rendering:optimizeQuality;shape-rendering:geometricPrecision;text-rendering:geometricPrecision" />
      <path
         class="fil1"
         d="m 21.98231,157.21823 -5.617074,-5.61707 h 8.501855 c 0.187979,1.01765 1.079898,1.78847 2.151949,1.78847 1.208843,0 2.188509,-0.98002 2.188509,-2.18851 0,-1.20884 -0.979845,-2.18869 -2.188509,-2.18869 -1.032102,0 -1.89709,0.71447 -2.127872,1.67576 h -8.493651 l 5.585507,-5.58551 c 2.424642,-2.42464 6.391996,-2.42464 8.816638,0 l 6.058129,6.05813 -6.057415,6.05742 c -2.424999,2.425 -6.393067,2.425 -8.818066,0 z"
         id="path840"
         style="clip-rule:evenodd;fill:#7ac043;fill-rule:evenodd;stroke-width:0.000178348;image-rendering:optimizeQuality;shape-rendering:geometricPrecision;text-rendering:geometricPrecision" />
      <path
         class="fil1"
         d="m 5.0989857,130.86641 9.8141403,-9.81415 9.81414,9.81415 c 2.648648,2.64864 2.648648,6.98268 0,9.63133 l -9.276064,9.27606 v -12.94682 c 1.368287,-0.2529 2.404668,-1.45212 2.404668,-2.89353 0,-1.62528 -1.317457,-2.94273 -2.942744,-2.94273 -1.625286,0 -2.942744,1.31745 -2.942744,2.94273 0,1.38773 0.960761,2.55092 2.253428,2.86125 v 12.82786 l -9.1248243,-9.12482 c -2.648648,-2.64865 -2.648648,-6.98287 0,-9.63133 z"
         id="path842"
         style="clip-rule:evenodd;fill:#7ac043;fill-rule:evenodd;stroke-width:0.000178348;image-rendering:optimizeQuality;shape-rendering:geometricPrecision;text-rendering:geometricPrecision" />
    </g>
  </g>
</svg>
