<svg xmlns="http://www.w3.org/2000/svg" viewBox="0 0 1551.22 329.47" fill="#fff" xmlns:v="https://vecta.io/nano"><path d="M423.24 181.63l-6.45-3.92c-19.23-10.48-40.83-1.32-48.82 16.69-8.21 18.52 2.6 39.7 22.87 45.3 7.61 2.1 15.26 2.05 22.8-.19 11.67-3.46 17.89-12.04 21.12-23.23 2.24-7.77 2.77-15.76 2.78-23.79V3.45.08h2.61l88.09-.04c1.98 0 2.67.41 2.66 2.55l-.07 194.64c-.02 21.13-3.21 41.69-12.17 61.05-12.87 27.79-34.07 46.86-61.91 58.99-20.73 9.03-42.36 12.76-64.87 11.17-41.92-2.96-75.57-21.22-100.39-55.19-11.52-15.77-17.87-33.65-19.94-53.08-3.42-32.09 3.96-61.24 24.14-86.65 18.62-23.47 42-40.02 71.45-47.24 13.65-3.34 27.49-4.23 41.48-3.24l14.6 1.01.02 97.58zm-315.67.12V84.06l16.76-1.23c40.5-1.99 75.01 11.19 103.02 40.77 16.43 17.35 27.42 37.59 30.96 61.3 6.32 42.38-5.02 79.01-36.82 108.57-19.66 18.28-42.79 29.51-69.29 33.48-40.27 6.03-76.92-2.85-108.92-28.32-20.92-16.65-33.42-38.81-39.4-64.73-2.8-12.11-3.87-24.4-3.87-36.82V2.66.08h2.72L90.36.02c2.39-.01 2.97.62 2.96 2.97l-.05 189.05c0 8.97.54 17.87 3.4 26.49 6 18.09 19.96 23.75 36.11 22.43 10.81-.88 19.64-5.8 26.13-14.48 7.51-10.05 8.31-21.25 3.64-32.51-4.7-11.34-13.6-18.06-25.82-20.21-9.73-1.71-18.23 1.54-26.39 6.33l-2.77 1.66zm525.31 147.03h-2.7c-13.86 0-27.72.12-41.58-.03-18.16-.2-32.21-7.79-41.29-23.8-3.41-6.01-4.88-12.6-4.88-19.47l-.02-163.29c0-.61.05-1.22.09-1.98.52-.08.95-.22 1.39-.21 15.65.02 31.32-.41 46.95.2 22.33.87 42.07 19.23 42.06 43.16l-.01 162.82-.01 2.6zM543.2 93.3l7.06-20.82 15.51-41.69c1.44-3.74 3.75-7.15 5.71-10.68 5.53-9.95 14.12-15.69 25.24-17.24 9.22-1.29 18.54-2.4 27.83-2.63 17.2-.42 34.42-.14 51.64-.15.38 0 .76.06 1.51.12-.28.83-.48 1.53-.76 2.2l-25.09 60.98c-2.56 6.33-5.65 12.17-9.87 17.59-4.72 6.06-10.85 9.26-18.11 10.45-5.89.97-11.88 1.81-17.84 1.88l-60.99.1c-.53 0-1.06-.06-1.84-.11zm157.55 207.2c7.77 2.86 15.26 3.99 22.41-.73 4.35-2.87 6.58-7.25 8.16-12.65l-3.27 1.48c-10.38 4.37-20.36 4.29-29.35-3.24-6.31-5.29-9.46-12.43-9.58-20.54l-.09-50.94c0-.3.08-.6.14-1.03h31.05v2.83l.01 39.73c0 2.61.49 5.02 3.18 6.23 4.04 1.82 7.94-.4 8.56-4.88.15-1.07.1-2.18.1-3.27v-37.86-2.74h31.07c.05.62.15 1.29.15 1.95l-.03 69.87c-.09 19.62-11.53 35.79-29.72 42.13-10.35 3.61-20.78 3.42-31.12-.13-.67-.23-1.58-1.16-1.59-1.77l-.08-24.44zm220.01-40.79v13.28l.03 11.45c.04 1.41-.46 2.04-1.78 2.47-20.27 6.65-41.89-5.77-46.25-26.64-5.81-27.84 15.42-46.06 34.97-48.6 10.74-1.4 20.93.08 30.5 5.25 10.2 5.51 15.46 14.49 17.05 25.6.87 6.13.89 12.4 1.02 18.61.16 7.4.27 14.81-.02 22.2-.73 18.17-8.18 32.51-24.97 40.7-11.11 5.41-22.8 5.57-34.52 1.71-.58-.19-1.39-.94-1.39-1.43l-.06-25.71c.89.34 1.51.54 2.11.81 4.38 1.93 8.99 2.6 13.69 1.94 7.1-.99 12.05-5.96 13.4-13.36.42-2.28.56-4.64.58-6.96l.01-28.74c-.01-1.7-.06-3.44-.42-5.1-1.24-5.7-5.33-8.55-11.1-7.89-5.63.64-10.17 5.6-10.09 11.03.07 5.35 4.17 9.74 9.71 10.03 2.42.11 4.88-.4 7.53-.65zm95.89-46.88h31.05l.12 2.39-.01 67.51c-.03 10.67-2.26 20.73-9.11 29.26-13.48 16.8-33.93 20.88-51.9 14.69-.61-.21-1.4-1.08-1.41-1.65l-.06-24.51c7.4 2.75 14.65 3.86 21.71-.36 4.12-2.46 7.11-6.98 8.66-12.96l-2.78 1.19c-9.77 4.32-19.35 4.61-28.29-1.9-6.81-4.96-10.66-12-10.85-20.31-.41-17.43-.21-34.88-.24-52.32 0-.3.11-.59.2-1.03h30.76c.04.94.12 1.84.12 2.74l.02 37.85c0 1.24.07 2.49.24 3.72.46 3.22 2.3 4.89 5.41 5.02 3.3.14 5.29-1.36 5.95-4.64.28-1.36.4-2.77.4-4.16l.02-37.85-.01-2.68zm95.2 49.41v30.62l-8.04.51c-14.73-.38-27.04-5.89-35.59-18.14-13.73-19.67-8.03-51.05 21.32-61.59 11.62-4.17 23.53-3.49 34.92 1.16 13.69 5.58 21.65 16.3 22.77 30.79 1.17 15.17.68 30.47.92 45.88h-31.45v-2.44l-.02-33.41c-.01-1.7-.16-3.43-.52-5.09-1.03-4.79-4.68-8.37-9.07-8.91-5.34-.66-9.68 1.11-12.62 5.73-2.4 3.77-2.05 8.89.7 12.5 2.99 3.94 8.56 5.31 13.98 3.42.85-.3 1.7-.65 2.7-1.03zm439.13 29.27h-30.93v-2.57l-.02-33.41c-.01-1.7-.16-3.43-.52-5.09-1.03-4.68-4.61-8.14-8.9-8.83-5.2-.83-10.22 1.44-12.82 5.8-2.28 3.82-1.95 8.95.81 12.51 2.98 3.84 8.48 5.2 13.8 3.4.87-.3 1.72-.67 2.81-1.09.04.84.11 1.57.11 2.3l.06 25c.05 2.49-.44 3.46-3.18 3.65-16.68 1.14-30.68-4.07-40.51-17.86-13.68-19.18-8.65-51 21.14-61.58 14.27-5.07 28.65-3.67 41.67 4.6 9.96 6.33 15.53 15.99 16.16 27.58.82 14.98.44 30.03.56 45.06 0 .13-.12.26-.24.53zm-247.31-29.3l-.06 29.23c0 .5-.76 1.38-1.26 1.45-23.48 3.31-46.51-11.59-49.1-35.79-2.93-27.38 18.93-43.52 36.17-45.45 9.85-1.1 19.47-.44 28.51 3.85 12.55 5.96 19.34 16.2 21.14 29.82.42 3.15.48 6.36.49 9.54l.02 36.59h-31.19v-2.44l-.03-32.94c-.01-2.08-.14-4.23-.65-6.23-1.25-4.93-5.3-8.15-10.03-8.32-5.81-.2-10.56 2.75-12.35 7.7-1.65 4.53-.21 9.73 3.63 12.58 3.69 2.74 7.77 2.82 11.99 1.44.81-.25 1.59-.59 2.72-1.03zm-440.18-10.96c.32 23.03-18.11 38.55-34.78 41.26-15.48 2.51-29.04-1.14-40.54-12.17-16.19-15.53-15.72-42.69 1.43-57.95 17.64-15.7 51.78-17.08 68.32 9.41 3.87 6.22 5.63 13.06 5.57 19.45zm-55.5.6c-.18 6.53 5.01 12.02 11.53 12.19 6.67.17 12.18-5.03 12.36-11.66.17-6.52-4.96-11.77-11.71-11.97-6.7-.2-12 4.77-12.18 11.44zm600.84-68.11h31.13v30.08h13.89v31.36h-13.43c-2.01 9.85 2.54 15.2 14.01 16.64v30.94c-5.73.54-11.3-.2-16.74-1.9-16.94-5.31-27-17.95-28.44-35.7-.25-3.1-.39-6.21-.4-9.32l-.02-59.09v-3.01zm-242.88.03h30.89v107.67h-30.89V183.77zm237.04 59.72l-1.86-.71c-6.28-2.32-11.09.53-11.96 7.17-.26 2-.35 4.03-.36 6.05l-.02 35.45h-30.94c-.05-.35-.16-.72-.16-1.08l.22-46.01c.45-18.8 14.79-32.77 33.55-33.12 3.79-.07 7.58.26 11.53.42v31.83zm-151.03 48.15h-4.68c-9.11 0-18.21-.05-27.32.04-1.72.02-2.59-.41-3.23-2.12l-17.81-47.54c-.39-1.06-.32-2.62.18-3.62l12.28-23.82c.4-.77 1.33-1.79 2.02-1.8l31.18-.08c-.48 1.01-.8 1.76-1.18 2.48l-12.88 24.3c-.79 1.46-.84 2.61-.16 4.11l20.62 45.65c.31.69.57 1.4.98 2.4zm-325-123.44l-.11-1.61.03-72.21.1-2.8c.4-3.26 1.22-4.22 4.48-4.47 8.77-.67 17.55-1.45 26.3.25 11.71 2.28 19.62 8.95 22.51 20.63 3.4 13.73 3.12 27.53-1.59 40.93-4.31 12.28-13.44 18.81-26.33 20.26-8.43.93-16.77-.17-25.39-.98zm13.27-71.9c-.04.88-.11 1.64-.11 2.4v57.92c0 .39-.14.86.04 1.15.34.56.84 1.45 1.29 1.46 3.34.07 6.75.38 10-.18 7.79-1.32 11.7-6.95 13.77-13.95 3.27-11.09 3.48-22.41 1.31-33.7-1.11-5.78-3.89-10.74-9.66-13.19-5.29-2.23-10.86-2.31-16.64-1.91zm-217.89 26.5l4.27 2.49c6.71 4.39 9.4 10.77 8.85 18.58-.2 2.85-.55 5.77-1.4 8.48-3.18 10.2-10.66 15.69-20.91 16.61-7.38.66-14.89-.16-22.34-.43-.5-.02-1.02-.98-1.43-1.56-.15-.21-.03-.61-.03-.92l-.04-75.42c-.01-2.3.64-3.55 3.01-3.56 7.45-.05 14.95-.63 22.34.01 9.14.78 15.56 7.05 16.3 15.01.78 8.22-.76 15.69-8.62 20.71zm-19.65 6.46v30.49l3.4.34c6.61.53 11.57-2.39 13.37-8.78 1.07-3.8 1.33-7.97 1.18-11.95-.15-3.84-1.93-7.28-5.78-8.94-3.91-1.69-8.02-1.57-12.17-1.16zm-.02-33.3v23.82c4.58-.72 9.99 1.67 12.76-3.95 2.65-5.39 3.41-11.14-.13-16.4-3.01-4.48-7.86-3.85-12.63-3.47zm643.39 65.53c-.38 2.87.66 5.93-2.73 7.5-3.43 1.59-6.82 2.15-10.19-.09-.9-.6-1.73-1.31-2.57-1.97-12.01 8.05-28.43 2.58-32.7-11.17-3.2-10.31-2.89-20.72 1.11-30.86 4.67-11.83 15.76-19.01 29.94-15.22.21.06.45.01.61.01l-.02-22.21c-.03-3.1.63-4.57 3.62-5.35 2.37-.62 4.89-.74 7.36-.89.48-.03 1.38.77 1.47 1.28.39 2.37.77 4.77.77 7.17l-.17 65.64c0 .62-.06 1.25 0 1.87.21 2.17.36 4.4 3.5 4.29zm-16.33-23.3h.04l.03-16.35c.02-1.49-.51-2.23-1.85-2.77-6.04-2.45-12.23-.16-15.12 6.25-4.17 9.27-4.15 18.92-.78 28.4 2.11 5.92 7.81 8.07 13.77 5.88 3.04-1.12 3.84-2.07 3.88-5.29l.03-16.12zm-287.37 3.53l22.77 27.32c1.73 2.08 1.48 2.83-1.02 3.85-5.66 2.32-10.8.86-15.03-4.08l-15.18-17.4c-.41-.47-.75-.99-1.12-1.48l-.66.26v6.84 8.41c.05 2.08-.91 3.36-2.9 3.51-2.87.22-5.75.21-8.63.21-1.53 0-1.57-1.13-1.55-2.31l.3-21.49-.33-57.69c-.02-3.29 1-4.95 4.14-5.81 1.93-.53 3.98-.73 5.98-.83.62-.03 1.68.67 1.85 1.24.54 1.76 1 3.62 1.03 5.45l.05 22.83c3.49-.97 6.84-2.06 10.27-2.79 1.79-.38 3.74-.36 5.57-.13 6.62.85 10.41 6.47 9.68 13.83-.77 7.79-4.83 13.46-11.11 17.76-1.4.97-2.91 1.78-4.11 2.5zm-10.24-5.21c4.39-2.39 7.9-5.04 10.07-9.08 1.31-2.43 2.19-5.07 1.17-7.82-.32-.86-1.3-1.87-2.15-2.07-2.77-.64-8.97 4.27-9.07 7.15-.11 3.8-.02 7.59-.02 11.82zm220.02-22.85c5.3-3.56 11.15-5.12 17.61-4.83 9.4.42 15.13 5.41 15.54 14.84.49 11.35.39 22.72.54 34.08.04 2.65 0 5.3.13 7.94.07 1.39-.34 2.41-1.71 2.58a142.82 142.82 0 0 1-9.71.84c-.4.02-1.13-.83-1.24-1.37-.38-1.81-.74-3.67-.76-5.51l-.23-34.8c-.07-4.74-2.02-7.45-5.53-8.14-4.28-.85-8.03.4-11.09 3.47-.55.55-.72 1.67-.72 2.53l-.03 35.51c0 .93.03 1.88-.08 2.8-.48 3.98-2.09 5.43-6.11 5.54-2.1.05-4.2.05-6.31.05-.22 0-.44-.11-.9-.23v-2.69l.25-41.11c0-3.08-.66-6.16-.93-9.25-.06-.66.05-1.68.47-1.97 4-2.8 6.92-4.19 10.81-.28zm148.32-3.97l.12 2.06-.19 43.2c0 2.69.43 5.42.95 8.07.26 1.31.03 2.05-1.07 2.64l-1.42.81c-3.89 2.11-5.54 1.92-8.8-1.08-3.93 2.73-8.29 4.51-13.12 4.88-4.33.33-8.56-.26-12.47-2.22-5.25-2.64-7.23-7.51-7.45-12.89-.3-7.13.01-14.29.16-21.44.14-6.83 1.09-13.67-.82-20.42-.13-.46.27-1.31.69-1.63 1.04-.8 2.2-1.46 3.37-2.07 4.72-2.49 8.55-.98 9.32 4.3.79 5.42.9 10.97.89 16.46-.01 6.84-.75 13.68-.63 20.51.15 8.3 4.74 10.7 12.88 8.26 3.73-1.12 4.41-2.44 4.41-6.28l.02-35.5a17.14 17.14 0 0 1 .47-3.91c.45-1.84 1.74-2.98 3.62-3.16 2.94-.26 5.89-.39 9.07-.59zM846.18 166.9c-4.58 3.72-10.13 3.88-15.64 2.96-8.77-1.46-14.05-9.38-12.78-18.5 1.25-9 6.75-14.84 16.64-17.16 3.52-.83 7.2-.98 11.39-1.51-.19-3.29-.19-6.99-.68-10.62-.31-2.27-2.13-3.24-4.9-2.69-3.71.74-7.42 1.67-10.99 2.9-5.29 1.83-6.8.99-7.57-4.58-.26-1.89.28-3.14 1.91-4.06 7.88-4.49 16.29-5.93 25.19-4.33 4.68.84 7.6 3.85 8.82 8.32.67 2.45 1.02 5.05 1.04 7.59l-.12 30.13c0 .86.01 1.71.06 2.57.1 2 .84 3.48 3.08 3.56.98 6.5-4.21 10.55-10.47 8.19-1.65-.63-3.12-1.72-4.98-2.77zm-.68-25.91c-3.35.82-6.39 1.36-9.28 2.35-2.74.94-4.51 3.18-4.94 6.02-.55 3.59-1.25 7.67 2.24 10.09 3.28 2.28 6.91.95 10.02-1.05.91-.58 1.83-1.9 1.88-2.92.2-4.55.08-9.12.08-14.49zm-76.03-8.29l-.46-9.32c-.33-3.29-1.95-4.61-5.24-3.98a83.42 83.42 0 0 0-11.21 2.99c-4.89 1.67-6.15 1.07-7.25-4.03-.47-2.17.04-3.72 2.08-4.87 7.54-4.25 15.64-5.66 24.1-4.39 6.42.97 10.18 5.37 10.45 12.42.33 8.94.15 17.9.16 26.85l-.06 8.88c.05 2.13.56 4.07 3.47 4.3-.63 2.4.88 5.13-1.95 6.85-3.04 1.84-6.22 2.48-9.55.99-1.4-.63-2.64-1.62-4.07-2.52-5.09 3.86-11.01 4.04-17.01 2.69-6.74-1.52-11.22-7.24-11.54-14.12-.51-11.07 5.13-18.48 16.54-21.22 3.58-.86 7.34-.99 11.54-1.52zm-.5 8.89c-.68 0-1.38-.04-2.07.01-.85.06-1.7.18-2.54.32-7.83 1.28-11.27 6.39-9.47 14.04.66 2.81 2.3 4.29 4.93 4.47 3.6.24 8.35-1.72 9.05-3.74.08-.22.09-.46.09-.69l.01-14.41zm350.95-8.71c-.18-3.47-.18-7.03-.6-10.55-.28-2.34-2.22-3.51-4.99-2.95-3.79.76-7.56 1.72-11.21 2.97-5.01 1.72-7.01.53-7.47-4.8-.15-1.73.32-2.95 1.9-3.87 7.63-4.45 15.87-5.91 24.5-4.54 6.6 1.05 10.29 5.7 10.44 13.19.22 10.82.05 21.64.04 32.46 0 1.01-.05 2.03.02 3.04.14 1.94.79 3.51 3.05 3.65.98 6.5-4.09 10.54-10.34 8.2-1.71-.64-3.23-1.77-4.92-2.73-5.63 3.96-11.97 4.22-18.36 2.16-6.17-1.98-9.37-6.69-10.05-13.05-1.42-13.44 7.52-20.17 18.56-22.34 2.94-.58 6-.55 9.43-.84zm-.46 8.6c-1.64.16-3.34.23-5 .5-7.67 1.27-11.28 7.14-8.97 14.53.83 2.66 2.54 3.98 5.36 3.9 3.34-.09 6.48-.78 8.52-3.82.08-.12.09-.3.09-.45v-14.66zm312.22-33.41c3.95 1.03 8.04 1.68 11.8 3.18 4.27 1.71 4.76 5.69 1.53 8.99-.32.33-1.1.43-1.61.33-1.9-.36-3.78-.85-5.67-1.29-1.44-.33-2.86-.78-4.31-.96-3.42-.43-6.47 1.04-7.53 3.48-1.17 2.69-.21 5.58 2.85 7.9l11.85 8.71c3.71 2.84 6.83 6.2 7.88 10.94 1.74 7.91-1.84 15.32-9.31 18.66-7.99 3.57-16.23 3.49-24.24.12-4.91-2.06-5.54-3.9-2.41-9.39 1.03-1.8 2.76-.84 4.19-.45 2.61.71 5.16 1.79 7.82 2.2 2.01.31 4.23.13 6.21-.39 4.07-1.07 5.69-6.36 3.11-10.18-1.01-1.5-2.57-2.67-4.02-3.82-3.96-3.15-8.11-6.06-11.95-9.33-4.66-3.97-7.19-9.02-6.01-15.3 1.34-7.13 6.38-10.54 12.97-12.07 2.18-.51 4.46-.59 6.69-.87a4.19 4.19 0 0 1 .16-.46zm29.55 12.05l-4.98-1.12c-.83-.28-2.12-1.12-2.09-1.65.07-1.34.38-3.15 1.3-3.87 1.46-1.14 3.45-1.73 5.31-2.19 1.19-.3 1.75-.61 1.78-1.9l.4-7.45c-.06-2.63 1.15-4.44 3.34-5.38 2.53-1.08 5.26-1.69 8.24-2.62v16.31h15.52l-.01 3.05c-.44 5.04-1.64 6.19-6.68 6.29l-9.13.01.03 17.22c.16 6.13.26 12.29.92 18.38.57 5.33 2.98 6.56 8.11 4.95 1.18-.37 2.28-.99 3.46-1.36 1.46-.45 2.54-.19 2.79 1.65.69 5.18-.38 7.36-5.4 8.72-3.32.9-6.89 1.38-10.31 1.23-4.91-.21-8.7-3.01-10.18-7.67-1.32-4.16-2.13-8.62-2.3-12.97-.34-8.94-.11-17.9-.11-26.85l-.01-2.78zm-298.97-9.86h15.93c-.59 2.63-.78 5.14-1.79 7.26-.5 1.05-2.46 1.85-3.82 1.96-3.38.28-6.81.09-10.41.09-.07 1.59-.16 2.73-.16 3.87l.04 25.92c.05 2.68.56 5.42 1.27 8.01.83 3.05 2.64 3.98 5.69 3.29 1.58-.36 3.07-1.08 4.64-1.52.97-.28 2-.35 2.89-.5.25.52.35.64.37.78.91 7.65-1.6 10.28-10.5 11.07-9.88.87-16.12-4.01-16.91-13.93-.59-7.35-.44-14.76-.55-22.15-.07-4.74-.01-9.48-.01-14.27-1.8-.38-3.51-.59-5.1-1.15-.87-.31-2.2-1.27-2.15-1.83.11-1.33.58-3.05 1.54-3.79 1.41-1.09 3.33-1.68 5.12-2.06 1.27-.27 1.71-.72 1.76-1.92.11-2.49.39-4.97.42-7.46.04-2.78 1.43-4.66 3.83-5.6 2.47-.97 5.12-1.51 7.92-2.3l-.02 16.23zm-350.48 51.53c.74 6.47-1.63 7.67-7.24 8.53-4.17.64-8.57-3.21-9.11-7.59-.1-.85-.11-1.71-.11-2.56l-.22-73.59c-.01-2.37 1.07-3.85 3.1-4.31 2.7-.62 5.5-.8 8.27-1.02.38-.03 1.09.75 1.2 1.26.3 1.36.48 2.77.48 4.16l.12 69.39c.02 3.93.57 4.84 3.51 5.73zm273.97.09c.29 5.87-1.89 8.35-7.51 8.52-4.62.14-8.76-3.95-8.76-8.74l-.02-62.35c-.01-4.12-.05-8.26-.31-12.37-.15-2.33.76-4.03 2.78-4.54 2.82-.72 5.79-.93 8.71-1.1.42-.02 1.25 1.41 1.32 2.22a108.83 108.83 0 0 1 .47 9.55l.02 63.52c.01 3.59.39 4.17 3.3 5.29zm128.79-33.42l.1-37.58c.02-1.15 1.27-3.05 2.27-3.29 2.97-.73 6.09-.94 9.16-1.03.56-.01 1.51 1.48 1.68 2.39.34 1.82.35 3.71.35 5.58l.24 70.5c.01 2.31-.96 3.38-2.98 3.59l-8.36.53c-1.77.07-2.18-1.15-2.18-2.64l-.01-14.24v-23.81c-.09.01-.18 0-.27 0zm294.71-15.15l8.6-3.58c3.04-1.15 6.13-.84 9.14.15 2.08.68 3.28 2.03 2.84 4.4-.06.3-.03.62-.08.93-.8 5.09-1.76 5.88-6.84 5.34-3.16-.34-6.2-.31-9 1.45-1.28.81-1.9 1.74-1.89 3.39l.04 36.9c0 5.34-1.38 6.74-6.77 6.84l-6.32.01v-2.8l.08-44.6c0-1.68-.28-3.45-.86-5.02-.71-1.92-.03-2.89 1.57-3.64l2.09-1.04c3.18-1.45 5.08-1.09 7.4 1.27zm27.81 55.74v-13.21l-.1-40.16c-.01-2.99.57-4.18 3.47-4.9 2.31-.57 4.75-.8 7.14-.82.77-.01 1.89.99 2.23 1.79.49 1.17.57 2.58.57 3.89l.02 45.78c0 .85-.06 1.72-.24 2.54-.87 3.97-1.9 4.86-5.99 5.1l-5.84.11c-.32-.01-.63-.07-1.26-.12zm-544.34-.01v-12.99l-.2-41.31c-.02-1.77.75-3.09 2.2-3.44 2.91-.71 5.91-1.06 8.9-1.34.54-.05 1.44.88 1.7 1.54.41 1.06.55 2.27.56 3.42l.06 46.45-.1 2.1c-.51 3.87-1.96 5.32-5.83 5.54-2.33.14-4.66.03-7.29.03zm-121.04-.01V156l-.2-41.31c-.01-1.77.78-3.07 2.24-3.41 2.91-.69 5.92-1.03 8.9-1.32.5-.05 1.36.77 1.6 1.37.4.98.58 2.11.58 3.18l.08 47.15c0 .7-.02 1.41-.13 2.09-.61 3.72-1.89 5-5.61 5.25-2.39.16-4.79.03-7.46.03zm672.84-86.78c4.87.04 6.75 1.96 6.71 6.84-.06 5.81-2.56 8.49-7.85 8.41-4.7-.08-6.93-2.59-6.85-7.74.07-5.06 2.73-7.55 7.99-7.51zm-544.42 0c4.89.04 6.7 1.89 6.68 6.83-.02 5.83-2.5 8.5-7.81 8.42-4.75-.07-6.83-2.44-6.78-7.73.05-5.12 2.62-7.56 7.91-7.52zm-114.36 6.98c-.05 5.7-2.48 8.29-7.72 8.26-4.77-.03-6.86-2.36-6.85-7.65.02-5.22 2.62-7.68 8.05-7.6 4.81.08 6.56 1.95 6.52 6.99z"/></svg>