<?xml version="1.0" encoding="utf-8"?>
<!-- Generator: Adobe Illustrator 25.0.1, SVG Export Plug-In . SVG Version: 6.00 Build 0)  -->
<svg version="1.1" id="Layer_1" xmlns="http://www.w3.org/2000/svg" xmlns:xlink="http://www.w3.org/1999/xlink" x="0px" y="0px"
	 viewBox="0 0 1551 442.79" style="enable-background:new 0 0 1551 442.79;" xml:space="preserve">
<style type="text/css">
	.st0{fill:#FFFFFF;}
</style>
<g>
	<path class="st0" d="M2.56,0.06c0.57,1.1,1.71,1.46,2.68,2.02c56.78,33.26,113.57,66.52,170.39,99.72c2.29,1.34,3.13,2.87,3.1,5.49
		c-0.13,14.75-0.09,29.5-0.11,44.25c0,1.67,0.05,3.35-0.46,4.98c-2.03-0.59-3.81-1.7-5.62-2.74
		c-39.73-22.67-79.45-45.35-119.18-68.02c-1.06-0.6-2.06-1.4-3.37-1.3c-0.8,1.3-0.72,2.67-0.72,4.03c0,4.39,0,8.79,0,13.18
		c0.01,66.98,0.04,133.96,0.01,200.94c0,2.38,0.88,3.86,2.89,5.09c35.25,21.61,70.48,43.27,105.72,64.9
		c6.69,4.1,13.43,8.12,20.14,12.18c0.42,1.84,0.62,3.7,0.62,5.6c0,16.32,0.03,32.64,0.01,48.96c0,1.08,0.6,2.49-0.57,3.2
		c-1.33,0.81-2.31-0.48-3.33-1.1c-24.26-14.68-48.51-29.37-72.77-44.06c-33.03-20-66.05-40.01-99.08-60
		c-1.18-0.71-2.34-1.4-2.9-2.74c0.05-1.46,0.16-2.92,0.16-4.38c-0.03-57.46-0.08-114.92-0.11-172.38
		c-0.02-51.49,0-102.99-0.01-154.48c0-1.15-0.06-2.31,0.63-3.32C1.3,0.06,1.93,0.06,2.56,0.06z"/>
	<path class="st0" d="M178.77,371.16c-2.35-0.93-4.47-2.27-6.6-3.59c-36.57-22.64-73.12-45.3-109.73-67.88
		c-2.34-1.44-3.21-3.03-3.19-5.8c0.12-17.68,0.04-35.35,0.04-53.03c0-3.07,0.77-3.5,3.47-1.99c17.27,9.63,34.53,19.26,51.8,28.88
		c20.83,11.61,41.67,23.21,62.51,34.81c0.55,0.3,1.08,0.64,1.62,0.96c-0.24,5.65-0.22,11.31,0,16.96c-1.26,0.77-2.2-0.09-3.17-0.65
		c-13.85-8.05-27.7-16.11-41.56-24.15c-1.72-1-2.78-2.23-3.22-4.31c-1.49-6.92-9.66-12.39-16.68-11.38
		c-5.61,0.8-7.89,4.9-5.57,10.01c2.62,5.8,10.41,9.91,16.69,8.65c2.73-0.54,5.11-0.16,7.51,1.26c15.31,9.07,30.66,18.08,46,27.1
		c-0.24,14.67-0.31,29.33,0.04,44L178.77,371.16z"/>
	<path class="st0" d="M178.2,172.26c0.25-0.22,0.5-0.44,0.75-0.65c1.13,0.02,1.94-0.71,2.84-1.22
		c36.49-20.74,72.97-41.49,109.45-62.24c1.18-0.67,2.32-1.44,3.53-2.04c2.04-1.01,2.65-0.64,2.78,1.53
		c0.02,0.31,0.01,0.63,0.01,0.94c0,15.07,0,30.14-0.01,45.21c0,0.42-0.06,0.83-0.08,1.25c-1.5,0.19-2.74,1.01-4.01,1.72
		c-10.61,5.88-21.21,11.78-31.8,17.69c-7.49,4.17-14.99,8.34-22.46,12.54c-9.02,5.08-18.01,10.21-27.04,15.28
		c-8.48,4.77-16.94,9.56-25.48,14.2c-2.53,1.38-4.84,3.39-7.95,3.5c-0.03-12.14-0.07-24.28-0.1-36.42
		C178.61,179.78,178.74,176.01,178.2,172.26z"/>
	<path class="st0" d="M178.76,252.59c12.61-7.44,25.23-14.87,37.84-22.31c2.7-1.59,5.44-3.13,8.12-4.77
		c2.1-1.28,4.31-1.53,6.64-0.96c6.22,1.51,15.06-3.02,17.6-10.57c0.91-2.69-0.19-5.55-2.7-7.06c-2.13-1.29-4.55-1.97-6.94-1.31
		c-6.45,1.79-11.87,4.91-13.36,12.15c-0.32,1.53-1.2,2.31-2.37,3.08c-5.94,3.92-12.22,7.28-18.33,10.91
		c-8.18,4.86-16.46,9.57-24.68,14.36c-0.83,0.48-1.56,1.12-2.57,0.51c0.08-6.79,0.15-13.59,0.23-20.38
		c1.64-0.67,3.38-1.18,4.92-2.04c11.98-6.65,23.91-13.37,35.87-20.06c13.59-7.61,27.19-15.22,40.79-22.83
		c10.68-5.97,21.36-11.95,32.07-17.86c1.61-0.89,3.14-2.17,5.19-1.98c0.45,0.87,0.45,1.82,0.45,2.76
		c-0.01,14.51-0.03,29.03-0.05,43.54c-2.27,0.19-4.14,1.4-6.05,2.47c-6.01,3.37-12,6.79-18.01,10.16
		c-7.38,4.14-14.77,8.25-22.16,12.38c-10.03,5.61-20.06,11.21-30.08,16.82c-6.38,3.57-12.75,7.16-19.14,10.72
		c-6.39,3.56-12.8,7.08-19.19,10.62c-1.2,0.67-2.43,1.23-3.85,1.15c-0.11-1.34-0.32-2.67-0.33-4.01
		C178.66,262.92,178.72,257.75,178.76,252.59z"/>
	<path class="st0" d="M178.73,370.99c-0.35-14.67-0.28-29.33-0.04-44c5.94-3.29,11.89-6.57,17.83-9.87
		c10.79-5.99,21.56-11.99,32.35-17.99c9.59-5.34,19.19-10.66,28.78-16.01c10.23-5.7,20.42-11.46,30.69-17.08
		c2.83-1.55,5.64-3.21,8.74-4.23c0.65,0.95,0.41,2.02,0.41,3.05c0.03,9.51-0.04,19.03,0.11,28.54c0.05,2.97-1.02,4.84-3.53,6.39
		c-37.29,23.02-74.54,46.11-111.81,69.18C181.12,369.69,179.91,370.32,178.73,370.99z"/>
	<path class="st0" d="M178.69,320.47c-0.22-5.65-0.24-11.31,0-16.96c13.6-8.02,27.2-16.04,40.8-24.05c2.16-1.27,4.36-2.48,6.57-3.68
		c1.67-0.9,3.47-0.79,5.21-0.35c7.01,1.78,15.34-3.33,17.7-10.71c1.37-4.28-3.04-8.97-7.94-8.28c-4.28,0.6-8.3,2.02-11.48,5.27
		c-1.75,1.8-2.95,3.88-3.39,6.25c-0.41,2.2-1.6,3.49-3.42,4.54c-5.8,3.34-11.56,6.74-17.35,10.1c-7.33,4.25-14.67,8.47-22,12.72
		c-1.45,0.84-2.83,1.82-4.59,1.89c-0.03-1.14-0.05-2.29-0.09-3.43c-0.16-4.58-0.4-9.16,0.3-13.72c0.15-1.34,1.17-1.85,2.2-2.42
		c11.78-6.58,23.53-13.21,35.31-19.77c6.76-3.77,13.59-7.41,20.36-11.17c10.05-5.59,20.08-11.23,30.11-16.86
		c6.11-3.43,12.17-6.96,18.32-10.3c3.85-2.09,7.45-4.68,11.73-5.92c0.42,1.09,0.48,2.25,0.48,3.4c-0.03,12.86-0.07,25.71-0.11,38.57
		c-0.59,0.2-1.22,0.33-1.75,0.62c-5.51,3-11,6.03-16.5,9.05c-6.6,3.63-13.2,7.23-19.78,10.9c-9.77,5.45-19.51,10.95-29.26,16.41
		c-7.48,4.19-14.96,8.38-22.44,12.55c-8.58,4.79-17.17,9.56-25.75,14.34C180.93,320.02,179.91,320.58,178.69,320.47z"/>
	<path class="st0" d="M1088.61,249.99c-0.12-2.63-0.17-5.13-0.35-7.62c-1.02-14.53-0.42-29.08-0.61-43.63
		c-0.02-1.39,0.28-2.09,1.9-2.05c3.88,0.11,7.76,0.08,11.63,0.01c1.44-0.03,2.21,0.34,2.05,1.92c-0.07,0.62-0.01,1.25-0.01,1.88
		c0,23.97,0,47.94,0,71.9c0,0.73-0.02,1.47,0,2.2c0.03,1.15-0.42,1.71-1.66,1.7c-4.82-0.04-9.64-0.06-14.46,0.01
		c-1.53,0.03-1.92-1-2.43-2.02c-3.97-7.84-7.94-15.68-11.93-23.51c-4.84-9.51-9.62-19.05-13.62-28.95
		c-0.15-0.36-0.33-0.71-0.53-1.13c-0.93,0.38-0.63,1.06-0.61,1.58c0.72,17.05,0.59,34.11,0.58,51.16c0,2.79-0.04,2.82-2.71,2.83
		c-3.67,0.02-7.34-0.03-11.01,0.02c-1.34,0.02-1.95-0.44-1.84-1.8c0.05-0.62,0.01-1.26,0.01-1.88c0-24.07,0-48.15,0-72.22
		c0-0.21,0-0.42,0-0.63c0-3.43-0.09-3.04,3.05-3.05c4.51-0.01,9.02,0.09,13.52-0.05c1.73-0.05,2.61,0.52,3.37,2.05
		c8.23,16.69,17.67,32.79,24.52,50.15C1087.6,249.24,1087.68,249.7,1088.61,249.99z"/>
	<path class="st0" d="M398.58,128.43c0.73,0.28,1.2,0.47,1.67,0.65c16.25,6.22,16.32,26.23,5.69,35.28
		c-4.3,3.66-9.39,5.48-14.8,6.43c-10.2,1.8-20.45,1.53-30.69,0.29c-2.31-0.28-2.34-0.36-2.34-2.67c-0.01-24.49-0.01-48.99,0-73.48
		c0-2.31,0.02-2.42,2.3-2.73c10.53-1.44,21.08-1.86,31.64-0.39c3.55,0.49,6.87,1.77,9.94,3.69c12.1,7.58,11.68,24.26-0.79,31.19
		C400.4,127.12,399.43,127.3,398.58,128.43z M380.64,158.94c1.78,0.21,4.06-0.14,6.28-0.76c5.26-1.48,8.18-5.23,8.27-10.48
		c0.09-5.38-2.56-9.03-7.8-10.8c-3.23-1.09-6.58-1.06-9.94-1.14c-1.72-0.04-2.14,0.63-2.12,2.2c0.06,5.44-0.01,10.88,0.03,16.32
		C375.39,159.29,374.57,158.92,380.64,158.94z M375.35,113.5c0,1.67,0,3.35,0,5.02c0,4.87,0,4.85,4.8,4.78
		c3.08-0.04,6.08-0.37,8.76-2.01c3.75-2.29,5-5.74,4.41-9.95c-0.55-3.88-2.99-6.04-6.62-7.1c-3.19-0.94-6.43-0.61-9.67-0.4
		c-1.32,0.08-1.71,0.9-1.69,2.14C375.38,108.48,375.35,110.99,375.35,113.5z"/>
	<path class="st0" d="M425.22,131.67c0-11.82,0-23.64,0-35.46c0-0.63,0.04-1.26-0.01-1.88c-0.09-1.22,0.25-1.87,1.66-2.04
		c11.79-1.47,23.6-2.41,35.32,0.17c14.52,3.2,23.17,12.43,25.88,26.94c1.79,9.59,1.29,19.18-1.93,28.48
		c-4.33,12.52-13.48,19.51-26.13,22.37c-7.51,1.7-15.14,2.09-22.8,1.62c-3.23-0.2-6.48-0.3-9.71-0.74c-2.51-0.34-2.27-0.6-2.27-2.75
		c0-11.19,0-22.39,0-33.58C425.22,133.76,425.22,132.71,425.22,131.67z M442.37,131.57c0,1.25,0,2.51,0,3.76
		c0,6.69-0.01,13.38,0.01,20.06c0.01,2.66,0.12,2.76,2.84,2.85c1.15,0.04,2.3,0.03,3.45,0.01c9.83-0.16,17-5.32,20.06-14.61
		c2.48-7.51,2.74-15.23,1.03-22.89c-1.7-7.64-6.05-13.23-13.93-15.47c-3.57-1.02-7.23-1.12-10.89-0.72
		c-2.53,0.27-2.56,0.35-2.56,2.87C442.36,115.48,442.37,123.52,442.37,131.57z"/>
	<path class="st0" d="M483.74,237.49c-0.14,5.51-1.01,12.31-3.53,18.85c-6.25,16.15-20.6,22.52-35.49,20.96
		c-12.42-1.3-20.96-8.06-25.76-19.32c-5.76-13.5-5.84-27.31-0.47-40.94c4-10.17,11.11-17.47,21.95-20.33
		c15.64-4.14,33.8,1.11,40.8,22.36C483.04,224.58,483.78,230.27,483.74,237.49z M432.93,236.08c0.06,5.03,0.5,9.6,1.84,14.04
		c1.13,3.75,2.81,7.21,5.79,9.89c5.24,4.72,12.9,4.5,17.86-0.48c2.66-2.67,4.23-5.97,5.22-9.53c2.36-8.42,2.54-16.93,0.46-25.42
		c-1.03-4.2-2.71-8.14-5.89-11.25c-4.97-4.86-12.45-5.02-17.61-0.37c-2.06,1.86-3.49,4.15-4.59,6.67
		C433.68,225.02,433.11,230.72,432.93,236.08z"/>
	<path class="st0" d="M689.65,235.75c0.12,7.61-0.97,14.8-3.86,21.66c-6.43,15.28-20.14,21.29-34.64,19.95
		c-12.54-1.15-21.33-7.89-26.13-19.28c-6.06-14.36-6.09-29.02,0.48-43.23c8.04-17.39,25.11-22.28,40.39-17.98
		c9.13,2.57,15.34,8.71,19.34,17.16C688.52,220.97,689.86,228.32,689.65,235.75z M639.03,236.66c0.11,2.19,0.11,4.4,0.36,6.57
		c0.23,1.97,0.64,3.92,1.13,5.84c0.91,3.58,2.37,6.92,4.86,9.73c5.64,6.37,14.97,6.11,20.24-0.56c1.77-2.24,3.02-4.77,3.83-7.5
		c2.66-9.04,2.75-18.14,0.4-27.24c-0.84-3.26-2.27-6.3-4.43-8.93c-5.5-6.69-14.97-6.66-20.42,0.09c-1.8,2.22-3.02,4.76-3.9,7.46
		C639.55,226.85,639.01,231.72,639.03,236.66z"/>
	<path class="st0" d="M642.55,90.33c13.72,0.14,23.51,6.5,29.32,18.85c3.92,8.34,4.89,17.24,4.19,26.34
		c-0.4,5.23-1.33,10.35-3.22,15.29c-5.18,13.57-16.37,21.26-30.89,21.47c-9.39,0.13-17.52-2.64-24.04-9.52
		c-4.65-4.91-7.45-10.82-9.01-17.34c-2.75-11.5-2.38-22.86,2.17-33.85c4.09-9.87,11-16.92,21.52-20
		C635.84,90.62,639.15,90.26,642.55,90.33z M658.06,130.04c0.09-1.68-0.28-4.5-0.74-7.28c-0.79-4.79-2.22-9.38-5.32-13.24
		c-5.55-6.92-15.04-6.89-20.6,0.03c-1.86,2.32-3.16,4.95-3.97,7.78c-2.64,9.27-2.68,18.58-0.06,27.86c0.83,2.94,2.18,5.66,4.16,8.03
		c5.77,6.89,15.44,6.65,20.84-0.52c1.78-2.37,2.97-5.04,3.8-7.87C657.46,140.38,657.93,135.81,658.06,130.04z"/>
	<path class="st0" d="M534.38,238.77c6.05,3.06,8.43,8.17,9.94,13.87c2.05,7.76,3.52,15.66,6.31,23.65c-3.46,0-6.56,0-9.67,0
		c-1.99,0-3.99-0.1-5.97,0.03c-1.67,0.11-2.4-0.58-2.91-2.12c-1.46-4.48-2.52-9.06-3.57-13.64c-0.54-2.34-0.97-4.71-1.64-7.02
		c-2.08-7.08-6.63-9.84-13.82-8.6c-1.22,0.21-1.18,0.96-1.18,1.8c-0.01,2.51-0.01,5.02-0.01,7.53c0,6.28-0.01,12.56,0,18.83
		c0.01,3.76-0.22,3.16-3.32,3.18c-3.98,0.02-7.97-0.04-11.95,0.03c-1.48,0.03-2.15-0.48-1.99-1.99c0.06-0.62,0.01-1.25,0.01-1.88
		c0-23.65,0-47.3,0-70.94c0-0.73,0.05-1.47-0.01-2.2c-0.1-1.21,0.53-1.72,1.61-1.85c10.73-1.26,21.47-2.24,32.24-0.39
		c1.03,0.18,2.05,0.42,3.06,0.7c9.9,2.75,15.15,8.69,16.28,18.41c1.06,9.11-3.3,17.11-11.81,21.7
		C535.62,238.07,535.27,238.28,534.38,238.77z M511.86,220.78c0,3.13,0.04,6.26-0.02,9.39c-0.03,1.43,0.42,2.15,1.96,2.05
		c1.87-0.12,3.77-0.04,5.63-0.23c7.74-0.82,11.75-5.75,11-13.43c-0.43-4.41-3.08-7.52-7.36-8.71c-2.98-0.83-6.01-0.68-9.03-0.42
		c-2.07,0.18-2.15,0.34-2.17,2.59C511.84,214.94,511.86,217.86,511.86,220.78z"/>
	<path class="st0" d="M741.04,238.96c5.62,2.75,8.02,7.68,9.49,13.16c1.6,5.95,2.98,11.97,4.5,17.94c0.51,2,1.17,3.96,1.84,6.23
		c-5.6,0-10.92-0.02-16.25,0.02c-1.37,0.01-1.73-0.85-2.09-1.89c-1.28-3.66-2.18-7.42-3.06-11.19c-0.64-2.75-1.2-5.51-1.86-8.26
		c-0.29-1.21-0.7-2.41-1.14-3.58c-1.62-4.32-4.75-6.49-9.38-6.44c-5.82,0.07-4.82-0.77-4.86,4.7c-0.07,7.95-0.01,15.9-0.02,23.86
		c-0.01,2.74-0.04,2.76-2.76,2.78c-3.88,0.02-7.75,0.02-11.63,0c-2.82-0.01-2.83-0.03-2.84-2.99c-0.01-3.35,0-6.7,0-10.05
		c0-20.51,0-41.02,0-61.53c0-0.63,0.08-1.27-0.01-1.88c-0.27-1.84,0.73-2.37,2.33-2.5c3.86-0.33,7.71-0.86,11.57-1.06
		c7.01-0.37,14.04-0.52,20.97,0.98c1.02,0.22,2.05,0.44,3.05,0.75c9.24,2.83,14.57,9.12,15.28,18.56
		c0.71,9.34-3.08,16.44-11.34,21.04c-0.46,0.25-0.92,0.5-1.37,0.76C741.37,238.42,741.33,238.53,741.04,238.96z M718.21,221.03
		c0,3.03,0.08,6.05-0.03,9.08c-0.06,1.7,0.63,2.24,2.22,2.12c1.77-0.13,3.56-0.04,5.32-0.23c7.77-0.82,11.78-5.7,11.07-13.37
		c-0.41-4.43-3.04-7.56-7.3-8.76c-3.08-0.87-6.21-0.66-9.34-0.43c-1.36,0.1-2.01,0.71-1.96,2.2
		C718.28,214.77,718.22,217.9,718.21,221.03z"/>
	<path class="st0" d="M1317.34,238.74c6.38,3.33,8.66,8.84,10.17,14.85c1.81,7.19,3.27,14.47,5.62,21.52
		c0.09,0.26-0.03,0.6-0.07,1.18c-5.35,0-10.66-0.02-15.98,0.01c-1.42,0.01-1.69-1.03-2.03-2c-1.39-4.06-2.36-8.23-3.32-12.4
		c-0.63-2.75-1.21-5.51-1.89-8.24c-0.51-2.04-1.34-3.97-2.71-5.6c-1.8-2.15-4.21-2.97-6.95-3.09c-5.43-0.23-5.43-0.25-5.43,5.07
		c0,7.95,0.01,15.9-0.01,23.85c-0.01,2.36-0.05,2.4-2.46,2.41c-4.09,0.03-8.17,0.03-12.26,0c-2.32-0.02-2.36-0.05-2.37-2.49
		c-0.02-9.31-0.01-18.62-0.01-27.93c0-15.06,0-30.12,0-45.18c0-3.05,0.02-3.02,3.02-3.41c7.07-0.91,14.18-1.34,21.31-1.17
		c4.83,0.11,9.62,0.59,14.22,2.17c8.25,2.83,13.43,8.32,14.39,17.21c1.03,9.55-2.39,16.98-10.8,21.93
		C1319.18,237.79,1318.53,238.11,1317.34,238.74z M1294.76,220.95c0,3.14,0,6.28,0,9.41c0,0.84-0.07,1.8,1.15,1.81
		c3.97,0.05,7.99,0.31,11.69-1.6c4.26-2.2,6.54-6.86,5.86-11.87c-0.7-5.11-3.4-7.97-8.56-9.1c-2.7-0.59-5.42-0.32-8.14-0.19
		c-1.58,0.08-2.09,0.86-2.03,2.43C1294.84,214.88,1294.76,217.92,1294.76,220.95z"/>
	<path class="st0" d="M1081.21,170.98c-5.61,0-10.84-0.06-16.07,0.04c-1.52,0.03-2-0.77-2.38-1.93c-1.35-4.07-2.34-8.24-3.3-12.42
		c-0.63-2.75-1.22-5.51-1.9-8.25c-0.46-1.83-1.21-3.56-2.32-5.11c-1.96-2.74-4.84-3.61-7.97-3.64c-5.83-0.05-4.74-0.63-4.78,4.44
		c-0.07,8.16-0.01,16.32-0.02,24.48c-0.01,2.34-0.04,2.37-2.44,2.38c-4.3,0.02-8.59-0.04-12.89,0.03c-1.38,0.02-1.91-0.48-1.77-1.82
		c0.05-0.52,0.01-1.05,0.01-1.57c0-23.96,0-47.92,0-71.88c0-3.19-0.01-3.31,3.03-3.67c10.11-1.2,20.25-1.76,30.38-0.28
		c3.44,0.5,6.73,1.57,9.75,3.33c6.18,3.61,9.39,9.04,9.87,16.14c0.66,9.79-3.28,17.01-12.05,21.53c-0.37,0.19-0.7,0.45-1.27,0.82
		c6.24,2.95,8.55,8.5,10.08,14.51C1077.08,155.6,1078.61,163.18,1081.21,170.98z M1042.49,115.67c0,3.14-0.01,6.28,0.01,9.42
		c0,0.8-0.19,1.83,1.09,1.84c3.76,0.02,7.55,0.38,11.13-1.25c4.71-2.15,7.28-7.07,6.42-12.43c-0.85-5.38-4.12-8.37-9.71-9.02
		c-2.31-0.27-4.6,0.03-6.9,0.03c-1.68,0-2.11,0.77-2.07,2.32C1042.55,109.6,1042.49,112.64,1042.49,115.67z"/>
	<path class="st0" d="M746.91,146.98c0,6.28-0.01,12.56,0.01,18.84c0.01,1.33-0.04,2.3-1.73,2.79c-11.23,3.26-22.59,4.67-34.14,2.14
		c-13.11-2.87-21.72-10.88-25.62-23.69c-2.96-9.75-2.95-19.65,0.03-29.39c4.26-13.95,13.93-22.31,27.92-25.73
		c8.91-2.18,17.88-1.81,26.76,0.46c1.21,0.31,2.38,0.8,3.57,1.19c0.71,0.24,0.96,0.7,0.78,1.44c-0.98,4.06-1.92,8.14-2.93,12.2
		c-0.28,1.11-1.04,0.67-1.74,0.38c-5.06-2.07-10.38-2.44-15.75-2.25c-11.32,0.41-18.87,6.53-21.53,17.55
		c-1.65,6.85-1.48,13.71,0.78,20.42c3.75,11.15,13.34,15.81,24.91,14.11c1.57-0.23,2.34-0.84,2.29-2.61
		c-0.12-4.39-0.02-8.79-0.05-13.19c-0.02-2.12-0.06-2.14-2.35-2.17c-2.2-0.03-4.41-0.07-6.6,0.01c-1.4,0.05-1.82-0.53-1.8-1.85
		c0.06-3.35,0.06-6.7,0-10.05c-0.02-1.29,0.35-1.88,1.77-1.87c7.86,0.05,15.73,0.07,23.59-0.01c1.69-0.02,1.85,0.79,1.84,2.11
		C746.89,134.21,746.91,140.59,746.91,146.98z"/>
	<path class="st0" d="M946.16,170.98c-6.44,0-12.41-0.05-18.37,0.03c-1.5,0.02-1.93-0.85-2.46-1.91c-3.52-7.01-7.07-14-10.62-20.99
		c-1.74-3.44-3.5-6.87-5.37-10.53c-2.27,2.17-3.72,4.71-5.49,6.98c-0.64,0.82-0.39,1.81-0.39,2.73c-0.02,7.01,0,14.02-0.01,21.03
		c0,2.62-0.03,2.64-2.48,2.66c-4.09,0.02-8.17,0.02-12.26,0c-2.31-0.01-2.35-0.04-2.35-2.45c-0.01-15.38-0.01-30.76-0.01-46.13
		c0-9.41-0.01-18.83,0.01-28.24c0-2.5,0.04-2.52,2.61-2.53c4.09-0.02,8.17-0.03,12.26,0.01c2.17,0.02,2.21,0.07,2.22,2.31
		c0.02,9.62,0.01,19.25,0.01,28.87c0,1,0,2,0,3.04c1.02-0.17,1.13-0.84,1.41-1.35c5.77-10.44,12.2-20.48,18.2-30.79
		c0.89-1.54,1.89-2.18,3.71-2.14c5.24,0.12,10.48,0.04,15.71,0.05c0.69,0,1.38,0.09,2.49,0.17c-0.78,1.16-1.34,2-1.92,2.83
		c-6.66,9.52-13.26,19.07-20.03,28.51c-1.37,1.92-1.32,3.3-0.21,5.29c7.29,13.06,14.44,26.19,21.63,39.3
		C944.94,168.62,945.41,169.54,946.16,170.98z"/>
	<path class="st0" d="M1028.12,223.97c0,6.8-0.01,13.6,0,20.41c0.01,5.38-0.75,10.64-2.64,15.69c-3.77,10.08-11.15,15.6-21.73,17.07
		c-5.04,0.7-10.03,0.54-14.97-0.66c-7.5-1.83-12.93-6.22-16.19-13.21c-2.8-5.99-3.76-12.37-3.76-18.92
		c-0.02-14.86-0.01-29.72-0.01-44.58c0-0.42,0.04-0.84,0-1.26c-0.13-1.36,0.46-1.83,1.81-1.81c4.4,0.06,8.8,0.09,13.2-0.01
		c1.63-0.04,2.27,0.46,2.16,2.11c-0.11,1.77-0.02,3.56-0.02,5.34c0,12.87,0,25.74,0,38.61c0,3.56,0.23,7.11,1.1,10.58
		c0.41,1.63,0.98,3.19,1.84,4.65c2.23,3.79,5.57,5.48,9.94,5.38c4.39-0.1,7.62-2.03,9.61-5.93c1.91-3.72,2.42-7.79,2.44-11.88
		c0.07-14.86,0.05-29.72,0.07-44.58c0-4.25,0-4.25,4.37-4.25c3.56,0,7.13,0.08,10.69-0.04c1.7-0.06,2.13,0.57,2.12,2.16
		C1028.09,207.22,1028.12,215.59,1028.12,223.97z"/>
	<path class="st0" d="M827.68,276.28c-5.76,0-11.3-0.01-16.83,0.01c-1.32,0-1.44-1.01-1.68-1.89c-1.29-4.74-2.56-9.48-3.83-14.23
		c-0.03-0.1-0.03-0.21-0.06-0.31c-1.18-3.7-0.17-3.37-4.3-3.39c-4.93-0.02-9.85,0.04-14.77-0.03c-1.54-0.02-2.18,0.5-2.54,2.02
		c-1.21,5.19-2.66,10.32-3.86,15.51c-0.4,1.72-1.02,2.42-2.9,2.37c-4.91-0.14-9.83-0.05-14.57-0.05c-0.62-0.81-0.36-1.41-0.19-2
		c6.94-24.97,13.88-49.93,20.83-74.9c0.74-2.66,0.77-2.66,3.59-2.67c5.55-0.01,11.11-0.01,16.66,0c2.64,0.01,2.65,0.02,3.35,2.54
		c4.4,15.91,8.8,31.82,13.2,47.74c2.42,8.76,4.86,17.52,7.28,26.28C827.29,274.18,827.43,275.09,827.68,276.28z M794.17,211.53
		c-2.27,10.68-5.05,21.21-7.6,32.09c2.93,0,5.44,0.01,7.94,0c2.45-0.01,4.9-0.05,7.62-0.08
		C799.29,232.62,796.68,222.13,794.17,211.53z"/>
	<path class="st0" d="M1203.33,170.98c-5.79,0-11.22-0.04-16.66,0.03c-1.46,0.02-1.69-0.87-1.97-1.92
		c-1.37-5.15-2.84-10.27-4.1-15.44c-0.42-1.73-1.11-2.37-2.95-2.33c-5.23,0.13-10.47,0.11-15.71,0.01
		c-1.64-0.03-2.39,0.46-2.76,2.11c-1.09,4.79-2.36,9.53-3.55,14.29c-0.81,3.24-0.81,3.25-4.01,3.25c-3.77,0-7.54,0.01-11.31-0.01
		c-0.92,0-1.87,0.17-2.97-0.34c0.96-3.53,1.9-7.05,2.87-10.56c6.04-21.74,12.08-43.47,18.12-65.21c0.11-0.4,0.33-0.79,0.37-1.2
		c0.15-1.77,1.18-2.11,2.78-2.09c5.86,0.08,11.73,0.02,17.6,0.04c2.4,0.01,2.41,0.03,3.09,2.49c3.98,14.39,7.96,28.79,11.94,43.19
		c2.81,10.17,5.62,20.34,8.42,30.51C1202.77,168.7,1202.99,169.61,1203.33,170.98z M1162.19,138.09c5.19,0,10.23,0,15.45,0
		c-2.8-10.71-5.37-21.19-7.93-31.75C1167.52,117.01,1164.71,127.46,1162.19,138.09z"/>
	<path class="st0" d="M1015.26,170.98c-5.76,0-11.2-0.04-16.63,0.03c-1.42,0.02-1.73-0.78-2.02-1.87
		c-1.25-4.75-2.54-9.48-3.82-14.22c-0.16-0.61-0.43-1.2-0.49-1.81c-0.15-1.52-1.06-1.77-2.39-1.76c-5.45,0.05-10.89,0.07-16.34-0.01
		c-1.58-0.03-2.13,0.6-2.48,2.06c-1.23,5.18-2.67,10.32-3.86,15.51c-0.38,1.66-1.08,2.16-2.73,2.13c-5.01-0.1-10.02-0.03-14.98-0.03
		c-0.37-1.47,0.26-2.52,0.56-3.59c6.71-24.26,13.45-48.51,20.18-72.76c0.83-3,0.84-3.01,3.97-3.01c5.55,0,11.1-0.01,16.65,0
		c2.45,0.01,2.47,0.03,3.14,2.44c6.29,22.75,12.58,45.5,18.87,68.25C1013.68,165.1,1014.43,167.9,1015.26,170.98z M981.64,106.3
		c-2.22,10.67-5.06,21.16-7.54,31.83c5.3,0,10.27,0,15.41,0C986.85,127.43,984.1,116.95,981.64,106.3z"/>
	<path class="st0" d="M876.17,170.98c-5.72,0-11.05-0.05-16.38,0.03c-1.54,0.03-1.93-0.77-2.24-1.99
		c-1.29-4.95-2.63-9.89-3.96-14.83c-0.76-2.82-0.77-2.83-3.77-2.83c-5.03-0.01-10.06,0.07-15.08-0.04
		c-1.69-0.04-2.34,0.59-2.71,2.18c-1.25,5.29-2.68,10.53-3.94,15.81c-0.3,1.26-0.82,1.71-2.1,1.7c-5.12-0.05-10.24-0.02-15.27-0.02
		c-0.64-0.86-0.24-1.53-0.05-2.2c6.9-24.86,13.8-49.72,20.71-74.57c0.72-2.57,0.74-2.59,3.33-2.59c5.66-0.01,11.31-0.01,16.97,0
		c2.64,0.01,2.66,0.02,3.36,2.56c4.18,15.1,8.36,30.2,12.53,45.3c2.62,9.46,5.23,18.93,7.84,28.39
		C875.66,168.76,875.86,169.68,876.17,170.98z M850.54,138.31c-2.77-10.9-5.42-21.4-7.95-32.01c-2.19,10.7-5.05,21.18-7.55,32.01
		c1.52,0,2.66,0,3.8,0C842.59,138.31,846.35,138.31,850.54,138.31z"/>
	<path class="st0" d="M1144.7,196.73c5.62,0,11.37,0.04,17.12-0.02c1.75-0.02,1.69,1.29,1.95,2.31c1.52,5.87,3.01,11.75,4.44,17.64
		c3.15,13,6.8,25.89,9.09,39.09c0.12,0.71,0.4,1.38,0.77,2.6c1.8-9.33,3.73-18.08,5.94-26.76c2.75-10.84,5.51-21.68,8.34-32.5
		c0.73-2.8,0.44-2.34,3.15-2.36c5.23-0.03,10.46-0.01,15.68-0.01c0.25,1.16-0.18,2.01-0.44,2.89c-7.48,24.6-14.97,49.2-22.46,73.8
		c-0.87,2.87-0.89,2.87-3.83,2.88c-4.82,0.01-9.64,0.01-14.47,0c-2.65-0.01-2.67-0.02-3.4-2.53c-4.47-15.36-8.93-30.71-13.4-46.07
		c-2.77-9.53-5.54-19.07-8.3-28.61C1144.69,198.39,1144.26,197.73,1144.7,196.73z"/>
	<path class="st0" d="M1219.36,236.6c0-12.04,0-24.08,0-36.12c0-0.63,0.04-1.26-0.01-1.88c-0.1-1.28,0.31-2.02,1.74-1.88
		c0.52,0.05,1.05,0.01,1.57,0.01c12.69,0,25.37,0,38.06,0c0.63,0,1.26,0.04,1.89,0c1.12-0.06,1.43,0.54,1.42,1.54
		c-0.02,3.77-0.04,7.54,0.01,11.31c0.02,1.22-0.44,1.66-1.65,1.63c-2.41-0.06-4.82-0.01-7.23-0.01c-5.45,0-10.9,0.06-16.36-0.04
		c-1.69-0.03-2.16,0.57-2.13,2.16c0.08,4.19,0.01,8.37,0.03,12.56c0.01,2.2,0.05,2.25,2.24,2.25c6.71,0.02,13.42,0.01,20.13,0.01
		c0.73,0,1.47,0.02,2.2,0c0.88-0.02,1.38,0.33,1.37,1.27c-0.01,3.87-0.01,7.75,0,11.62c0,0.91-0.44,1.34-1.33,1.34
		c-1.57,0-3.15,0.01-4.72,0.01c-5.87,0-11.74-0.02-17.61,0.01c-2.23,0.01-2.27,0.06-2.29,2.23c-0.03,4.92-0.03,9.84,0,14.76
		c0.01,2.4,0.05,2.45,2.43,2.45c7.76,0.02,15.52,0.01,23.28,0.01c0.73,0,1.47,0,2.2,0.03c0.74,0.03,1.13,0.42,1.13,1.18
		c0,3.98,0,7.96,0,11.93c0,0.93-0.49,1.3-1.37,1.3c-0.63,0-1.26,0.01-1.89,0.01c-13.32,0-26.63,0-39.95,0c-0.52,0-1.05-0.03-1.57,0
		c-1.22,0.07-1.65-0.51-1.64-1.7c0.04-3.24,0.01-6.49,0.01-9.74C1219.36,255.44,1219.36,246.02,1219.36,236.6z"/>
	<path class="st0" d="M888.45,236.45c0-11.93,0-23.87,0-35.8c0-0.63,0.05-1.26-0.01-1.88c-0.13-1.41,0.29-2.24,1.89-2.05
		c0.41,0.05,0.84,0.01,1.26,0.01c12.79,0,25.58,0,38.37,0c0.63,0,1.26,0.02,1.89,0c0.96-0.03,1.27,0.49,1.27,1.37
		c-0.01,3.98-0.01,7.96-0.01,11.93c0,0.77-0.37,1.15-1.14,1.14c-0.73-0.01-1.47,0.01-2.2,0.01c-7.23,0-14.47-0.01-21.7,0.01
		c-2.21,0.01-2.25,0.05-2.27,2.27c-0.03,4.19,0.05,8.38-0.04,12.56c-0.03,1.6,0.44,2.17,2.11,2.15c6.71-0.09,13.42-0.03,20.13-0.03
		c0.73,0,1.47,0.03,2.2,0c1.01-0.04,1.56,0.3,1.55,1.42c-0.03,3.77-0.03,7.54,0,11.31c0.01,1.32-0.73,1.53-1.81,1.52
		c-3.77-0.02-7.55-0.01-11.32-0.01c-3.67,0-7.34,0.04-11.01-0.02c-1.32-0.02-1.87,0.39-1.86,1.78c0.06,5.23,0.08,10.47-0.01,15.7
		c-0.03,1.78,0.81,2.03,2.3,2.02c6.6-0.05,13.21-0.02,19.82-0.02c1.78,0,3.57,0.04,5.35-0.01c1.21-0.03,1.66,0.48,1.64,1.68
		c-0.04,3.66-0.05,7.33,0.01,10.99c0.02,1.38-0.53,1.91-1.86,1.8c-0.52-0.04-1.05-0.01-1.57-0.01c-13.21,0-26.42,0-39.63,0
		c-0.73,0-1.47,0-2.2-0.02c-0.76-0.02-1.13-0.45-1.15-1.19c-0.02-0.73-0.02-1.47-0.02-2.2C888.45,260.74,888.45,248.6,888.45,236.45
		z"/>
	<path class="st0" d="M560.47,236.98c0-12.13,0-24.27,0-36.4c0-2.94,0.02-2.91,2.79-3.29c7.07-0.97,14.18-1.34,21.31-1.17
		c4.94,0.12,9.8,0.76,14.48,2.48c11.9,4.38,15.78,15.28,14.77,25.28c-1.53,15.28-11.96,20.93-22.41,23.05
		c-3.83,0.78-7.7,0.72-11.58,0.67c-2.19-0.03-2.24,0.01-2.25,2.23c-0.02,7.95,0,15.9-0.02,23.85c-0.01,2.58-0.04,2.61-2.57,2.62
		c-3.98,0.02-7.96,0.02-11.94,0c-2.54-0.01-2.58-0.04-2.58-2.6C560.47,261.45,560.47,249.21,560.47,236.98z M577.57,221.94
		c0,3.34,0.06,6.69-0.03,10.03c-0.04,1.46,0.5,2.14,1.92,2.19c1.99,0.08,3.96,0.14,5.94-0.19c7.96-1.33,11.88-6.29,11.16-14.24
		c-0.48-5.27-3.75-8.85-8.96-9.86c-2.71-0.52-5.4-0.35-8.12-0.12c-1.46,0.12-1.97,0.7-1.94,2.15
		C577.63,215.25,577.57,218.59,577.57,221.94z"/>
	<path class="st0" d="M1343.29,258.48c6.32,2.82,12.43,4.45,18.96,4.22c2.12-0.08,4.17-0.42,6.09-1.31
		c5.36-2.46,6.54-8.76,2.47-13.03c-1.24-1.31-2.71-2.32-4.3-3.12c-2.34-1.17-4.72-2.24-7.11-3.32c-4.12-1.87-7.97-4.15-11.38-7.16
		c-10.43-9.24-8.28-24.72,0.55-32.16c4.12-3.48,8.91-5.52,14.18-6.25c7.55-1.04,15.05-0.67,22.32,1.91c2.55,0.9,2.61,0.95,1.88,3.62
		c-1.04,3.81-1.68,7.73-3.06,11.56c-4.31-1.89-8.62-3.07-13.19-3.23c-2.43-0.08-4.82,0.06-7.1,0.96c-2.71,1.08-4.63,2.92-5.04,5.9
		c-0.41,2.98,0.94,5.26,3.3,7c2.72,2,5.79,3.34,8.86,4.68c3.94,1.72,7.79,3.6,11.18,6.29c4.06,3.22,7.12,7.15,8.13,12.31
		c2.2,11.13-1.94,20.59-11.47,25.84c-3.52,1.94-7.34,3.07-11.31,3.56c-8.45,1.04-16.73,0.36-24.7-2.75
		c-2.92-1.14-2.53-1.06-1.93-3.61C1341.53,266.52,1342.36,262.65,1343.29,258.48z"/>
	<path class="st0" d="M408.2,260.87c0.67,3.87,1.33,7.87,2.07,11.86c0.25,1.35-0.41,1.88-1.53,2.25c-2.8,0.92-5.67,1.5-8.59,1.79
		c-6.28,0.62-12.54,0.69-18.73-0.84c-12.53-3.09-20.83-10.77-24.75-23c-3.42-10.69-3.29-21.48,0.4-32.05
		c4.63-13.25,14.2-21.18,27.83-24.1c7.57-1.62,15.2-1.27,22.74,0.53c0.91,0.22,1.81,0.51,2.7,0.83c0.78,0.28,1.11,0.78,0.88,1.7
		c-0.96,3.74-1.92,7.49-2.75,11.27c-0.34,1.54-1.08,1.48-2.24,1.02c-3.76-1.48-7.7-1.88-11.71-1.8
		c-9.67,0.17-17.08,5.47-20.11,14.64c-2.43,7.35-2.5,14.82-0.33,22.24c2.8,9.56,10.14,15.03,20.23,15.32c4,0.11,7.94-0.4,11.8-1.44
		C406.69,260.92,407.27,260.64,408.2,260.87z"/>
	<path class="st0" d="M753.64,91.62c5.96,0,11.82,0.01,17.68-0.01c1,0,1.52,0.47,1.84,1.36c0.6,1.67,1.27,3.32,1.87,4.99
		c3.18,8.86,6.95,17.5,9.74,26.49c0.12,0.38,0.4,0.71,0.7,1.23c2.03-5.66,3.99-11.14,5.97-16.61c1.89-5.21,3.83-10.4,5.7-15.62
		c0.43-1.2,0.96-1.91,2.43-1.88c5.35,0.09,10.69,0.04,16.04,0.06c0.28,0,0.56,0.16,0.85,0.24c0.09,1.19-0.65,2.01-1.1,2.92
		c-6.79,13.45-13.58,26.89-20.43,40.32c-1.11,2.18-1.75,4.34-1.72,6.86c0.13,8.79,0.06,17.59,0.05,26.38c0,2.58-0.03,2.6-2.54,2.62
		c-4.09,0.02-8.18,0.02-12.27,0c-2.5-0.01-2.53-0.04-2.53-2.64c-0.01-8.37-0.08-16.75,0.04-25.12c0.04-2.8-0.53-5.29-1.76-7.81
		c-6.64-13.64-13.17-27.33-19.72-41.01C754.12,93.66,753.55,92.98,753.64,91.62z"/>
	<path class="st0" d="M1488.02,196.73c5.91,0,11.67,0.08,17.43-0.05c1.78-0.04,2.06,1.09,2.47,2.24
		c3.67,10.23,7.94,20.23,11.3,30.57c0.12,0.36,0.1,0.81,0.56,1.01c0.98-0.36,0.87-1.36,1.11-2.1c3.27-9.93,7.18-19.62,10.61-29.49
		c0.56-1.6,1.29-2.3,3.13-2.25c5.44,0.15,10.88,0.05,16.34,0.05c0.21,1.4-0.63,2.31-1.13,3.3c-6.87,13.63-13.75,27.25-20.7,40.84
		c-1.03,2.01-1.57,3.99-1.54,6.27c0.09,8.89,0.05,17.78,0.03,26.67c-0.01,2.43-0.05,2.47-2.38,2.48c-4.09,0.03-8.17,0.03-12.26,0
		c-2.47-0.01-2.5-0.04-2.5-2.68c-0.02-7.74-0.16-15.49,0.06-23.22c0.11-4.1-0.8-7.72-2.6-11.38c-6.38-12.94-12.55-25.98-18.78-38.99
		C1488.72,199.1,1488.08,198.24,1488.02,196.73z"/>
	<path class="st0" d="M544.2,91.82c3.16-0.42,6.08-0.15,8.98-0.2c2.72-0.05,5.46,0.09,8.17-0.05c1.67-0.08,2.4,0.62,2.92,2.1
		c3.68,10.45,8.12,20.63,11.45,31.21c0.06,0.2,0.18,0.37,0.28,0.58c1.2-0.51,1.06-1.75,1.37-2.67c3.25-9.83,7.08-19.45,10.55-29.2
		c0.4-1.13,0.74-2.04,2.31-2.02c5.65,0.09,11.3,0.04,17.02,0.04c0.16,1.44-0.66,2.34-1.16,3.31c-6.83,13.54-13.65,27.09-20.56,40.59
		c-1.08,2.11-1.63,4.19-1.6,6.57c0.09,8.79,0.05,17.58,0.03,26.37c0,2.49-0.04,2.51-2.6,2.52c-3.98,0.02-7.97,0.02-11.95,0
		c-2.56-0.01-2.59-0.03-2.59-2.54c-0.01-8.79-0.04-17.58,0.02-26.37c0.01-1.94-0.4-3.66-1.24-5.4
		c-6.73-13.94-13.42-27.9-20.11-41.86C545.06,93.88,544.68,92.93,544.2,91.82z"/>
	<path class="st0" d="M859.94,244.11c0,9.84,0.01,19.68-0.01,29.52c0,2.62-0.03,2.65-2.53,2.66c-4.09,0.03-8.18,0.03-12.27,0
		c-2.5-0.02-2.53-0.05-2.54-2.67c-0.02-5.65-0.01-11.3-0.01-16.96c0-13.61,0-27.22,0-40.82c0-0.73-0.06-1.47,0.01-2.2
		c0.16-1.53-0.52-1.98-2-1.96c-4.82,0.07-9.64,0.04-14.47,0.02c-2.67-0.01-2.68-0.03-2.7-2.78c-0.02-3.35,0.05-6.7-0.03-10.05
		c-0.04-1.55,0.34-2.29,2.09-2.19c2.4,0.14,4.82,0.03,7.23,0.03c14.36,0,28.72,0,43.09,0c0.73,0,1.47,0.02,2.2,0
		c0.87-0.02,1.41,0.29,1.41,1.24c0,4.19,0,8.37-0.01,12.56c0,0.99-0.67,1.17-1.48,1.17c-1.99,0-3.98,0-5.98,0.01
		c-3.35,0-6.71,0.06-10.06-0.03c-1.5-0.04-2.01,0.44-1.99,1.96c0.07,5.55,0.03,11.1,0.03,16.64
		C859.94,234.9,859.94,239.5,859.94,244.11z"/>
	<path class="st0" d="M1104.31,138.89c0-9.84,0.01-19.67,0-29.51c0-2.88-0.03-2.9-2.93-2.91c-4.72-0.02-9.43-0.07-14.15,0.03
		c-1.7,0.04-2.15-0.57-2.11-2.18c0.11-3.55,0.12-7.12,0-10.67c-0.06-1.75,0.67-2.08,2.21-2.06c5.97,0.06,11.95,0.02,17.92,0.02
		c10.79,0,21.59,0,32.38,0c0.73,0,1.47,0.02,2.2,0.01c0.91-0.01,1.32,0.43,1.32,1.34c-0.01,4.08-0.01,8.16-0.01,12.24
		c0,1.49-1.14,1.24-2.03,1.25c-4.4,0.03-8.8-0.02-13.2,0.02c-4.94,0.05-4.24-0.69-4.25,4.37c-0.03,18.73-0.01,37.46-0.01,56.19
		c0,0.63-0.07,1.27,0.01,1.88c0.24,1.75-0.64,2.1-2.18,2.08c-4.3-0.07-8.59,0-12.89-0.03c-2.22-0.02-2.27-0.06-2.28-2.26
		C1104.3,158.77,1104.31,148.83,1104.31,138.89z"/>
	<path class="st0" d="M1447.57,243.78c0-9.73,0.01-19.47,0-29.2c0-2.84-0.02-2.86-2.94-2.86c-4.72-0.01-9.44,0.02-14.15-0.01
		c-2.19-0.01-2.22-0.06-2.24-2.3c-0.03-3.35-0.02-6.7,0-10.05c0.02-2.58,0.04-2.61,2.55-2.62c6.19-0.02,12.37-0.01,18.56-0.01
		c10.8,0,21.6-0.01,32.39,0.01c2.44,0,2.48,0.04,2.49,2.34c0.03,3.56-0.05,7.12,0.03,10.68c0.03,1.48-0.43,2.02-1.97,2
		c-4.82-0.08-9.64-0.02-14.47-0.03c-3.33,0-3.09-0.12-3.09,3.04c0,19.26,0.01,38.52,0,57.78c0,4.21,0.39,3.74-3.62,3.76
		c-3.46,0.02-6.92,0-10.38,0c-3.4,0-3.14,0.22-3.14-3.31C1447.57,263.25,1447.57,253.52,1447.57,243.78z"/>
	<path class="st0" d="M1401.8,236.54c0-12.04,0-24.07,0-36.11c0-0.73,0.03-1.47,0-2.2c-0.05-1.05,0.4-1.51,1.48-1.51
		c4.82,0.02,9.64,0.02,14.46,0.01c0.89,0,1.39,0.34,1.39,1.27c0,0.73,0.01,1.47,0.01,2.2c0,24.18,0,48.35,0,72.53
		c0,0.52-0.04,1.05,0.01,1.57c0.14,1.47-0.44,2.05-1.97,2.03c-4.51-0.07-9.02-0.08-13.52,0c-1.63,0.03-1.9-0.74-1.88-2.11
		c0.04-5.44,0.02-10.88,0.02-16.33C1401.8,250.77,1401.8,243.65,1401.8,236.54z"/>
	<path class="st0" d="M500.28,131.21c0-12.24,0-24.48,0-36.73c0-2.9-0.21-2.88,2.95-2.87c4.09,0.01,8.18,0.06,12.26-0.03
		c1.64-0.03,2.34,0.51,2.15,2.16c-0.07,0.62-0.01,1.25-0.01,1.88c0,23.86,0,47.71,0,71.57c0,0.73-0.03,1.47,0,2.2
		c0.05,1-0.27,1.59-1.4,1.58c-4.82-0.02-9.64-0.02-14.46,0c-1.04,0-1.55-0.4-1.49-1.48c0.04-0.73,0-1.46,0-2.2
		C500.28,155.27,500.28,143.24,500.28,131.21z"/>
	<path class="st0" d="M1118.5,236.35c0-12.04,0-24.07,0-36.11c0-0.73,0.02-1.47,0.01-2.2c-0.02-0.91,0.39-1.32,1.32-1.32
		c4.82,0.01,9.64,0.01,14.47,0c0.9,0,1.36,0.37,1.35,1.29c-0.01,0.73,0.01,1.47,0.01,2.2c0,24.18,0,48.35,0,72.53
		c0,3.92,0.37,3.53-3.53,3.55c-3.67,0.01-7.34,0.02-11.01,0c-2.57-0.01-2.6-0.04-2.61-2.57c-0.01-11.51-0.01-23.03-0.01-34.54
		C1118.5,238.24,1118.5,237.29,1118.5,236.35z"/>
	<path class="st0" d="M456.59,323.95c-2.5,9.06-5.26,17.92-7.87,26.83c-0.86,2.95-0.87,2.94-4,2.95c-4.17,0.01-4.2,0.02-5.28-4.1
		c-2.12-8.08-4.52-16.1-6.06-24.32c-0.11-0.6-0.37-1.16-0.57-1.78c-0.83,0.65-0.45,1.47-0.49,2.17c-0.44,8.88-0.89,17.75-1.22,26.64
		c-0.06,1.66-0.61,2.22-2.2,2.08c-2.07-0.19-4.65,0.83-6.09-0.41c-1.43-1.23-0.14-3.74-0.03-5.66c0.63-11.38,1.38-22.75,2.1-34.13
		c0.04-0.63,0.18-1.25,0.17-1.87c-0.01-1.42,0.55-2.02,2.07-1.95c2.61,0.12,5.25,0.19,7.85-0.02c1.94-0.16,2.51,0.74,2.93,2.36
		c2.14,8.29,4.55,16.52,6.29,24.91c0.14,0.69,0.05,1.5,1.04,1.98c1.79-8.6,4.17-16.98,6.66-25.34c1.37-4.58,0.23-3.79,5.2-3.87
		c1.78-0.03,3.56-0.02,5.34,0c2.41,0.03,2.42,0.04,2.56,2.35c0.35,5.74,0.71,11.48,1.04,17.22c0.43,7.41,0.85,14.82,1.26,22.24
		c0.11,2.09,0.09,2.11-1.96,2.16c-1.57,0.04-3.14,0.03-4.71,0c-2.42-0.03-2.45-0.04-2.53-2.35c-0.31-8.25-0.6-16.51-0.89-24.76
		C457.15,326.14,457.2,324.99,456.59,323.95z"/>
	<path class="st0" d="M906.47,338.9c0.52-0.87,0.22-1.7,0.19-2.49c-0.33-7.73-0.31-15.47-0.28-23.21c0.01-2.81,0.03-2.81,2.96-2.82
		c1.36-0.01,2.72,0.04,4.08-0.01c1.1-0.04,1.51,0.47,1.46,1.5c-0.02,0.42,0,0.84,0,1.25c0,12.86,0,25.72,0,38.58
		c0,2.91,0.15,2.69-2.75,2.69c-1.26,0-2.55-0.18-3.76,0.04c-2.57,0.46-3.69-0.85-4.71-2.97c-4.12-8.57-8.83-16.85-12.57-25.6
		c-0.14-0.34-0.2-0.85-0.88-0.81c-0.49,0.82-0.18,1.73-0.17,2.61c0.05,8.15,0.12,16.31,0.14,24.46c0.01,2.21-0.05,2.32-2.24,2.24
		c-2.05-0.07-4.64,0.95-6.02-0.49c-1.23-1.29-0.38-3.79-0.38-5.75c-0.04-11.4-0.02-22.79-0.02-34.19c0-0.73,0.02-1.46,0.01-2.2
		c-0.01-0.89,0.38-1.35,1.3-1.35c2.72,0.01,5.45,0.02,8.17-0.01c1.06-0.01,1.41,0.72,1.79,1.48c4.06,8.13,8.65,16,12.24,24.37
		C905.41,337.13,905.58,338.19,906.47,338.9z"/>
	<path class="st0" d="M715.02,324.63c-0.77,0.96-0.58,1.6-0.56,2.19c0.37,8.36,0.15,16.73,0.2,25.09c0.01,2.43-0.03,2.5-2.34,2.47
		c-1.97-0.02-4.44,0.81-5.79-0.35c-1.43-1.23-0.48-3.75-0.49-5.69c-0.06-11.61-0.03-23.21-0.03-34.82c0-3.26-0.29-3.21,2.97-3.12
		c2.49,0.07,5.36-0.89,7.37,0.41c1.89,1.22,2.43,4.04,3.53,6.16c3.76,7.2,7.7,14.31,10.91,22.34c0.55-1.06,0.4-1.74,0.37-2.37
		c-0.37-8.05-0.35-16.1-0.31-24.15c0.01-2.37,0.06-2.46,2.43-2.38c1.95,0.07,4.41-0.91,5.71,0.49c1.13,1.23,0.35,3.6,0.35,5.46
		c0.03,11.82,0.02,23.63,0.01,35.45c0,2.55-0.03,2.59-2.53,2.58c-2.3,0-4.9,0.56-6.8-0.32c-1.97-0.91-2.38-3.77-3.42-5.8
		C722.65,340.58,718.56,332.95,715.02,324.63z"/>
	<path class="st0" d="M1171.67,324.64c0,5.93,0,11.87,0,17.8c0,3.35-0.07,6.7,0.03,10.05c0.04,1.55-0.53,2.02-2.01,1.93
		c-1.67-0.1-3.35-0.06-5.03-0.02c-1.04,0.03-1.59-0.33-1.5-1.44c0.04-0.52,0-1.05,0-1.57c0-12.67,0-25.33,0-38
		c0-0.63,0-1.26,0.02-1.88c0.02-0.76,0.4-1.13,1.17-1.13c2.73,0,5.45,0.02,8.18-0.01c1.07-0.01,1.42,0.74,1.79,1.49
		c4.05,8.15,8.66,16.01,12.25,24.4c0.44,1.03,0.68,2.18,1.76,3.27c0-0.99,0.06-1.75-0.01-2.49c-0.76-8.04-0.39-16.11-0.46-24.17
		c-0.02-2.44,0.04-2.51,2.35-2.48c1.97,0.03,4.43-0.83,5.79,0.38c1.42,1.26,0.48,3.76,0.49,5.71c0.06,11.72,0.03,23.45,0.02,35.17
		c0,2.71-0.03,2.75-2.73,2.73c-2.3-0.02-4.95,0.77-6.8-0.32c-1.86-1.1-2.37-3.83-3.39-5.87
		C1179.65,340.36,1175.38,332.68,1171.67,324.64z"/>
	<path class="st0" d="M515.51,324.5c0,8.84,0,17.53,0,26.21c0,0.73-0.03,1.47,0,2.2c0.04,1.03-0.34,1.54-1.45,1.51
		c-1.89-0.05-3.77-0.05-5.66,0c-1.13,0.03-1.46-0.52-1.4-1.53c0.03-0.63,0-1.26,0-1.88c0-12.35,0-24.7,0-37.06
		c0-0.73,0.02-1.47,0.01-2.2c-0.02-0.88,0.33-1.36,1.28-1.35c2.62,0.02,5.24,0.05,7.86-0.02c1.2-0.03,1.64,0.72,2.06,1.58
		c4.13,8.34,8.87,16.38,12.48,24.98c0.35,0.83,0.46,1.83,1.36,2.4c0.37-0.79,0.16-1.6,0.09-2.38c-0.75-8.04-0.38-16.11-0.45-24.17
		c-0.02-2.35,0.04-2.37,2.45-2.4c1.57-0.02,3.15,0.02,4.72-0.01c1.06-0.02,1.55,0.43,1.49,1.49c-0.03,0.63,0,1.26,0,1.88
		c0,12.46,0,24.91,0,37.37c0,0.63-0.02,1.26,0,1.88c0.03,0.88-0.32,1.38-1.26,1.38c-2.52-0.01-5.03-0.02-7.55,0
		c-1.26,0.01-1.48-1.02-1.87-1.82c-4.36-8.69-9.08-17.21-12.97-26.14C516.43,325.79,516.31,325.05,515.51,324.5z"/>
	<path class="st0" d="M923.05,332.56c0-6.48,0.04-12.96-0.03-19.44c-0.02-1.55,0.44-2.22,2.05-2.38c5.95-0.58,11.9-1.06,17.81,0.12
		c8.6,1.72,13.68,6.88,15.07,15.47c0.74,4.56,0.6,9.17-0.68,13.67c-2.51,8.84-8.84,13.04-17.55,14.31
		c-4.69,0.69-9.38,0.63-14.08,0.09c-2.55-0.29-2.59-0.26-2.59-2.73C923.03,345.31,923.05,338.94,923.05,332.56z M932.57,332.44
		c0,4.08,0,8.15,0,12.23c0,0.1,0.01,0.21,0,0.31c-0.24,1.67,0.61,2.14,2.16,2.23c6.25,0.37,11.02-2.95,12.7-8.95
		c0.86-3.07,0.93-6.2,0.67-9.33c-0.62-7.53-5.49-11.71-13.03-11.26c-2.36,0.14-2.46,0.2-2.48,2.54
		C932.55,324.29,932.57,328.36,932.57,332.44z"/>
	<path class="st0" d="M858.41,354.4c-2.86,0-5.36-0.07-7.86,0.03c-1.39,0.05-2.14-0.43-2.47-1.77c-0.59-2.43-1.25-4.85-1.87-7.28
		c-0.28-1.11-0.46-2.26-0.79-3.35c-1.07-3.54-2.81-4.72-6.4-4.76c-1.59-0.02-2.24,0.39-2.19,2.1c0.11,3.86,0.04,7.73,0.03,11.6
		c0,0.63-0.03,1.26,0,1.88c0.05,0.98-0.22,1.58-1.37,1.56c-2.2-0.04-4.4-0.03-6.6,0c-1.05,0.01-1.55-0.4-1.48-1.48
		c0.03-0.52,0-1.04,0-1.57c0-12.44,0-24.88,0-37.32c0-3.06,0-3.2,2.96-3.44c5.52-0.44,11.08-0.89,16.58,0.21
		c5.01,1,8.82,3.56,9.79,8.86c0.89,4.84,0.26,9.76-5.74,13.42c-0.26,0.16-0.49,0.37-1,0.76c3.82,2.38,4.86,6.22,5.75,10.19
		C856.53,347.39,857.46,350.7,858.41,354.4z M836.87,323.87c0,0.52-0.05,1.05,0.01,1.56c0.19,1.51-0.8,3.54,0.51,4.42
		c1.54,1.05,3.63,0.24,5.47-0.07c0.1-0.02,0.2-0.05,0.3-0.08c2.84-0.94,4.44-3.37,4.31-6.51c-0.13-3.03-1.77-4.9-4.88-5.62
		c-1.24-0.29-2.48-0.18-3.73-0.16c-1.4,0.02-2.1,0.58-2,2.09C836.95,320.95,836.87,322.41,836.87,323.87z"/>
	<path class="st0" d="M635.45,333.87c3.31,1.99,4.59,5.11,5.42,8.5c0.97,3.93,1.94,7.85,2.97,12.03c-2.89,0-5.6-0.04-8.31,0.02
		c-1.22,0.03-1.67-0.66-1.92-1.64c-0.68-2.63-1.32-5.26-2.01-7.89c-0.4-1.51-0.76-3.05-1.34-4.49c-0.66-1.64-1.94-2.68-3.74-3.01
		c-3.62-0.68-4.17-0.24-4.17,3.41c0,3.87-0.05,7.74,0.02,11.6c0.03,1.41-0.27,2.14-1.89,2.03c-1.98-0.12-3.98-0.07-5.96-0.02
		c-1.22,0.03-1.73-0.47-1.62-1.67c0.03-0.31,0-0.63,0-0.94c0-12.75-0.01-25.5,0.01-38.26c0-2.49,0.02-2.65,2.51-2.88
		c5.73-0.53,11.49-0.98,17.19,0.18c5.02,1.03,8.73,3.68,9.66,8.99c0.97,5.52-0.61,10.14-5.66,13.18
		C636.27,333.23,635.95,333.5,635.45,333.87z M622.34,323.71c0,0.73,0,1.46,0,2.19c0,4.73,0.21,4.9,4.9,4.08
		c0.31-0.05,0.62-0.08,0.92-0.16c3.07-0.8,4.85-3.2,4.77-6.46c-0.07-3.16-1.79-5.14-5.03-5.82c-1.24-0.26-2.49-0.15-3.74-0.11
		c-1.25,0.04-1.92,0.54-1.85,1.91C622.41,320.79,622.35,322.25,622.34,323.71z"/>
	<path class="st0" d="M1092.79,333.91c2.79,1.61,4.22,4.01,4.97,6.81c1.19,4.43,2.26,8.89,3.42,13.49
		c-2.86,0.39-5.66,0.09-8.45,0.19c-1.27,0.04-1.55-0.86-1.8-1.78c-0.64-2.42-1.27-4.85-1.88-7.27c-0.28-1.11-0.46-2.26-0.79-3.35
		c-1.1-3.61-2.98-4.85-6.74-4.73c-1.33,0.04-1.85,0.45-1.83,1.81c0.06,4.18,0.02,8.36,0.02,12.54c0,2.92,0.18,2.79-2.66,2.78
		c-1.78,0-3.56-0.03-5.34,0c-1.07,0.02-1.53-0.45-1.45-1.51c0.04-0.52,0-1.04,0-1.57c0-12.44-0.01-24.88,0.01-37.32
		c0-3.19-0.5-3.04,2.99-3.39c5.51-0.55,11.07-0.91,16.58,0.2c5.01,1.01,8.81,3.58,9.77,8.88c0.89,4.91,0.2,9.77-5.77,13.4
		C1093.57,333.26,1093.34,333.48,1092.79,333.91z M1079.71,323.74C1079.71,323.74,1079.71,323.74,1079.71,323.74
		c-0.01,0.73-0.01,1.46-0.01,2.19c0,4.69,0.22,4.87,4.94,4.04c0.31-0.05,0.62-0.08,0.92-0.16c3.06-0.81,4.83-3.23,4.74-6.49
		c-0.09-3.15-1.81-5.13-5.06-5.79c-1.35-0.27-2.7-0.17-4.05-0.07c-0.97,0.08-1.51,0.54-1.49,1.59
		C1079.74,320.62,1079.71,322.18,1079.71,323.74z"/>
	<path class="st0" d="M964.25,327.1c0-5.45-0.02-9.95,0.01-14.44c0.02-2.18,0.06-2.2,2.28-2.23c1.78-0.03,3.57,0.1,5.34-0.03
		c1.9-0.15,1.96,0.93,1.95,2.33c-0.03,6.9-0.02,13.8-0.01,20.7c0,1.88,0.03,3.76,0.1,5.64c0.06,1.8,0.54,3.51,1.4,5.09
		c1.16,2.12,3.05,3.17,5.42,3.12c2.34-0.05,4.23-1.06,5.35-3.25c0.73-1.42,1.05-2.93,1.2-4.51c0.48-5.22,0.17-10.45,0.24-15.67
		c0.05-3.87,0.04-7.74,0-11.6c-0.01-1.28,0.36-1.91,1.78-1.85c1.99,0.09,3.98,0.07,5.97,0.01c1.32-0.05,1.89,0.4,1.85,1.79
		c-0.07,2.82-0.02,5.64-0.02,8.47c0,5.33,0.02,10.66-0.01,16c-0.02,3.26-0.52,6.46-1.79,9.49c-1.81,4.33-4.96,7.13-9.56,8.31
		c-3.21,0.82-6.46,0.88-9.65,0.27c-6.74-1.29-10.82-6.36-11.59-14.15C964.01,335.77,964.36,330.95,964.25,327.1z"/>
	<path class="st0" d="M387.24,310.42c-3.87,5.55-7.34,10.51-10.8,15.47c-0.36,0.51-0.66,1.08-1.09,1.53
		c-1.21,1.26-1.1,2.44-0.25,3.93c2.85,4.99,5.56,10.06,8.32,15.11c1.35,2.46,2.68,4.93,4.3,7.92c-3.66,0.04-6.93,0.04-10.2,0
		c-1.24-0.01-1.39-1.14-1.79-1.92c-2.38-4.65-4.71-9.33-7.09-13.98c-0.37-0.73-0.55-1.6-1.44-2.15c-2.04,1.88-3.29,3.97-3.06,6.98
		c0.25,3.12,0.02,6.27,0.07,9.41c0.02,1.16-0.34,1.74-1.6,1.7c-2.09-0.05-4.19-0.06-6.28,0c-1.26,0.04-1.68-0.51-1.59-1.67
		c0.04-0.52,0-1.05,0-1.57c0-12.44,0-24.89,0-37.33c0-0.52,0.04-1.05-0.01-1.57c-0.1-1.28,0.31-1.93,1.74-1.87
		c1.99,0.09,3.98,0.09,5.97,0c1.43-0.06,1.77,0.61,1.76,1.88c-0.04,4.5-0.02,8.99-0.02,13.49c0,0.99,0,1.97,0.52,3.03
		c2.87-4.81,5.94-9.51,8.52-14.46c1.62-3.1,3.61-4.46,7.11-3.97C382.38,310.65,384.49,310.42,387.24,310.42z"/>
	<path class="st0" d="M1157.76,354.4c-3.11,0-5.92-0.03-8.73,0.01c-1.04,0.01-1.44-0.46-1.68-1.41c-0.64-2.53-1.46-5.02-2.04-7.56
		c-0.32-1.4-0.99-1.85-2.38-1.79c-2.51,0.1-5.03,0.1-7.53,0c-1.34-0.05-1.85,0.57-2.13,1.72c-0.62,2.53-1.33,5.05-1.92,7.59
		c-0.22,0.95-0.58,1.47-1.63,1.45c-2.71-0.04-5.42-0.01-8.44-0.01c1.02-3.7,1.96-7.1,2.9-10.5c2.83-10.26,5.65-20.53,8.49-30.79
		c0.74-2.67,0.76-2.67,3.57-2.68c2.2-0.01,4.4-0.01,6.59,0c2.83,0.01,2.84,0.01,3.57,2.64c3.12,11.27,6.23,22.54,9.34,33.81
		C1156.39,349.27,1157.03,351.68,1157.76,354.4z M1135.14,336.35c2.12,0.46,4.1,0.2,6.05,0.22c2.31,0.02,2.35-0.06,1.85-2.26
		c-1.05-4.57-2.13-9.14-3.22-13.7c-0.12-0.49-0.22-1.03-0.78-1.34C1137.74,324.93,1136.46,330.56,1135.14,336.35z"/>
	<path class="st0" d="M700.34,354.03c-0.42,0.19-0.51,0.27-0.61,0.27c-2.93,0.02-5.85,0.03-8.78,0.05
		c-1.94-2.34-1.86-5.39-2.76-8.09c-0.84-2.52-0.75-2.55-3.35-2.57c-2.2-0.01-4.4,0.09-6.59-0.03c-1.44-0.08-2.08,0.48-2.39,1.81
		c-0.56,2.44-1.29,4.84-1.82,7.29c-0.27,1.24-0.82,1.72-2.1,1.68c-2.5-0.08-5.01-0.02-7.66-0.02c-0.29-0.94,0.06-1.72,0.26-2.45
		c3.58-12.98,7.18-25.96,10.78-38.93c0.72-2.58,0.74-2.58,3.31-2.59c2.51-0.01,5.03,0.1,7.53-0.04c1.69-0.1,2.35,0.55,2.77,2.15
		c2.11,7.97,4.34,15.91,6.53,23.86C697.08,342.22,698.69,348.05,700.34,354.03z M677.78,336.35c2.11,0.46,4.09,0.2,6.04,0.22
		c2.32,0.02,2.36-0.06,1.86-2.25c-1.05-4.58-2.13-9.15-3.24-13.71c-0.11-0.45-0.07-1.18-0.93-1.22
		C680.62,325.09,678.95,330.58,677.78,336.35z"/>
	<path class="st0" d="M795.34,332.66c0-6.59-0.01-13.19,0.01-19.78c0.01-2.4,0.04-2.44,2.41-2.44c6.71-0.02,13.42-0.02,20.13,0
		c2.17,0.01,2.17,0.05,2.25,2.3c0.18,5.71,0.18,5.71-5.47,5.71c-2.52,0-5.03-0.03-7.55,0.01c-2.14,0.04-2.16,0.07-2.2,2.35
		c-0.03,1.57-0.04,3.14,0,4.71c0.05,2.25,0.08,2.3,2.28,2.33c3.35,0.04,6.71,0.07,10.06-0.01c1.45-0.03,2.14,0.35,2.02,1.92
		c-0.11,1.35-0.1,2.73,0,4.08c0.1,1.44-0.57,1.76-1.86,1.74c-3.46-0.06-6.92,0.06-10.38-0.05c-1.68-0.05-2.24,0.55-2.16,2.18
		c0.1,2.19,0.09,4.4,0.01,6.59c-0.06,1.59,0.5,2.25,2.16,2.22c3.77-0.08,7.55-0.04,11.32-0.01c2.59,0.02,2.59,0.04,2.63,2.55
		c0.09,5.35,0.09,5.35-5.15,5.35c-6.08,0-12.16,0.02-18.24-0.01c-2.2-0.01-2.24-0.06-2.25-2.27
		C795.32,345.64,795.34,339.15,795.34,332.66z"/>
	<path class="st0" d="M580.81,332.21c0-6.49-0.02-12.98,0.01-19.47c0.01-2.25,0.05-2.3,2.22-2.31c6.81-0.03,13.63,0.04,20.44-0.04
		c1.68-0.02,2.24,0.56,2.14,2.16c-0.09,1.35-0.07,2.72-0.01,4.08c0.06,1.33-0.47,1.86-1.83,1.83c-3.56-0.06-7.13-0.04-10.69-0.01
		c-2.67,0.02-2.68,0.04-2.71,2.8c-0.01,1.26-0.01,2.51,0,3.77c0.03,2.8,0.04,2.82,2.73,2.84c3.14,0.02,6.29,0.06,9.43-0.02
		c1.53-0.04,2.2,0.3,2.23,2.05c0.11,5.68,0.19,5.67-5.47,5.67c-2.41,0-4.82,0.03-7.23-0.01c-1.19-0.02-1.71,0.45-1.7,1.65
		c0.04,2.51,0.05,5.02,0,7.54c-0.03,1.42,0.72,1.77,1.96,1.76c3.88-0.03,7.76-0.03,11.64,0c2.44,0.02,2.45,0.05,2.5,2.37
		c0.02,1.15-0.09,2.31,0.03,3.45c0.18,1.7-0.57,2.13-2.16,2.11c-6.29-0.07-12.58-0.03-18.87-0.03c-0.84,0-1.68-0.07-2.51,0.01
		c-1.6,0.15-2.2-0.41-2.17-2.1c0.1-5.34,0.04-10.68,0.04-16.01C580.81,334.93,580.81,333.57,580.81,332.21z"/>
	<path class="st0" d="M759.9,332.78c0-6.59,0.03-13.18-0.02-19.77c-0.01-1.34,0.24-2.15,1.78-2.3c5.84-0.57,11.7-1.15,17.49,0.18
		c6.18,1.42,9.81,5.48,10.27,11.51c0.49,6.47-1.93,11.93-8.04,14.59c-3.03,1.32-6.2,1.78-9.49,1.72c-2.5-0.05-2.52,0.02-2.53,2.58
		c-0.02,3.76-0.05,7.53,0.02,11.29c0.02,1.34-0.42,1.89-1.8,1.83c-1.99-0.08-3.98-0.09-5.97,0c-1.44,0.07-1.73-0.61-1.72-1.87
		C759.92,345.96,759.9,339.37,759.9,332.78z M772.36,331.2c3.16-0.02,5.81-1.03,7.05-4.2c1.02-2.61,0.86-5.24-1.1-7.36
		c-2.14-2.32-4.99-2.36-7.89-1.9c-0.76,0.12-1.05,0.55-1.05,1.28c0,3.66,0,7.33,0,10.99c0,0.76,0.36,1.17,1.12,1.19
		C771.11,331.21,771.73,331.2,772.36,331.2z"/>
	<path class="st0" d="M474.92,332.47c0-6.59-0.02-13.18,0.01-19.77c0.01-2.22,0.05-2.27,2.23-2.28c6.7-0.02,13.41-0.02,20.11,0
		c2.23,0.01,2.23,0.05,2.29,2.24c0.18,5.78,0.18,5.78-5.69,5.78c-2.51,0-5.03,0.08-7.54-0.02c-1.56-0.06-2.01,0.56-1.93,2.02
		c0.09,1.88,0.08,3.77,0.01,5.65c-0.05,1.38,0.52,1.82,1.86,1.79c3.14-0.06,6.28-0.03,9.43-0.02c3.13,0.01,3.13,0.01,3.15,2.97
		c0.03,4.72,0.03,4.72-4.83,4.72c-2.51,0-5.03,0.06-7.54-0.02c-1.4-0.04-2.15,0.27-2.07,1.88c0.11,2.3,0.11,4.6,0,6.9
		c-0.07,1.6,0.45,2.24,2.11,2.2c3.66-0.09,7.33-0.04,11-0.02c2.85,0.01,2.85,0.03,2.88,2.95c0.04,4.95,0.04,4.95-4.9,4.95
		c-5.76,0-11.52,0.02-17.28-0.01c-3.7-0.01-3.26,0.41-3.27-3.41C474.9,344.81,474.92,338.64,474.92,332.47z"/>
	<path class="st0" d="M391.87,332.24c0-6.38,0.01-12.76,0-19.14c0-2.96,0.04-2.69,2.79-2.68c6.39,0.01,12.78-0.01,19.17,0.01
		c2.66,0.01,2.67,0.03,2.69,2.78c0.01,1.15-0.06,2.3,0.01,3.45c0.08,1.38-0.52,1.82-1.85,1.8c-3.56-0.06-7.12-0.03-10.68-0.01
		c-2.58,0.02-2.59,0.04-2.62,2.53c-0.02,1.46-0.02,2.93,0,4.39c0.04,2.43,0.05,2.46,2.38,2.48c3.35,0.03,6.7,0.06,10.05-0.01
		c1.47-0.03,1.97,0.45,2.02,1.97c0.19,5.75,0.25,5.75-5.41,5.75c-2.51,0-5.03,0.03-7.54-0.01c-1.06-0.02-1.51,0.4-1.5,1.47
		c0.03,2.61,0.05,5.23-0.01,7.84c-0.03,1.26,0.56,1.64,1.7,1.63c3.56-0.02,7.12,0,10.68,0c0.73,0,1.47,0.01,2.2,0.01
		c0.87,0,1.39,0.36,1.38,1.29c0,0.1,0,0.21,0.01,0.31c0.6,6.29,0.6,6.29-5.75,6.29c-5.87,0-11.73-0.05-17.6,0.03
		c-1.62,0.02-2.16-0.45-2.14-2.11C391.92,345.63,391.87,338.94,391.87,332.24z"/>
	<path class="st0" d="M1027.68,319.56c-2.99-1.18-5.7-1.93-8.58-1.74c-0.94,0.06-1.86,0.12-2.75,0.53
		c-3.23,1.46-3.74,4.77-1.02,7.01c1.47,1.2,3.22,1.93,4.95,2.69c2.3,1.01,4.5,2.2,6.5,3.75c6.69,5.18,6.12,16.98-2.22,21.11
		c-6.49,3.21-13.17,2.69-19.83,0.42c-1.16-0.4-1.34-1.13-1.05-2.2c0.35-1.31,0.63-2.64,0.95-3.96c0.55-2.33,0.56-2.37,2.7-1.57
		c2.18,0.81,4.4,1.34,6.73,1.4c0.84,0.02,1.68,0.01,2.51-0.08c2.74-0.28,4.47-1.55,4.99-3.59c0.52-2.04-0.38-3.98-2.76-5.46
		c-1.41-0.88-2.94-1.58-4.47-2.27c-2.21-0.99-4.26-2.21-6.13-3.75c-6.75-5.55-5.25-16.36,2.68-20.14c5.6-2.67,11.34-2.45,17.12-0.56
		c1.41,0.46,1.66,1.32,1.25,2.65C1028.69,315.6,1028.26,317.42,1027.68,319.56z"/>
	<path class="st0" d="M1045.04,336.24c0-4.71,0-9.42,0-14.13c-0.01-3.76,0.29-3.44-3.31-3.45c-1.89-0.01-3.77-0.04-5.66,0.01
		c-1.18,0.03-1.61-0.4-1.7-1.63c-0.49-6.62-0.52-6.61,6.14-6.61c7.44,0,14.89-0.01,22.33,0.01c2.42,0.01,2.43,0.04,2.47,2.38
		c0.03,1.46-0.04,2.93,0.01,4.4c0.03,1.09-0.46,1.48-1.51,1.46c-1.99-0.04-3.98-0.01-5.97,0c-3.28,0.01-3.29,0.01-3.29,3.18
		c-0.01,9.52,0,19.05,0,28.57c0,3.98,0,3.99-3.97,3.99c-1.26,0-2.52-0.07-3.77,0.01c-1.4,0.09-1.79-0.52-1.78-1.85
		C1045.07,347.13,1045.04,341.68,1045.04,336.24z"/>
	<path class="st0" d="M555.99,336.72c0-5.02,0.01-10.05,0-15.07c-0.01-2.96-0.02-2.97-2.86-2.99c-2.1-0.02-4.19-0.04-6.29,0
		c-1.09,0.02-1.5-0.42-1.47-1.49c0.04-1.67,0.07-3.35-0.01-5.02c-0.07-1.41,0.57-1.77,1.87-1.75c5.45,0.05,10.9,0.02,16.35,0.02
		c3.56,0,7.13,0.05,10.69-0.02c1.46-0.03,2.15,0.4,2.01,1.95c-0.18,1.96,0.79,4.4-0.4,5.77c-1.25,1.45-3.75,0.47-5.7,0.51
		c-4.66,0.1-4.66,0.03-4.66,4.64c0,9.52,0.01,19.05-0.01,28.57c0,2.53-0.03,2.54-2.59,2.57c-1.68,0.02-3.36-0.09-5.03,0.03
		c-1.58,0.11-1.95-0.56-1.93-2.01C556.03,347.18,555.99,341.95,555.99,336.72z"/>
	<path class="st0" d="M658.68,332.72c0,6.38,0.01,12.77-0.01,19.15c-0.01,2.49-0.04,2.5-2.62,2.53c-1.26,0.01-2.52,0.01-3.77,0
		c-3.37-0.03-3.1,0.34-3.1-2.97c-0.01-8.27,0-16.53,0-24.8c0-4.71,0.06-9.42-0.03-14.13c-0.03-1.64,0.52-2.27,2.16-2.1
		c2.36,0.25,5.38-1.02,6.93,0.58c1.4,1.44,0.39,4.39,0.42,6.67C658.72,322.67,658.68,327.7,658.68,332.72z"/>
	<path class="st0" d="M1116.04,332.35c0,6.59,0.01,13.18-0.01,19.78c-0.01,2.21-0.05,2.23-2.24,2.27c-1.89,0.03-3.77-0.05-5.66,0.02
		c-1.25,0.05-1.69-0.5-1.59-1.67c0.04-0.52,0-1.05,0-1.57c0-12.45,0-24.9,0-37.36c0-0.52,0.04-1.05-0.01-1.57
		c-0.11-1.3,0.35-1.92,1.76-1.85c1.88,0.09,3.78,0.12,5.66-0.01c1.7-0.11,2.13,0.59,2.11,2.18c-0.07,5.86-0.03,11.72-0.03,17.58
		C1116.04,330.88,1116.04,331.62,1116.04,332.35z"/>
	<path class="st0" d="M873.21,332.4c0,6.49,0.01,12.98-0.01,19.46c-0.01,2.5-0.04,2.5-2.61,2.53c-1.15,0.01-2.31,0.01-3.46,0
		c-3.83-0.04-3.41,0.45-3.42-3.27c-0.02-8.06-0.01-16.11-0.01-24.17c0-4.81,0.05-9.63-0.03-14.44c-0.03-1.64,0.51-2.28,2.16-2.1
		c2.36,0.25,5.38-1.02,6.93,0.57c1.4,1.44,0.4,4.39,0.42,6.66C873.25,322.56,873.21,327.48,873.21,332.4z"/>
	<path class="st0" d="M178.72,219.97c-1.2,0.65-2.2,0.08-3.22-0.51c-14.01-8.15-28.01-16.3-42.03-24.42
		c-1.56-0.9-2.4-2.09-2.75-3.91c-1.51-7.94-10.65-12.08-15.93-11.65c-0.31,0.03-0.62,0.06-0.94,0.11c-5.02,0.74-7.3,4.71-5.39,9.4
		c2.32,5.71,9.57,10.17,15.77,9.06c3.83-0.69,6.81,0.23,10.01,2.16c13.8,8.29,27.72,16.37,41.6,24.53c0.81,0.48,1.59,0.99,2.39,1.49
		c-0.07,6.79-0.15,13.59-0.23,20.38c-1.2-0.11-2.14-0.83-3.14-1.38c-37.6-20.91-75.19-41.83-112.81-62.69
		c-1.97-1.09-2.83-2.33-2.82-4.67c0.08-22.71,0.05-45.42,0.06-68.13c0-4.59,0.24-4.77,4.19-2.53
		c23.22,13.16,46.42,26.35,69.63,39.52c15.02,8.52,30.05,17.01,45.08,25.52c0.53,3.75,0.41,7.52,0.42,11.28
		C178.65,195.68,178.69,207.83,178.72,219.97z"/>
	<path class="st0" d="M179,272.09c-1.35,1.29-2.52,0.33-3.67-0.34c-6.24-3.62-12.47-7.26-18.7-10.89
		c-7.23-4.21-14.43-8.46-21.71-12.59c-2.42-1.37-4.07-3.04-4.6-5.91c-0.62-3.39-2.95-5.71-5.7-7.56c-2.93-1.96-6.15-3.1-9.74-2.97
		c-5.97,0.23-8.76,4.92-6.11,10.27c2.92,5.89,10.49,9.65,16.86,8.19c2.3-0.53,4.24-0.24,6.27,0.96
		c14.05,8.29,28.16,16.46,42.19,24.76c1.81,1.07,4.11,1.71,4.94,4.04c-0.7,4.56-0.45,9.14-0.3,13.72c0.04,1.14,0.06,2.29,0.09,3.43
		c-1.34,0.94-2.37,0.01-3.44-0.59c-14.45-8.04-28.89-16.09-43.33-24.14c-23.13-12.89-46.23-25.82-69.4-38.63
		c-2.42-1.34-3.43-2.82-3.4-5.63c0.14-12.76,0.05-25.53,0.06-38.29c0-3.09,0.83-3.52,3.51-2.02c17.63,9.84,35.28,19.65,52.92,29.48
		c21.02,11.72,42.03,23.45,63.04,35.18c-0.03,5.17-0.09,10.33-0.08,15.5C178.67,269.42,178.88,270.76,179,272.09z"/>
	<path class="st0" d="M234.76,270.83c-0.92-0.08-2.37,0.33-3.01-1.12c-0.62-1.38-0.07-2.69,0.79-3.78c2.02-2.58,4.78-3.96,7.97-4.38
		c1.3-0.17,2.43,0.54,3.19,1.63c0.77,1.11,0.39,2.11-0.32,3.14C241.34,269.23,238.75,271.05,234.76,270.83z"/>
	<path class="st0" d="M235.1,219.98c-1.25-0.12-2.56,0.26-3.25-0.99c-0.75-1.36-0.23-2.66,0.56-3.82c2.04-3,5.12-4.25,8.55-4.54
		c2.29-0.2,3.45,2.57,2.1,4.93C241.29,218.66,238.45,219.95,235.1,219.98z"/>
	<path class="st0" d="M121.49,294.64c-3.35-0.52-6.56-2.05-8.41-5.6c-1.18-2.26-0.03-4.14,2.56-4.39c3.46-0.34,8.58,2.89,9.79,6.17
		C126.19,292.91,124.61,294.65,121.49,294.64z"/>
	<path class="st0" d="M116.42,184.3c3.57,0.41,6.64,1.97,8.59,5.25c1.35,2.27,0.43,4.13-2.1,4.54c-3.57,0.58-8.92-2.62-10.08-6.02
		C112.07,185.83,113.51,184.24,116.42,184.3z"/>
	<path class="st0" d="M121.65,246.49c-3.47-0.36-6.22-2.04-8.25-4.91c-0.75-1.05-1.22-2.26-0.51-3.5c0.7-1.23,2.03-1.52,3.27-1.44
		c3.5,0.24,6.4,1.7,8.43,4.65c0.77,1.12,1.48,2.31,0.66,3.74C124.45,246.43,123.07,246.43,121.65,246.49z"/>
</g>
</svg>
