<?xml version="1.0" encoding="utf-8"?>
<!-- Generator: Adobe Illustrator 25.0.1, SVG Export Plug-In . SVG Version: 6.00 Build 0)  -->
<svg version="1.1" id="Layer_1" xmlns="http://www.w3.org/2000/svg" xmlns:xlink="http://www.w3.org/1999/xlink" x="0px" y="0px"
	 viewBox="0 0 1551.22 329.47" style="enable-background:new 0 0 1551.22 329.47;" xml:space="preserve">
<style type="text/css">
	.st0{fill:#FFFFFF;}
</style>
<g>
	<path class="st0" d="M423.24,181.63c-2.25-1.37-4.29-2.75-6.45-3.92c-19.23-10.48-40.83-1.32-48.82,16.69
		c-8.21,18.52,2.6,39.7,22.87,45.3c7.61,2.1,15.26,2.05,22.8-0.19c11.67-3.46,17.89-12.04,21.12-23.23
		c2.24-7.77,2.77-15.76,2.78-23.79c0.01-63.01,0-126.02,0-189.04c0-1.01,0-2.01,0-3.37c0.96,0,1.79,0,2.61,0
		c29.36,0,58.73,0.02,88.09-0.04c1.98,0,2.67,0.41,2.66,2.55c-0.06,64.88-0.01,129.76-0.07,194.64
		c-0.02,21.13-3.21,41.69-12.17,61.05c-12.87,27.79-34.07,46.86-61.91,58.99c-20.73,9.03-42.36,12.76-64.87,11.17
		c-41.92-2.96-75.57-21.22-100.39-55.19c-11.52-15.77-17.87-33.65-19.94-53.08c-3.42-32.09,3.96-61.24,24.14-86.65
		c18.62-23.47,42-40.02,71.45-47.24c13.65-3.34,27.49-4.23,41.48-3.24c4.81,0.34,9.62,0.66,14.6,1.01
		C423.24,116.62,423.24,149.02,423.24,181.63z"/>
	<path class="st0" d="M107.57,181.75c0-32.69,0-65.04,0-97.69c5.63-0.42,11.19-0.95,16.76-1.23c40.5-1.99,75.01,11.19,103.02,40.77
		c16.43,17.35,27.42,37.59,30.96,61.3c6.32,42.38-5.02,79.01-36.82,108.57c-19.66,18.28-42.79,29.51-69.29,33.48
		c-40.27,6.03-76.92-2.85-108.92-28.32c-20.92-16.65-33.42-38.81-39.4-64.73c-2.8-12.11-3.87-24.4-3.87-36.82
		C0.03,132.27,0.01,67.47,0.01,2.66c0-0.76,0-1.52,0-2.58c1.06,0,1.89,0,2.72,0c29.21,0,58.42,0.03,87.63-0.06
		c2.39-0.01,2.97,0.62,2.96,2.97c-0.07,63.02-0.06,126.03-0.05,189.05c0,8.97,0.54,17.87,3.4,26.49c6,18.09,19.96,23.75,36.11,22.43
		c10.81-0.88,19.64-5.8,26.13-14.48c7.51-10.05,8.31-21.25,3.64-32.51c-4.7-11.34-13.6-18.06-25.82-20.21
		c-9.73-1.71-18.23,1.54-26.39,6.33C109.5,180.59,108.66,181.1,107.57,181.75z"/>
	<path class="st0" d="M632.88,328.78c-1.03,0-1.87,0-2.7,0c-13.86,0-27.72,0.12-41.58-0.03c-18.16-0.2-32.21-7.79-41.29-23.8
		c-3.41-6.01-4.88-12.6-4.88-19.47c-0.03-54.43-0.02-108.86-0.02-163.29c0-0.61,0.05-1.22,0.09-1.98c0.52-0.08,0.95-0.22,1.39-0.21
		c15.65,0.02,31.32-0.41,46.95,0.2c22.33,0.87,42.07,19.23,42.06,43.16c-0.02,54.27-0.01,108.55-0.01,162.82
		C632.88,326.95,632.88,327.71,632.88,328.78z"/>
	<path class="st0" d="M543.2,93.3c2.38-7.03,4.58-13.98,7.06-20.82c5.06-13.94,10.17-27.86,15.51-41.69
		c1.44-3.74,3.75-7.15,5.71-10.68c5.53-9.95,14.12-15.69,25.24-17.24c9.22-1.29,18.54-2.4,27.83-2.63
		c17.2-0.42,34.42-0.14,51.64-0.15c0.38,0,0.76,0.06,1.51,0.12c-0.28,0.83-0.48,1.53-0.76,2.2c-8.38,20.32-16.86,40.6-25.09,60.98
		c-2.56,6.33-5.65,12.17-9.87,17.59c-4.72,6.06-10.85,9.26-18.11,10.45c-5.89,0.97-11.88,1.81-17.84,1.88
		c-20.33,0.23-40.66,0.1-60.99,0.1C544.51,93.41,543.98,93.35,543.2,93.3z"/>
	<path class="st0" d="M700.75,300.5c7.77,2.86,15.26,3.99,22.41-0.73c4.35-2.87,6.58-7.25,8.16-12.65
		c-1.39,0.63-2.32,1.08-3.27,1.48c-10.38,4.37-20.36,4.29-29.35-3.24c-6.31-5.29-9.46-12.43-9.58-20.54
		c-0.25-16.98-0.09-33.96-0.09-50.94c0-0.3,0.08-0.6,0.14-1.03c10.28,0,20.51,0,31.05,0c0,1.02,0,1.93,0,2.83
		c0,13.24,0,26.48,0.01,39.73c0,2.61,0.49,5.02,3.18,6.23c4.04,1.82,7.94-0.4,8.56-4.88c0.15-1.07,0.1-2.18,0.1-3.27
		c0.01-12.62,0-25.24,0-37.86c0-0.85,0-1.7,0-2.74c10.39,0,20.62,0,31.07,0c0.05,0.62,0.15,1.29,0.15,1.95
		c0,23.29,0.08,46.58-0.03,69.87c-0.09,19.62-11.53,35.79-29.72,42.13c-10.35,3.61-20.78,3.42-31.12-0.13
		c-0.67-0.23-1.58-1.16-1.59-1.77C700.71,316.94,700.75,308.92,700.75,300.5z"/>
	<path class="st0" d="M920.76,259.71c0,4.29,0,8.78,0,13.28c0,3.82-0.06,7.64,0.03,11.45c0.04,1.41-0.46,2.04-1.78,2.47
		c-20.27,6.65-41.89-5.77-46.25-26.64c-5.81-27.84,15.42-46.06,34.97-48.6c10.74-1.4,20.93,0.08,30.5,5.25
		c10.2,5.51,15.46,14.49,17.05,25.6c0.87,6.13,0.89,12.4,1.02,18.61c0.16,7.4,0.27,14.81-0.02,22.2
		c-0.73,18.17-8.18,32.51-24.97,40.7c-11.11,5.41-22.8,5.57-34.52,1.71c-0.58-0.19-1.39-0.94-1.39-1.43
		c-0.09-8.47-0.06-16.94-0.06-25.71c0.89,0.34,1.51,0.54,2.11,0.81c4.38,1.93,8.99,2.6,13.69,1.94c7.1-0.99,12.05-5.96,13.4-13.36
		c0.42-2.28,0.56-4.64,0.58-6.96c0.06-9.58,0.05-19.16,0.01-28.74c-0.01-1.7-0.06-3.44-0.42-5.1c-1.24-5.7-5.33-8.55-11.1-7.89
		c-5.63,0.64-10.17,5.6-10.09,11.03c0.07,5.35,4.17,9.74,9.71,10.03C915.65,260.47,918.11,259.96,920.76,259.71z"/>
	<path class="st0" d="M1016.65,212.83c10.54,0,20.7,0,31.05,0c0.05,0.88,0.12,1.63,0.12,2.39c0.01,22.5,0.04,45.01-0.01,67.51
		c-0.03,10.67-2.26,20.73-9.11,29.26c-13.48,16.8-33.93,20.88-51.9,14.69c-0.61-0.21-1.4-1.08-1.41-1.65
		c-0.09-8.09-0.06-16.18-0.06-24.51c7.4,2.75,14.65,3.86,21.71-0.36c4.12-2.46,7.11-6.98,8.66-12.96c-1.06,0.45-1.92,0.82-2.78,1.19
		c-9.77,4.32-19.35,4.61-28.29-1.9c-6.81-4.96-10.66-12-10.85-20.31c-0.41-17.43-0.21-34.88-0.24-52.32c0-0.3,0.11-0.59,0.2-1.03
		c10.19,0,20.35,0,30.76,0c0.04,0.94,0.12,1.84,0.12,2.74c0.01,12.62,0,25.23,0.02,37.85c0,1.24,0.07,2.49,0.24,3.72
		c0.46,3.22,2.3,4.89,5.41,5.02c3.3,0.14,5.29-1.36,5.95-4.64c0.28-1.36,0.4-2.77,0.4-4.16c0.03-12.62,0.02-25.23,0.02-37.85
		C1016.65,214.68,1016.65,213.84,1016.65,212.83z"/>
	<path class="st0" d="M1111.85,262.24c0,10.19,0,20.2,0,30.62c-2.68,0.18-5.37,0.58-8.04,0.51c-14.73-0.38-27.04-5.89-35.59-18.14
		c-13.73-19.67-8.03-51.05,21.32-61.59c11.62-4.17,23.53-3.49,34.92,1.16c13.69,5.58,21.65,16.3,22.77,30.79
		c1.17,15.17,0.68,30.47,0.92,45.88c-10.65,0-20.88,0-31.45,0c0-0.79,0-1.62,0-2.44c0-11.14,0.02-22.27-0.02-33.41
		c-0.01-1.7-0.16-3.43-0.52-5.09c-1.03-4.79-4.68-8.37-9.07-8.91c-5.34-0.66-9.68,1.11-12.62,5.73c-2.4,3.77-2.05,8.89,0.7,12.5
		c2.99,3.94,8.56,5.31,13.98,3.42C1110,262.97,1110.85,262.62,1111.85,262.24z"/>
	<path class="st0" d="M1550.98,291.51c-10.18,0-20.42,0-30.93,0c0-0.91,0-1.74,0-2.57c0-11.14,0.02-22.27-0.02-33.41
		c-0.01-1.7-0.16-3.43-0.52-5.09c-1.03-4.68-4.61-8.14-8.9-8.83c-5.2-0.83-10.22,1.44-12.82,5.8c-2.28,3.82-1.95,8.95,0.81,12.51
		c2.98,3.84,8.48,5.2,13.8,3.4c0.87-0.3,1.72-0.67,2.81-1.09c0.04,0.84,0.11,1.57,0.11,2.3c0.01,8.33-0.09,16.67,0.06,25
		c0.05,2.49-0.44,3.46-3.18,3.65c-16.68,1.14-30.68-4.07-40.51-17.86c-13.68-19.18-8.65-51,21.14-61.58
		c14.27-5.07,28.65-3.67,41.67,4.6c9.96,6.33,15.53,15.99,16.16,27.58c0.82,14.98,0.44,30.03,0.56,45.06
		C1551.22,291.11,1551.1,291.24,1550.98,291.51z"/>
	<path class="st0" d="M1303.67,262.21c0,9.93,0.02,19.58-0.06,29.23c0,0.5-0.76,1.38-1.26,1.45c-23.48,3.31-46.51-11.59-49.1-35.79
		c-2.93-27.38,18.93-43.52,36.17-45.45c9.85-1.1,19.47-0.44,28.51,3.85c12.55,5.96,19.34,16.2,21.14,29.82
		c0.42,3.15,0.48,6.36,0.49,9.54c0.05,12.14,0.02,24.28,0.02,36.59c-10.36,0-20.6,0-31.19,0c0-0.79,0-1.62,0-2.44
		c0-10.98,0.03-21.96-0.03-32.94c-0.01-2.08-0.14-4.23-0.65-6.23c-1.25-4.93-5.3-8.15-10.03-8.32c-5.81-0.2-10.56,2.75-12.35,7.7
		c-1.65,4.53-0.21,9.73,3.63,12.58c3.69,2.74,7.77,2.82,11.99,1.44C1301.76,262.99,1302.54,262.65,1303.67,262.21z"/>
	<path class="st0" d="M863.49,251.25c0.32,23.03-18.11,38.55-34.78,41.26c-15.48,2.51-29.04-1.14-40.54-12.17
		c-16.19-15.53-15.72-42.69,1.43-57.95c17.64-15.7,51.78-17.08,68.32,9.41C861.79,238.02,863.55,244.86,863.49,251.25z
		 M807.99,251.85c-0.18,6.53,5.01,12.02,11.53,12.19c6.67,0.17,12.18-5.03,12.36-11.66c0.17-6.52-4.96-11.77-11.71-11.97
		C813.47,240.21,808.17,245.18,807.99,251.85z"/>
	<path class="st0" d="M1408.83,183.74c10.52,0,20.7,0,31.13,0c0,9.98,0,19.9,0,30.08c4.73,0,9.21,0,13.89,0c0,10.54,0,20.83,0,31.36
		c-4.53,0-9.01,0-13.43,0c-2.01,9.85,2.54,15.2,14.01,16.64c0,10.22,0,20.47,0,30.94c-5.73,0.54-11.3-0.2-16.74-1.9
		c-16.94-5.31-27-17.95-28.44-35.7c-0.25-3.1-0.39-6.21-0.4-9.32c-0.03-19.7-0.02-39.4-0.02-59.09
		C1408.83,185.83,1408.83,184.91,1408.83,183.74z"/>
	<path class="st0" d="M1165.95,183.77c10.34,0,20.51,0,30.89,0c0,35.81,0,71.64,0,107.67c-10.19,0-20.47,0-30.89,0
		C1165.95,255.61,1165.95,219.83,1165.95,183.77z"/>
	<path class="st0" d="M1402.99,243.49c-0.72-0.28-1.29-0.5-1.86-0.71c-6.28-2.32-11.09,0.53-11.96,7.17c-0.26,2-0.35,4.03-0.36,6.05
		c-0.03,11.75-0.02,23.51-0.02,35.45c-10.34,0-20.56,0-30.94,0c-0.05-0.35-0.16-0.72-0.16-1.08c0.05-15.34-0.15-30.68,0.22-46.01
		c0.45-18.8,14.79-32.77,33.55-33.12c3.79-0.07,7.58,0.26,11.53,0.42C1402.99,222.43,1402.99,232.82,1402.99,243.49z"/>
	<path class="st0" d="M1251.96,291.64c-1.78,0-3.23,0-4.68,0c-9.11,0-18.21-0.05-27.32,0.04c-1.72,0.02-2.59-0.41-3.23-2.12
		c-5.9-15.86-11.92-31.67-17.81-47.54c-0.39-1.06-0.32-2.62,0.18-3.62c3.99-7.99,8.12-15.92,12.28-23.82
		c0.4-0.77,1.33-1.79,2.02-1.8c10.26-0.12,20.53-0.08,31.18-0.08c-0.48,1.01-0.8,1.76-1.18,2.48c-4.28,8.11-8.52,16.24-12.88,24.3
		c-0.79,1.46-0.84,2.61-0.16,4.11c6.91,15.2,13.76,30.43,20.62,45.65C1251.29,289.93,1251.55,290.64,1251.96,291.64z"/>
	<path class="st0" d="M926.96,168.2c-0.05-0.7-0.11-1.15-0.11-1.61c0-24.07,0.01-48.14,0.03-72.21c0-0.93-0.01-1.88,0.1-2.8
		c0.4-3.26,1.22-4.22,4.48-4.47c8.77-0.67,17.55-1.45,26.3,0.25c11.71,2.28,19.62,8.95,22.51,20.63c3.4,13.73,3.12,27.53-1.59,40.93
		c-4.31,12.28-13.44,18.81-26.33,20.26C943.92,170.11,935.58,169.01,926.96,168.2z M940.23,96.3c-0.04,0.88-0.11,1.64-0.11,2.4
		c-0.01,19.31,0,38.61,0,57.92c0,0.39-0.14,0.86,0.04,1.15c0.34,0.56,0.84,1.45,1.29,1.46c3.34,0.07,6.75,0.38,10-0.18
		c7.79-1.32,11.7-6.95,13.77-13.95c3.27-11.09,3.48-22.41,1.31-33.7c-1.11-5.78-3.89-10.74-9.66-13.19
		C951.58,95.98,946.01,95.9,940.23,96.3z"/>
	<path class="st0" d="M722.34,122.8c1.62,0.94,2.99,1.65,4.27,2.49c6.71,4.39,9.4,10.77,8.85,18.58c-0.2,2.85-0.55,5.77-1.4,8.48
		c-3.18,10.2-10.66,15.69-20.91,16.61c-7.38,0.66-14.89-0.16-22.34-0.43c-0.5-0.02-1.02-0.98-1.43-1.56
		c-0.15-0.21-0.03-0.61-0.03-0.92c0-25.14,0.03-50.28-0.04-75.42c-0.01-2.3,0.64-3.55,3.01-3.56c7.45-0.05,14.95-0.63,22.34,0.01
		c9.14,0.78,15.56,7.05,16.3,15.01C731.74,110.31,730.2,117.78,722.34,122.8z M702.69,129.26c0,10.29,0,20.37,0,30.49
		c1.23,0.12,2.31,0.25,3.4,0.34c6.61,0.53,11.57-2.39,13.37-8.78c1.07-3.8,1.33-7.97,1.18-11.95c-0.15-3.84-1.93-7.28-5.78-8.94
		C710.95,128.73,706.84,128.85,702.69,129.26z M702.67,95.96c0,8.06,0,15.79,0,23.82c4.58-0.72,9.99,1.67,12.76-3.95
		c2.65-5.39,3.41-11.14-0.13-16.4C712.29,94.95,707.44,95.58,702.67,95.96z"/>
	<path class="st0" d="M1346.06,161.49c-0.38,2.87,0.66,5.93-2.73,7.5c-3.43,1.59-6.82,2.15-10.19-0.09c-0.9-0.6-1.73-1.31-2.57-1.97
		c-12.01,8.05-28.43,2.58-32.7-11.17c-3.2-10.31-2.89-20.72,1.11-30.86c4.67-11.83,15.76-19.01,29.94-15.22
		c0.21,0.06,0.45,0.01,0.61,0.01c0-7.43,0.05-14.82-0.02-22.21c-0.03-3.1,0.63-4.57,3.62-5.35c2.37-0.62,4.89-0.74,7.36-0.89
		c0.48-0.03,1.38,0.77,1.47,1.28c0.39,2.37,0.77,4.77,0.77,7.17c-0.01,21.88-0.1,43.76-0.17,65.64c0,0.62-0.06,1.25,0,1.87
		C1342.77,159.37,1342.92,161.6,1346.06,161.49z M1329.73,138.19c0.01,0,0.03,0,0.04,0c0-5.45-0.05-10.9,0.03-16.35
		c0.02-1.49-0.51-2.23-1.85-2.77c-6.04-2.45-12.23-0.16-15.12,6.25c-4.17,9.27-4.15,18.92-0.78,28.4c2.11,5.92,7.81,8.07,13.77,5.88
		c3.04-1.12,3.84-2.07,3.88-5.29C1329.79,148.94,1329.73,143.57,1329.73,138.19z"/>
	<path class="st0" d="M1042.36,141.72c7.65,9.17,15.23,18.23,22.77,27.32c1.73,2.08,1.48,2.83-1.02,3.85
		c-5.66,2.32-10.8,0.86-15.03-4.08c-5.01-5.84-10.12-11.6-15.18-17.4c-0.41-0.47-0.75-0.99-1.12-1.48
		c-0.22,0.09-0.44,0.17-0.66,0.26c0,2.28,0,4.56,0,6.84c0,2.8-0.07,5.61,0,8.41c0.05,2.08-0.91,3.36-2.9,3.51
		c-2.87,0.22-5.75,0.21-8.63,0.21c-1.53,0-1.57-1.13-1.55-2.31c0.12-7.16,0.32-14.32,0.3-21.49c-0.06-19.23-0.21-38.46-0.33-57.69
		c-0.02-3.29,1-4.95,4.14-5.81c1.93-0.53,3.98-0.73,5.98-0.83c0.62-0.03,1.68,0.67,1.85,1.24c0.54,1.76,1,3.62,1.03,5.45
		c0.11,7.7,0.05,15.4,0.05,22.83c3.49-0.97,6.84-2.06,10.27-2.79c1.79-0.38,3.74-0.36,5.57-0.13c6.62,0.85,10.41,6.47,9.68,13.83
		c-0.77,7.79-4.83,13.46-11.11,17.76C1045.07,140.19,1043.56,141,1042.36,141.72z M1032.12,136.51c4.39-2.39,7.9-5.04,10.07-9.08
		c1.31-2.43,2.19-5.07,1.17-7.82c-0.32-0.86-1.3-1.87-2.15-2.07c-2.77-0.64-8.97,4.27-9.07,7.15
		C1032.03,128.49,1032.12,132.28,1032.12,136.51z"/>
	<path class="st0" d="M1252.14,113.66c5.3-3.56,11.15-5.12,17.61-4.83c9.4,0.42,15.13,5.41,15.54,14.84
		c0.49,11.35,0.39,22.72,0.54,34.08c0.04,2.65,0,5.3,0.13,7.94c0.07,1.39-0.34,2.41-1.71,2.58c-3.22,0.39-6.46,0.67-9.71,0.84
		c-0.4,0.02-1.13-0.83-1.24-1.37c-0.38-1.81-0.74-3.67-0.76-5.51c-0.12-11.6-0.07-23.2-0.23-34.8c-0.07-4.74-2.02-7.45-5.53-8.14
		c-4.28-0.85-8.03,0.4-11.09,3.47c-0.55,0.55-0.72,1.67-0.72,2.53c-0.05,11.84-0.03,23.67-0.03,35.51c0,0.93,0.03,1.88-0.08,2.8
		c-0.48,3.98-2.09,5.43-6.11,5.54c-2.1,0.05-4.2,0.05-6.31,0.05c-0.22,0-0.44-0.11-0.9-0.23c0-0.87-0.01-1.78,0-2.69
		c0.1-13.7,0.26-27.41,0.25-41.11c0-3.08-0.66-6.16-0.93-9.25c-0.06-0.66,0.05-1.68,0.47-1.97
		C1245.33,111.14,1248.25,109.75,1252.14,113.66z"/>
	<path class="st0" d="M1400.46,109.69c0.06,1,0.13,1.53,0.12,2.06c-0.07,14.4-0.2,28.8-0.19,43.2c0,2.69,0.43,5.42,0.95,8.07
		c0.26,1.31,0.03,2.05-1.07,2.64c-0.48,0.26-0.94,0.55-1.42,0.81c-3.89,2.11-5.54,1.92-8.8-1.08c-3.93,2.73-8.29,4.51-13.12,4.88
		c-4.33,0.33-8.56-0.26-12.47-2.22c-5.25-2.64-7.23-7.51-7.45-12.89c-0.3-7.13,0.01-14.29,0.16-21.44
		c0.14-6.83,1.09-13.67-0.82-20.42c-0.13-0.46,0.27-1.31,0.69-1.63c1.04-0.8,2.2-1.46,3.37-2.07c4.72-2.49,8.55-0.98,9.32,4.3
		c0.79,5.42,0.9,10.97,0.89,16.46c-0.01,6.84-0.75,13.68-0.63,20.51c0.15,8.3,4.74,10.7,12.88,8.26c3.73-1.12,4.41-2.44,4.41-6.28
		c0-11.83-0.01-23.67,0.02-35.5c0-1.31,0.17-2.64,0.47-3.91c0.45-1.84,1.74-2.98,3.62-3.16
		C1394.33,110.02,1397.28,109.89,1400.46,109.69z"/>
	<path class="st0" d="M846.18,166.9c-4.58,3.72-10.13,3.88-15.64,2.96c-8.77-1.46-14.05-9.38-12.78-18.5
		c1.25-9,6.75-14.84,16.64-17.16c3.52-0.83,7.2-0.98,11.39-1.51c-0.19-3.29-0.19-6.99-0.68-10.62c-0.31-2.27-2.13-3.24-4.9-2.69
		c-3.71,0.74-7.42,1.67-10.99,2.9c-5.29,1.83-6.8,0.99-7.57-4.58c-0.26-1.89,0.28-3.14,1.91-4.06c7.88-4.49,16.29-5.93,25.19-4.33
		c4.68,0.84,7.6,3.85,8.82,8.32c0.67,2.45,1.02,5.05,1.04,7.59c0.06,10.04-0.07,20.09-0.12,30.13c0,0.86,0.01,1.71,0.06,2.57
		c0.1,2,0.84,3.48,3.08,3.56c0.98,6.5-4.21,10.55-10.47,8.19C849.51,169.04,848.04,167.95,846.18,166.9z M845.5,140.99
		c-3.35,0.82-6.39,1.36-9.28,2.35c-2.74,0.94-4.51,3.18-4.94,6.02c-0.55,3.59-1.25,7.67,2.24,10.09c3.28,2.28,6.91,0.95,10.02-1.05
		c0.91-0.58,1.83-1.9,1.88-2.92C845.62,150.93,845.5,146.36,845.5,140.99z"/>
	<path class="st0" d="M769.47,132.7c-0.13-2.99-0.14-6.17-0.46-9.32c-0.33-3.29-1.95-4.61-5.24-3.98
		c-3.79,0.73-7.56,1.74-11.21,2.99c-4.89,1.67-6.15,1.07-7.25-4.03c-0.47-2.17,0.04-3.72,2.08-4.87c7.54-4.25,15.64-5.66,24.1-4.39
		c6.42,0.97,10.18,5.37,10.45,12.42c0.33,8.94,0.15,17.9,0.16,26.85c0.01,2.96-0.12,5.92-0.06,8.88c0.05,2.13,0.56,4.07,3.47,4.3
		c-0.63,2.4,0.88,5.13-1.95,6.85c-3.04,1.84-6.22,2.48-9.55,0.99c-1.4-0.63-2.64-1.62-4.07-2.52c-5.09,3.86-11.01,4.04-17.01,2.69
		c-6.74-1.52-11.22-7.24-11.54-14.12c-0.51-11.07,5.13-18.48,16.54-21.22C761.51,133.36,765.27,133.23,769.47,132.7z M768.97,141.59
		c-0.68,0-1.38-0.04-2.07,0.01c-0.85,0.06-1.7,0.18-2.54,0.32c-7.83,1.28-11.27,6.39-9.47,14.04c0.66,2.81,2.3,4.29,4.93,4.47
		c3.6,0.24,8.35-1.72,9.05-3.74c0.08-0.22,0.09-0.46,0.09-0.69C768.97,151.28,768.97,146.56,768.97,141.59z"/>
	<path class="st0" d="M1119.92,132.88c-0.18-3.47-0.18-7.03-0.6-10.55c-0.28-2.34-2.22-3.51-4.99-2.95
		c-3.79,0.76-7.56,1.72-11.21,2.97c-5.01,1.72-7.01,0.53-7.47-4.8c-0.15-1.73,0.32-2.95,1.9-3.87c7.63-4.45,15.87-5.91,24.5-4.54
		c6.6,1.05,10.29,5.7,10.44,13.19c0.22,10.82,0.05,21.64,0.04,32.46c0,1.01-0.05,2.03,0.02,3.04c0.14,1.94,0.79,3.51,3.05,3.65
		c0.98,6.5-4.09,10.54-10.34,8.2c-1.71-0.64-3.23-1.77-4.92-2.73c-5.63,3.96-11.97,4.22-18.36,2.16
		c-6.17-1.98-9.37-6.69-10.05-13.05c-1.42-13.44,7.52-20.17,18.56-22.34C1113.43,133.14,1116.49,133.17,1119.92,132.88z
		 M1119.46,141.48c-1.64,0.16-3.34,0.23-5,0.5c-7.67,1.27-11.28,7.14-8.97,14.53c0.83,2.66,2.54,3.98,5.36,3.9
		c3.34-0.09,6.48-0.78,8.52-3.82c0.08-0.12,0.09-0.3,0.09-0.45C1119.46,151.35,1119.46,146.56,1119.46,141.48z"/>
	<path class="st0" d="M1431.68,108.07c3.95,1.03,8.04,1.68,11.8,3.18c4.27,1.71,4.76,5.69,1.53,8.99c-0.32,0.33-1.1,0.43-1.61,0.33
		c-1.9-0.36-3.78-0.85-5.67-1.29c-1.44-0.33-2.86-0.78-4.31-0.96c-3.42-0.43-6.47,1.04-7.53,3.48c-1.17,2.69-0.21,5.58,2.85,7.9
		c3.91,2.96,7.95,5.74,11.85,8.71c3.71,2.84,6.83,6.2,7.88,10.94c1.74,7.91-1.84,15.32-9.31,18.66c-7.99,3.57-16.23,3.49-24.24,0.12
		c-4.91-2.06-5.54-3.9-2.41-9.39c1.03-1.8,2.76-0.84,4.19-0.45c2.61,0.71,5.16,1.79,7.82,2.2c2.01,0.31,4.23,0.13,6.21-0.39
		c4.07-1.07,5.69-6.36,3.11-10.18c-1.01-1.5-2.57-2.67-4.02-3.82c-3.96-3.15-8.11-6.06-11.95-9.33c-4.66-3.97-7.19-9.02-6.01-15.3
		c1.34-7.13,6.38-10.54,12.97-12.07c2.18-0.51,4.46-0.59,6.69-0.87C1431.56,108.38,1431.62,108.22,1431.68,108.07z"/>
	<path class="st0" d="M1461.23,120.12c-1.82-0.39-3.45-0.6-4.98-1.12c-0.83-0.28-2.12-1.12-2.09-1.65c0.07-1.34,0.38-3.15,1.3-3.87
		c1.46-1.14,3.45-1.73,5.31-2.19c1.19-0.3,1.75-0.61,1.78-1.9c0.07-2.49,0.45-4.97,0.4-7.45c-0.06-2.63,1.15-4.44,3.34-5.38
		c2.53-1.08,5.26-1.69,8.24-2.62c0,5.7,0,10.86,0,16.31c5.29,0,10.38,0,15.52,0c0,1.21,0.07,2.14-0.01,3.05
		c-0.44,5.04-1.64,6.19-6.68,6.29c-2.86,0.05-5.72,0.01-9.13,0.01c0,6.03-0.11,11.63,0.03,17.22c0.16,6.13,0.26,12.29,0.92,18.38
		c0.57,5.33,2.98,6.56,8.11,4.95c1.18-0.37,2.28-0.99,3.46-1.36c1.46-0.45,2.54-0.19,2.79,1.65c0.69,5.18-0.38,7.36-5.4,8.72
		c-3.32,0.9-6.89,1.38-10.31,1.23c-4.91-0.21-8.7-3.01-10.18-7.67c-1.32-4.16-2.13-8.62-2.3-12.97c-0.34-8.94-0.11-17.9-0.11-26.85
		C1461.23,122.03,1461.23,121.18,1461.23,120.12z"/>
	<path class="st0" d="M1162.26,110.26c5.19,0,10.23,0,15.93,0c-0.59,2.63-0.78,5.14-1.79,7.26c-0.5,1.05-2.46,1.85-3.82,1.96
		c-3.38,0.28-6.81,0.09-10.41,0.09c-0.07,1.59-0.16,2.73-0.16,3.87c-0.02,8.64-0.11,17.28,0.04,25.92c0.05,2.68,0.56,5.42,1.27,8.01
		c0.83,3.05,2.64,3.98,5.69,3.29c1.58-0.36,3.07-1.08,4.64-1.52c0.97-0.28,2-0.35,2.89-0.5c0.25,0.52,0.35,0.64,0.37,0.78
		c0.91,7.65-1.6,10.28-10.5,11.07c-9.88,0.87-16.12-4.01-16.91-13.93c-0.59-7.35-0.44-14.76-0.55-22.15
		c-0.07-4.74-0.01-9.48-0.01-14.27c-1.8-0.38-3.51-0.59-5.1-1.15c-0.87-0.31-2.2-1.27-2.15-1.83c0.11-1.33,0.58-3.05,1.54-3.79
		c1.41-1.09,3.33-1.68,5.12-2.06c1.27-0.27,1.71-0.72,1.76-1.92c0.11-2.49,0.39-4.97,0.42-7.46c0.04-2.78,1.43-4.66,3.83-5.6
		c2.47-0.97,5.12-1.51,7.92-2.3C1162.26,99.71,1162.26,104.82,1162.26,110.26z"/>
	<path class="st0" d="M811.78,161.79c0.74,6.47-1.63,7.67-7.24,8.53c-4.17,0.64-8.57-3.21-9.11-7.59c-0.1-0.85-0.11-1.71-0.11-2.56
		c-0.07-24.53-0.1-49.06-0.22-73.59c-0.01-2.37,1.07-3.85,3.1-4.31c2.7-0.62,5.5-0.8,8.27-1.02c0.38-0.03,1.09,0.75,1.2,1.26
		c0.3,1.36,0.48,2.77,0.48,4.16c0.06,23.13,0.09,46.26,0.12,69.39C808.29,159.99,808.84,160.9,811.78,161.79z"/>
	<path class="st0" d="M1085.75,161.88c0.29,5.87-1.89,8.35-7.51,8.52c-4.62,0.14-8.76-3.95-8.76-8.74
		c-0.01-20.78,0.01-41.57-0.02-62.35c-0.01-4.12-0.05-8.26-0.31-12.37c-0.15-2.33,0.76-4.03,2.78-4.54c2.82-0.72,5.79-0.93,8.71-1.1
		c0.42-0.02,1.25,1.41,1.32,2.22c0.29,3.17,0.46,6.37,0.47,9.55c0.04,21.17,0.01,42.35,0.02,63.52
		C1082.46,160.18,1082.84,160.76,1085.75,161.88z"/>
	<path class="st0" d="M1214.54,128.46c0-12.53-0.06-25.05,0.1-37.58c0.02-1.15,1.27-3.05,2.27-3.29c2.97-0.73,6.09-0.94,9.16-1.03
		c0.56-0.01,1.51,1.48,1.68,2.39c0.34,1.82,0.35,3.71,0.35,5.58c0.08,23.5,0.09,47,0.24,70.5c0.01,2.31-0.96,3.38-2.98,3.59
		c-2.77,0.3-5.57,0.43-8.36,0.53c-1.77,0.07-2.18-1.15-2.18-2.64c0-4.75-0.01-9.49-0.01-14.24c0-7.94,0-15.88,0-23.81
		C1214.72,128.47,1214.63,128.46,1214.54,128.46z"/>
	<path class="st0" d="M1509.25,113.31c3.02-1.27,5.78-2.51,8.6-3.58c3.04-1.15,6.13-0.84,9.14,0.15c2.08,0.68,3.28,2.03,2.84,4.4
		c-0.06,0.3-0.03,0.62-0.08,0.93c-0.8,5.09-1.76,5.88-6.84,5.34c-3.16-0.34-6.2-0.31-9,1.45c-1.28,0.81-1.9,1.74-1.89,3.39
		c0.08,12.3,0.05,24.6,0.04,36.9c0,5.34-1.38,6.74-6.77,6.84c-2.01,0.04-4.02,0.01-6.32,0.01c0-1,0-1.9,0-2.8
		c0.04-14.87,0.1-29.73,0.08-44.6c0-1.68-0.28-3.45-0.86-5.02c-0.71-1.92-0.03-2.89,1.57-3.64c0.7-0.33,1.38-0.72,2.09-1.04
		C1505.03,110.59,1506.93,110.95,1509.25,113.31z"/>
	<path class="st0" d="M1537.06,169.05c0-4.52,0.01-8.87,0-13.21c-0.03-13.39-0.04-26.78-0.1-40.16c-0.01-2.99,0.57-4.18,3.47-4.9
		c2.31-0.57,4.75-0.8,7.14-0.82c0.77-0.01,1.89,0.99,2.23,1.79c0.49,1.17,0.57,2.58,0.57,3.89c0.04,15.26,0.03,30.52,0.02,45.78
		c0,0.85-0.06,1.72-0.24,2.54c-0.87,3.97-1.9,4.86-5.99,5.1c-1.94,0.11-3.89,0.09-5.84,0.11
		C1538,169.16,1537.69,169.1,1537.06,169.05z"/>
	<path class="st0" d="M992.72,169.04c0-4.45,0.01-8.72,0-12.99c-0.05-13.77-0.09-27.54-0.2-41.31c-0.02-1.77,0.75-3.09,2.2-3.44
		c2.91-0.71,5.91-1.06,8.9-1.34c0.54-0.05,1.44,0.88,1.7,1.54c0.41,1.06,0.55,2.27,0.56,3.42c0.05,15.48,0.05,30.97,0.06,46.45
		c0,0.7-0.01,1.41-0.1,2.1c-0.51,3.87-1.96,5.32-5.83,5.54C997.68,169.15,995.35,169.04,992.72,169.04z"/>
	<path class="st0" d="M871.68,169.03c0-4.48,0.01-8.75,0-13.03c-0.05-13.77-0.08-27.54-0.2-41.31c-0.01-1.77,0.78-3.07,2.24-3.41
		c2.91-0.69,5.92-1.03,8.9-1.32c0.5-0.05,1.36,0.77,1.6,1.37c0.4,0.98,0.58,2.11,0.58,3.18c0.05,15.72,0.06,31.43,0.08,47.15
		c0,0.7-0.02,1.41-0.13,2.09c-0.61,3.72-1.89,5-5.61,5.25C876.75,169.16,874.35,169.03,871.68,169.03z"/>
	<path class="st0" d="M1544.52,82.25c4.87,0.04,6.75,1.96,6.71,6.84c-0.06,5.81-2.56,8.49-7.85,8.41c-4.7-0.08-6.93-2.59-6.85-7.74
		C1536.6,84.7,1539.26,82.21,1544.52,82.25z"/>
	<path class="st0" d="M1000.1,82.25c4.89,0.04,6.7,1.89,6.68,6.83c-0.02,5.83-2.5,8.5-7.81,8.42c-4.75-0.07-6.83-2.44-6.78-7.73
		C992.24,84.65,994.81,82.21,1000.1,82.25z"/>
	<path class="st0" d="M885.74,89.23c-0.05,5.7-2.48,8.29-7.72,8.26c-4.77-0.03-6.86-2.36-6.85-7.65c0.02-5.22,2.62-7.68,8.05-7.6
		C884.03,82.32,885.78,84.19,885.74,89.23z"/>
</g>
</svg>
