<svg xmlns="http://www.w3.org/2000/svg" viewBox="0 0 1551 442.79" fill="#fff" xmlns:v="https://vecta.io/nano"><path d="M2.56.06c.57 1.1 1.71 1.46 2.68 2.02l170.39 99.72c2.29 1.34 3.13 2.87 3.1 5.49l-.11 44.25c0 1.67.05 3.35-.46 4.98-2.03-.59-3.81-1.7-5.62-2.74L53.36 85.76c-1.06-.6-2.06-1.4-3.37-1.3-.8 1.3-.72 2.67-.72 4.03v13.18l.01 200.94c0 2.38.88 3.86 2.89 5.09l105.72 64.9 20.14 12.18c.42 1.84.62 3.7.62 5.6l.01 48.96c0 1.08.6 2.49-.57 3.2-1.33.81-2.31-.48-3.33-1.1l-72.77-44.06-99.08-60c-1.18-.71-2.34-1.4-2.9-2.74l.16-4.38-.11-172.38L.05 3.4c0-1.15-.06-2.31.63-3.32L2.56.06zm176.21 371.1c-2.35-.93-4.47-2.27-6.6-3.59L62.44 299.69c-2.34-1.44-3.21-3.03-3.19-5.8l.04-53.03c0-3.07.77-3.5 3.47-1.99l51.8 28.88 62.51 34.81 1.62.96c-.24 5.65-.22 11.31 0 16.96-1.26.77-2.2-.09-3.17-.65l-41.56-24.15c-1.72-1-2.78-2.23-3.22-4.31-1.49-6.92-9.66-12.39-16.68-11.38-5.61.8-7.89 4.9-5.57 10.01 2.62 5.8 10.41 9.91 16.69 8.65 2.73-.54 5.11-.16 7.51 1.26l46 27.1c-.24 14.67-.31 29.33.04 44l.04.15zm-.57-198.9l.75-.65c1.13.02 1.94-.71 2.84-1.22l109.45-62.24 3.53-2.04c2.04-1.01 2.65-.64 2.78 1.53.02.31.01.63.01.94l-.01 45.21c0 .42-.06.83-.08 1.25-1.5.19-2.74 1.01-4.01 1.72l-31.8 17.69-22.46 12.54-27.04 15.28-25.48 14.2c-2.53 1.38-4.84 3.39-7.95 3.5l-.1-36.42c-.02-3.77.11-7.54-.43-11.29zm.56 80.33l37.84-22.31 8.12-4.77c2.1-1.28 4.31-1.53 6.64-.96 6.22 1.51 15.06-3.02 17.6-10.57.91-2.69-.19-5.55-2.7-7.06-2.13-1.29-4.55-1.97-6.94-1.31-6.45 1.79-11.87 4.91-13.36 12.15-.32 1.53-1.2 2.31-2.37 3.08-5.94 3.92-12.22 7.28-18.33 10.91l-24.68 14.36c-.83.48-1.56 1.12-2.57.51l.23-20.38c1.64-.67 3.38-1.18 4.92-2.04l35.87-20.06 40.79-22.83 32.07-17.86c1.61-.89 3.14-2.17 5.19-1.98.45.87.45 1.82.45 2.76l-.05 43.54c-2.27.19-4.14 1.4-6.05 2.47l-18.01 10.16-22.16 12.38-30.08 16.82-19.14 10.72-19.19 10.62c-1.2.67-2.43 1.23-3.85 1.15-.11-1.34-.32-2.67-.33-4.01l.09-15.49z"/><path d="M178.73 370.99c-.35-14.67-.28-29.33-.04-44l17.83-9.87 32.35-17.99 28.78-16.01 30.69-17.08c2.83-1.55 5.64-3.21 8.74-4.23.65.95.41 2.02.41 3.05l.11 28.54c.05 2.97-1.02 4.84-3.53 6.39l-111.81 69.18c-1.14.72-2.35 1.35-3.53 2.02z"/><path d="M178.69 320.47c-.22-5.65-.24-11.31 0-16.96l40.8-24.05c2.16-1.27 4.36-2.48 6.57-3.68 1.67-.9 3.47-.79 5.21-.35 7.01 1.78 15.34-3.33 17.7-10.71 1.37-4.28-3.04-8.97-7.94-8.28-4.28.6-8.3 2.02-11.48 5.27-1.75 1.8-2.95 3.88-3.39 6.25-.41 2.2-1.6 3.49-3.42 4.54l-17.35 10.1-22 12.72c-1.45.84-2.83 1.82-4.59 1.89l-.09-3.43c-.16-4.58-.4-9.16.3-13.72.15-1.34 1.17-1.85 2.2-2.42l35.31-19.77 20.36-11.17 30.11-16.86 18.32-10.3c3.85-2.09 7.45-4.68 11.73-5.92.42 1.09.48 2.25.48 3.4l-.11 38.57c-.59.2-1.22.33-1.75.62l-16.5 9.05-19.78 10.9-29.26 16.41-22.44 12.55-25.75 14.34c-1 .56-2.02 1.12-3.24 1.01zm909.92-70.48l-.35-7.62c-1.02-14.53-.42-29.08-.61-43.63-.02-1.39.28-2.09 1.9-2.05 3.88.11 7.76.08 11.63.01 1.44-.03 2.21.34 2.05 1.92-.07.62-.01 1.25-.01 1.88v71.9 2.2c.03 1.15-.42 1.71-1.66 1.7-4.82-.04-9.64-.06-14.46.01-1.53.03-1.92-1-2.43-2.02l-11.93-23.51c-4.84-9.51-9.62-19.05-13.62-28.95-.15-.36-.33-.71-.53-1.13-.93.38-.63 1.06-.61 1.58.72 17.05.59 34.11.58 51.16 0 2.79-.04 2.82-2.71 2.83-3.67.02-7.34-.03-11.01.02-1.34.02-1.95-.44-1.84-1.8.05-.62.01-1.26.01-1.88v-72.22-.63c0-3.43-.09-3.04 3.05-3.05l13.52-.05c1.73-.05 2.61.52 3.37 2.05 8.23 16.69 17.67 32.79 24.52 50.15.13.38.21.84 1.14 1.13zM398.58 128.43l1.67.65c16.25 6.22 16.32 26.23 5.69 35.28-4.3 3.66-9.39 5.48-14.8 6.43-10.2 1.8-20.45 1.53-30.69.29-2.31-.28-2.34-.36-2.34-2.67V94.93c0-2.31.02-2.42 2.3-2.73 10.53-1.44 21.08-1.86 31.64-.39 3.55.49 6.87 1.77 9.94 3.69 12.1 7.58 11.68 24.26-.79 31.19-.8.43-1.77.61-2.62 1.74zm-17.94 30.51c1.78.21 4.06-.14 6.28-.76 5.26-1.48 8.18-5.23 8.27-10.48.09-5.38-2.56-9.03-7.8-10.8-3.23-1.09-6.58-1.06-9.94-1.14-1.72-.04-2.14.63-2.12 2.2l.03 16.32c.03 5.01-.79 4.64 5.28 4.66zm-5.29-45.44v5.02c0 4.87 0 4.85 4.8 4.78 3.08-.04 6.08-.37 8.76-2.01 3.75-2.29 5-5.74 4.41-9.95-.55-3.88-2.99-6.04-6.62-7.1-3.19-.94-6.43-.61-9.67-.4-1.32.08-1.71.9-1.69 2.14l.01 7.52zm49.87 18.17V96.21l-.01-1.88c-.09-1.22.25-1.87 1.66-2.04 11.79-1.47 23.6-2.41 35.32.17 14.52 3.2 23.17 12.43 25.88 26.94 1.79 9.59 1.29 19.18-1.93 28.48-4.33 12.52-13.48 19.51-26.13 22.37-7.51 1.7-15.14 2.09-22.8 1.62-3.23-.2-6.48-.3-9.71-.74-2.51-.34-2.27-.6-2.27-2.75V134.8l-.01-3.13zm17.15-.1v3.76l.01 20.06c.01 2.66.12 2.76 2.84 2.85 1.15.04 2.3.03 3.45.01 9.83-.16 17-5.32 20.06-14.61 2.48-7.51 2.74-15.23 1.03-22.89-1.7-7.64-6.05-13.23-13.93-15.47-3.57-1.02-7.23-1.12-10.89-.72-2.53.27-2.56.35-2.56 2.87l-.01 24.14zm41.37 105.92c-.14 5.51-1.01 12.31-3.53 18.85-6.25 16.15-20.6 22.52-35.49 20.96-12.42-1.3-20.96-8.06-25.76-19.32-5.76-13.5-5.84-27.31-.47-40.94 4-10.17 11.11-17.47 21.95-20.33 15.64-4.14 33.8 1.11 40.8 22.36 1.8 5.51 2.54 11.2 2.5 18.42zm-50.81-1.41c.06 5.03.5 9.6 1.84 14.04 1.13 3.75 2.81 7.21 5.79 9.89 5.24 4.72 12.9 4.5 17.86-.48 2.66-2.67 4.23-5.97 5.22-9.53 2.36-8.42 2.54-16.93.46-25.42-1.03-4.2-2.71-8.14-5.89-11.25-4.97-4.86-12.45-5.02-17.61-.37-2.06 1.86-3.49 4.15-4.59 6.67-2.33 5.39-2.9 11.09-3.08 16.45zm256.72-.33c.12 7.61-.97 14.8-3.86 21.66-6.43 15.28-20.14 21.29-34.64 19.95-12.54-1.15-21.33-7.89-26.13-19.28-6.06-14.36-6.09-29.02.48-43.23 8.04-17.39 25.11-22.28 40.39-17.98 9.13 2.57 15.34 8.71 19.34 17.16 3.29 6.94 4.63 14.29 4.42 21.72zm-50.62.91c.11 2.19.11 4.4.36 6.57.23 1.97.64 3.92 1.13 5.84.91 3.58 2.37 6.92 4.86 9.73 5.64 6.37 14.97 6.11 20.24-.56 1.77-2.24 3.02-4.77 3.83-7.5 2.66-9.04 2.75-18.14.4-27.24-.84-3.26-2.27-6.3-4.43-8.93-5.5-6.69-14.97-6.66-20.42.09-1.8 2.22-3.02 4.76-3.9 7.46-1.55 4.73-2.09 9.6-2.07 14.54zm3.52-146.33c13.72.14 23.51 6.5 29.32 18.85 3.92 8.34 4.89 17.24 4.19 26.34-.4 5.23-1.33 10.35-3.22 15.29-5.18 13.57-16.37 21.26-30.89 21.47-9.39.13-17.52-2.64-24.04-9.52-4.65-4.91-7.45-10.82-9.01-17.34-2.75-11.5-2.38-22.86 2.17-33.85 4.09-9.87 11-16.92 21.52-20 3.25-.95 6.56-1.31 9.96-1.24zm15.51 39.71c.09-1.68-.28-4.5-.74-7.28-.79-4.79-2.22-9.38-5.32-13.24-5.55-6.92-15.04-6.89-20.6.03-1.86 2.32-3.16 4.95-3.97 7.78-2.64 9.27-2.68 18.58-.06 27.86.83 2.94 2.18 5.66 4.16 8.03 5.77 6.89 15.44 6.65 20.84-.52 1.78-2.37 2.97-5.04 3.8-7.87 1.29-4.45 1.76-9.02 1.89-14.79zM534.38 238.77c6.05 3.06 8.43 8.17 9.94 13.87 2.05 7.76 3.52 15.66 6.31 23.65h-9.67c-1.99 0-3.99-.1-5.97.03-1.67.11-2.4-.58-2.91-2.12-1.46-4.48-2.52-9.06-3.57-13.64-.54-2.34-.97-4.71-1.64-7.02-2.08-7.08-6.63-9.84-13.82-8.6-1.22.21-1.18.96-1.18 1.8l-.01 7.53v18.83c.01 3.76-.22 3.16-3.32 3.18-3.98.02-7.97-.04-11.95.03-1.48.03-2.15-.48-1.99-1.99.06-.62.01-1.25.01-1.88V201.5c0-.73.05-1.47-.01-2.2-.1-1.21.53-1.72 1.61-1.85 10.73-1.26 21.47-2.24 32.24-.39a32.24 32.24 0 0 1 3.06.7c9.9 2.75 15.15 8.69 16.28 18.41 1.06 9.11-3.3 17.11-11.81 21.7l-1.6.9zm-22.52-17.99l-.02 9.39c-.03 1.43.42 2.15 1.96 2.05 1.87-.12 3.77-.04 5.63-.23 7.74-.82 11.75-5.75 11-13.43-.43-4.41-3.08-7.52-7.36-8.71-2.98-.83-6.01-.68-9.03-.42-2.07.18-2.15.34-2.17 2.59l-.01 8.76zm229.18 18.18c5.62 2.75 8.02 7.68 9.49 13.16 1.6 5.95 2.98 11.97 4.5 17.94.51 2 1.17 3.96 1.84 6.23-5.6 0-10.92-.02-16.25.02-1.37.01-1.73-.85-2.09-1.89-1.28-3.66-2.18-7.42-3.06-11.19l-1.86-8.26c-.29-1.21-.7-2.41-1.14-3.58-1.62-4.32-4.75-6.49-9.38-6.44-5.82.07-4.82-.77-4.86 4.7l-.02 23.86c-.01 2.74-.04 2.76-2.76 2.78h-11.63c-2.82-.01-2.83-.03-2.84-2.99v-10.05-61.53c0-.63.08-1.27-.01-1.88-.27-1.84.73-2.37 2.33-2.5 3.86-.33 7.71-.86 11.57-1.06 7.01-.37 14.04-.52 20.97.98 1.02.22 2.05.44 3.05.75 9.24 2.83 14.57 9.12 15.28 18.56.71 9.34-3.08 16.44-11.34 21.04l-1.37.76c-.09.05-.13.16-.42.59zm-22.83-17.93c0 3.03.08 6.05-.03 9.08-.06 1.7.63 2.24 2.22 2.12 1.77-.13 3.56-.04 5.32-.23 7.77-.82 11.78-5.7 11.07-13.37-.41-4.43-3.04-7.56-7.3-8.76-3.08-.87-6.21-.66-9.34-.43-1.36.1-2.01.71-1.96 2.2.09 3.13.03 6.26.02 9.39zm599.13 17.71c6.38 3.33 8.66 8.84 10.17 14.85 1.81 7.19 3.27 14.47 5.62 21.52.09.26-.03.6-.07 1.18-5.35 0-10.66-.02-15.98.01-1.42.01-1.69-1.03-2.03-2-1.39-4.06-2.36-8.23-3.32-12.4l-1.89-8.24c-.51-2.04-1.34-3.97-2.71-5.6-1.8-2.15-4.21-2.97-6.95-3.09-5.43-.23-5.43-.25-5.43 5.07l-.01 23.85c-.01 2.36-.05 2.4-2.46 2.41h-12.26c-2.32-.02-2.36-.05-2.37-2.49l-.01-27.93V200.7c0-3.05.02-3.02 3.02-3.41 7.07-.91 14.18-1.34 21.31-1.17 4.83.11 9.62.59 14.22 2.17 8.25 2.83 13.43 8.32 14.39 17.21 1.03 9.55-2.39 16.98-10.8 21.93-.6.36-1.25.68-2.44 1.31zm-22.58-17.79v9.41c0 .84-.07 1.8 1.15 1.81 3.97.05 7.99.31 11.69-1.6 4.26-2.2 6.54-6.86 5.86-11.87-.7-5.11-3.4-7.97-8.56-9.1-2.7-.59-5.42-.32-8.14-.19-1.58.08-2.09.86-2.03 2.43.11 3.04.03 6.08.03 9.11zm-213.55-49.97c-5.61 0-10.84-.06-16.07.04-1.52.03-2-.77-2.38-1.93-1.35-4.07-2.34-8.24-3.3-12.42l-1.9-8.25c-.46-1.83-1.21-3.56-2.32-5.11-1.96-2.74-4.84-3.61-7.97-3.64-5.83-.05-4.74-.63-4.78 4.44l-.02 24.48c-.01 2.34-.04 2.37-2.44 2.38-4.3.02-8.59-.04-12.89.03-1.38.02-1.91-.48-1.77-1.82.05-.52.01-1.05.01-1.57V95.73c0-3.19-.01-3.31 3.03-3.67 10.11-1.2 20.25-1.76 30.38-.28 3.44.5 6.73 1.57 9.75 3.33 6.18 3.61 9.39 9.04 9.87 16.14.66 9.79-3.28 17.01-12.05 21.53-.37.19-.7.45-1.27.82 6.24 2.95 8.55 8.5 10.08 14.51 1.91 7.49 3.44 15.07 6.04 22.87zm-38.72-55.31l.01 9.42c0 .8-.19 1.83 1.09 1.84 3.76.02 7.55.38 11.13-1.25 4.71-2.15 7.28-7.07 6.42-12.43-.85-5.38-4.12-8.37-9.71-9.02-2.31-.27-4.6.03-6.9.03-1.68 0-2.11.77-2.07 2.32.09 3.02.03 6.06.03 9.09zm-295.58 31.31l.01 18.84c.01 1.33-.04 2.3-1.73 2.79-11.23 3.26-22.59 4.67-34.14 2.14-13.11-2.87-21.72-10.88-25.62-23.69-2.96-9.75-2.95-19.65.03-29.39 4.26-13.95 13.93-22.31 27.92-25.73 8.91-2.18 17.88-1.81 26.76.46 1.21.31 2.38.8 3.57 1.19.71.24.96.7.78 1.44l-2.93 12.2c-.28 1.11-1.04.67-1.74.38-5.06-2.07-10.38-2.44-15.75-2.25-11.32.41-18.87 6.53-21.53 17.55-1.65 6.85-1.48 13.71.78 20.42 3.75 11.15 13.34 15.81 24.91 14.11 1.57-.23 2.34-.84 2.29-2.61-.12-4.39-.02-8.79-.05-13.19-.02-2.12-.06-2.14-2.35-2.17-2.2-.03-4.41-.07-6.6.01-1.4.05-1.82-.53-1.8-1.85.06-3.35.06-6.7 0-10.05-.02-1.29.35-1.88 1.77-1.87l23.59-.01c1.69-.02 1.85.79 1.84 2.11l-.01 19.17zm199.25 24c-6.44 0-12.41-.05-18.37.03-1.5.02-1.93-.85-2.46-1.91l-10.62-20.99-5.37-10.53c-2.27 2.17-3.72 4.71-5.49 6.98-.64.82-.39 1.81-.39 2.73l-.01 21.03c0 2.62-.03 2.64-2.48 2.66h-12.26c-2.31-.01-2.35-.04-2.35-2.45l-.01-46.13.01-28.24c0-2.5.04-2.52 2.61-2.53l12.26.01c2.17.02 2.21.07 2.22 2.31l.01 28.87v3.04c1.02-.17 1.13-.84 1.41-1.35 5.77-10.44 12.2-20.48 18.2-30.79.89-1.54 1.89-2.18 3.71-2.14 5.24.12 10.48.04 15.71.05.69 0 1.38.09 2.49.17l-1.92 2.83-20.03 28.51c-1.37 1.92-1.32 3.3-.21 5.29l21.63 39.3c.49.89.96 1.81 1.71 3.25zm81.96 52.99v20.41c.01 5.38-.75 10.64-2.64 15.69-3.77 10.08-11.15 15.6-21.73 17.07-5.04.7-10.03.54-14.97-.66-7.5-1.83-12.93-6.22-16.19-13.21-2.8-5.99-3.76-12.37-3.76-18.92l-.01-44.58c0-.42.04-.84 0-1.26-.13-1.36.46-1.83 1.81-1.81 4.4.06 8.8.09 13.2-.01 1.63-.04 2.27.46 2.16 2.11-.11 1.77-.02 3.56-.02 5.34v38.61c0 3.56.23 7.11 1.1 10.58.41 1.63.98 3.19 1.84 4.65 2.23 3.79 5.57 5.48 9.94 5.38 4.39-.1 7.62-2.03 9.61-5.93 1.91-3.72 2.42-7.79 2.44-11.88l.07-44.58c0-4.25 0-4.25 4.37-4.25 3.56 0 7.13.08 10.69-.04 1.7-.06 2.13.57 2.12 2.16l-.03 25.13zm-200.44 52.31c-5.76 0-11.3-.01-16.83.01-1.32 0-1.44-1.01-1.68-1.89l-3.83-14.23c-.03-.1-.03-.21-.06-.31-1.18-3.7-.17-3.37-4.3-3.39-4.93-.02-9.85.04-14.77-.03-1.54-.02-2.18.5-2.54 2.02l-3.86 15.51c-.4 1.72-1.02 2.42-2.9 2.37-4.91-.14-9.83-.05-14.57-.05-.62-.81-.36-1.41-.19-2l20.83-74.9c.74-2.66.77-2.66 3.59-2.67h16.66c2.64.01 2.65.02 3.35 2.54l13.2 47.74 7.28 26.28c.23.9.37 1.81.62 3zm-33.51-64.75c-2.27 10.68-5.05 21.21-7.6 32.09h7.94l7.62-.08-7.96-32.01zm409.16-40.55c-5.79 0-11.22-.04-16.66.03-1.46.02-1.69-.87-1.97-1.92l-4.1-15.44c-.42-1.73-1.11-2.37-2.95-2.33-5.23.13-10.47.11-15.71.01-1.64-.03-2.39.46-2.76 2.11-1.09 4.79-2.36 9.53-3.55 14.29-.81 3.24-.81 3.25-4.01 3.25-3.77 0-7.54.01-11.31-.01-.92 0-1.87.17-2.97-.34l2.87-10.56 18.12-65.21c.11-.4.33-.79.37-1.2.15-1.77 1.18-2.11 2.78-2.09l17.6.04c2.4.01 2.41.03 3.09 2.49l11.94 43.19 8.42 30.51.8 3.18zm-41.14-32.89h15.45l-7.93-31.75c-2.19 10.67-5 21.12-7.52 31.75zm-146.93 32.89c-5.76 0-11.2-.04-16.63.03-1.42.02-1.73-.78-2.02-1.87l-3.82-14.22c-.16-.61-.43-1.2-.49-1.81-.15-1.52-1.06-1.77-2.39-1.76-5.45.05-10.89.07-16.34-.01-1.58-.03-2.13.6-2.48 2.06l-3.86 15.51c-.38 1.66-1.08 2.16-2.73 2.13-5.01-.1-10.02-.03-14.98-.03-.37-1.47.26-2.52.56-3.59l20.18-72.76c.83-3 .84-3.01 3.97-3.01h16.65c2.45.01 2.47.03 3.14 2.44l18.87 68.25 2.37 8.64zm-33.62-64.68c-2.22 10.67-5.06 21.16-7.54 31.83h15.41l-7.87-31.83zm-105.47 64.68c-5.72 0-11.05-.05-16.38.03-1.54.03-1.93-.77-2.24-1.99l-3.96-14.83c-.76-2.82-.77-2.83-3.77-2.83-5.03-.01-10.06.07-15.08-.04-1.69-.04-2.34.59-2.71 2.18l-3.94 15.81c-.3 1.26-.82 1.71-2.1 1.7l-15.27-.02c-.64-.86-.24-1.53-.05-2.2l20.71-74.57c.72-2.57.74-2.59 3.33-2.59h16.97c2.64.01 2.66.02 3.36 2.56l12.53 45.3 7.84 28.39c.25.88.45 1.8.76 3.1zm-25.63-32.67l-7.95-32.01c-2.19 10.7-5.05 21.18-7.55 32.01h3.8 11.7zm294.16 58.42l17.12-.02c1.75-.02 1.69 1.29 1.95 2.31l4.44 17.64c3.15 13 6.8 25.89 9.09 39.09.12.71.4 1.38.77 2.6 1.8-9.33 3.73-18.08 5.94-26.76l8.34-32.5c.73-2.8.44-2.34 3.15-2.36l15.68-.01c.25 1.16-.18 2.01-.44 2.89l-22.46 73.8c-.87 2.87-.89 2.87-3.83 2.88h-14.47c-2.65-.01-2.67-.02-3.4-2.53l-13.4-46.07-8.3-28.61c-.19-.69-.62-1.35-.18-2.35zm74.66 39.87v-36.12l-.01-1.88c-.1-1.28.31-2.02 1.74-1.88.52.05 1.05.01 1.57.01h38.06 1.89c1.12-.06 1.43.54 1.42 1.54l.01 11.31c.02 1.22-.44 1.66-1.65 1.63l-7.23-.01c-5.45 0-10.9.06-16.36-.04-1.69-.03-2.16.57-2.13 2.16.08 4.19.01 8.37.03 12.56.01 2.2.05 2.25 2.24 2.25l20.13.01h2.2c.88-.02 1.38.33 1.37 1.27v11.62c0 .91-.44 1.34-1.33 1.34l-4.72.01c-5.87 0-11.74-.02-17.61.01-2.23.01-2.27.06-2.29 2.23v14.76c.01 2.4.05 2.45 2.43 2.45l23.28.01 2.2.03c.74.03 1.13.42 1.13 1.18v11.93c0 .93-.49 1.3-1.37 1.3l-1.89.01h-39.95c-.52 0-1.05-.03-1.57 0-1.22.07-1.65-.51-1.64-1.7l.01-9.74.04-28.25zm-330.91-.15v-35.8l-.01-1.88c-.13-1.41.29-2.24 1.89-2.05.41.05.84.01 1.26.01h38.37 1.89c.96-.03 1.27.49 1.27 1.37l-.01 11.93c0 .77-.37 1.15-1.14 1.14-.73-.01-1.47.01-2.2.01-7.23 0-14.47-.01-21.7.01-2.21.01-2.25.05-2.27 2.27l-.04 12.56c-.03 1.6.44 2.17 2.11 2.15l20.13-.03c.73 0 1.47.03 2.2 0 1.01-.04 1.56.3 1.55 1.42v11.31c.01 1.32-.73 1.53-1.81 1.52l-11.32-.01c-3.67 0-7.34.04-11.01-.02-1.32-.02-1.87.39-1.86 1.78l-.01 15.7c-.03 1.78.81 2.03 2.3 2.02l19.82-.02 5.35-.01c1.21-.03 1.66.48 1.64 1.68l.01 10.99c.02 1.38-.53 1.91-1.86 1.8-.52-.04-1.05-.01-1.57-.01H891.8c-.73 0-1.47 0-2.2-.02-.76-.02-1.13-.45-1.15-1.19-.02-.73-.02-1.47-.02-2.2l.02-36.43zm-327.98.53v-36.4c0-2.94.02-2.91 2.79-3.29 7.07-.97 14.18-1.34 21.31-1.17 4.94.12 9.8.76 14.48 2.48 11.9 4.38 15.78 15.28 14.77 25.28-1.53 15.28-11.96 20.93-22.41 23.05-3.83.78-7.7.72-11.58.67-2.19-.03-2.24.01-2.25 2.23l-.02 23.85c-.01 2.58-.04 2.61-2.57 2.62h-11.94c-2.54-.01-2.58-.04-2.58-2.6v-36.72zm17.1-15.04l-.03 10.03c-.04 1.46.5 2.14 1.92 2.19 1.99.08 3.96.14 5.94-.19 7.96-1.33 11.88-6.29 11.16-14.24-.48-5.27-3.75-8.85-8.96-9.86-2.71-.52-5.4-.35-8.12-.12-1.46.12-1.97.7-1.94 2.15.09 3.35.03 6.69.03 10.04zm765.72 36.54c6.32 2.82 12.43 4.45 18.96 4.22 2.12-.08 4.17-.42 6.09-1.31 5.36-2.46 6.54-8.76 2.47-13.03-1.24-1.31-2.71-2.32-4.3-3.12-2.34-1.17-4.72-2.24-7.11-3.32-4.12-1.87-7.97-4.15-11.38-7.16-10.43-9.24-8.28-24.72.55-32.16 4.12-3.48 8.91-5.52 14.18-6.25 7.55-1.04 15.05-.67 22.32 1.91 2.55.9 2.61.95 1.88 3.62-1.04 3.81-1.68 7.73-3.06 11.56-4.31-1.89-8.62-3.07-13.19-3.23-2.43-.08-4.82.06-7.1.96-2.71 1.08-4.63 2.92-5.04 5.9s.94 5.26 3.3 7c2.72 2 5.79 3.34 8.86 4.68 3.94 1.72 7.79 3.6 11.18 6.29 4.06 3.22 7.12 7.15 8.13 12.31 2.2 11.13-1.94 20.59-11.47 25.84-3.52 1.94-7.34 3.07-11.31 3.56-8.45 1.04-16.73.36-24.7-2.75-2.92-1.14-2.53-1.06-1.93-3.61l2.67-11.91zm-935.09 2.39l2.07 11.86c.25 1.35-.41 1.88-1.53 2.25-2.8.92-5.67 1.5-8.59 1.79-6.28.62-12.54.69-18.73-.84-12.53-3.09-20.83-10.77-24.75-23-3.42-10.69-3.29-21.48.4-32.05 4.63-13.25 14.2-21.18 27.83-24.1 7.57-1.62 15.2-1.27 22.74.53.91.22 1.81.51 2.7.83.78.28 1.11.78.88 1.7l-2.75 11.27c-.34 1.54-1.08 1.48-2.24 1.02-3.76-1.48-7.7-1.88-11.71-1.8-9.67.17-17.08 5.47-20.11 14.64-2.43 7.35-2.5 14.82-.33 22.24 2.8 9.56 10.14 15.03 20.23 15.32 4 .11 7.94-.4 11.8-1.44.58-.17 1.16-.45 2.09-.22zM753.64 91.62l17.68-.01c1 0 1.52.47 1.84 1.36l1.87 4.99c3.18 8.86 6.95 17.5 9.74 26.49.12.38.4.71.7 1.23l5.97-16.61 5.7-15.62c.43-1.2.96-1.91 2.43-1.88l16.04.06c.28 0 .56.16.85.24.09 1.19-.65 2.01-1.1 2.92l-20.43 40.32c-1.11 2.18-1.75 4.34-1.72 6.86l.05 26.38c0 2.58-.03 2.6-2.54 2.62h-12.27c-2.5-.01-2.53-.04-2.53-2.64l.04-25.12c.04-2.8-.53-5.29-1.76-7.81l-19.72-41.01c-.36-.73-.93-1.41-.84-2.77zm734.38 105.11l17.43-.05c1.78-.04 2.06 1.09 2.47 2.24 3.67 10.23 7.94 20.23 11.3 30.57.12.36.1.81.56 1.01.98-.36.87-1.36 1.11-2.1 3.27-9.93 7.18-19.62 10.61-29.49.56-1.6 1.29-2.3 3.13-2.25 5.44.15 10.88.05 16.34.05.21 1.4-.63 2.31-1.13 3.3l-20.7 40.84c-1.03 2.01-1.57 3.99-1.54 6.27l.03 26.67c-.01 2.43-.05 2.47-2.38 2.48h-12.26c-2.47-.01-2.5-.04-2.5-2.68l.06-23.22c.11-4.1-.8-7.72-2.6-11.38L1489.17 200c-.45-.9-1.09-1.76-1.15-3.27zM544.2 91.82c3.16-.42 6.08-.15 8.98-.2l8.17-.05c1.67-.08 2.4.62 2.92 2.1 3.68 10.45 8.12 20.63 11.45 31.21.06.2.18.37.28.58 1.2-.51 1.06-1.75 1.37-2.67 3.25-9.83 7.08-19.45 10.55-29.2.4-1.13.74-2.04 2.31-2.02l17.02.04c.16 1.44-.66 2.34-1.16 3.31l-20.56 40.59c-1.08 2.11-1.63 4.19-1.6 6.57l.03 26.37c0 2.49-.04 2.51-2.6 2.52h-11.95c-2.56-.01-2.59-.03-2.59-2.54l.02-26.37a11.88 11.88 0 0 0-1.24-5.4L545.49 94.8c-.43-.92-.81-1.87-1.29-2.98zm315.74 152.29l-.01 29.52c0 2.62-.03 2.65-2.53 2.66h-12.27c-2.5-.02-2.53-.05-2.54-2.67l-.01-16.96v-40.82l.01-2.2c.16-1.53-.52-1.98-2-1.96l-14.47.02c-2.67-.01-2.68-.03-2.7-2.78l-.03-10.05c-.04-1.55.34-2.29 2.09-2.19 2.4.14 4.82.03 7.23.03h43.09 2.2c.87-.02 1.41.29 1.41 1.24l-.01 12.56c0 .99-.67 1.17-1.48 1.17l-5.98.01c-3.35 0-6.71.06-10.06-.03-1.5-.04-2.01.44-1.99 1.96l.03 16.64.02 13.85zm244.37-105.22v-29.51c0-2.88-.03-2.9-2.93-2.91-4.72-.02-9.43-.07-14.15.03-1.7.04-2.15-.57-2.11-2.18.11-3.55.12-7.12 0-10.67-.06-1.75.67-2.08 2.21-2.06l17.92.02h32.38l2.2.01c.91-.01 1.32.43 1.32 1.34l-.01 12.24c0 1.49-1.14 1.24-2.03 1.25-4.4.03-8.8-.02-13.2.02-4.94.05-4.24-.69-4.25 4.37l-.01 56.19c0 .63-.07 1.27.01 1.88.24 1.75-.64 2.1-2.18 2.08-4.3-.07-8.59 0-12.89-.03-2.22-.02-2.27-.06-2.28-2.26v-29.81zm343.26 104.89v-29.2c0-2.84-.02-2.86-2.94-2.86-4.72-.01-9.44.02-14.15-.01-2.19-.01-2.22-.06-2.24-2.3v-10.05c.02-2.58.04-2.61 2.55-2.62l18.56-.01 32.39.01c2.44 0 2.48.04 2.49 2.34l.03 10.68c.03 1.48-.43 2.02-1.97 2-4.82-.08-9.64-.02-14.47-.03-3.33 0-3.09-.12-3.09 3.04v57.78c0 4.21.39 3.74-3.62 3.76h-10.38c-3.4 0-3.14.22-3.14-3.31l-.02-29.22zm-45.77-7.24v-36.11-2.2c-.05-1.05.4-1.51 1.48-1.51l14.46.01c.89 0 1.39.34 1.39 1.27l.01 2.2v72.53l.01 1.57c.14 1.47-.44 2.05-1.97 2.03-4.51-.07-9.02-.08-13.52 0-1.63.03-1.9-.74-1.88-2.11l.02-16.33v-21.35zM500.28 131.21V94.48c0-2.9-.21-2.88 2.95-2.87l12.26-.03c1.64-.03 2.34.51 2.15 2.16-.07.62-.01 1.25-.01 1.88v71.57 2.2c.05 1-.27 1.59-1.4 1.58-4.82-.02-9.64-.02-14.46 0-1.04 0-1.55-.4-1.49-1.48.04-.73 0-1.46 0-2.2v-36.08zm618.22 105.14v-36.11l.01-2.2c-.02-.91.39-1.32 1.32-1.32h14.47c.9 0 1.36.37 1.35 1.29l.01 2.2v72.53c0 3.92.37 3.53-3.53 3.55h-11.01c-2.57-.01-2.6-.04-2.61-2.57l-.01-34.54v-2.83zm-661.91 87.6c-2.5 9.06-5.26 17.92-7.87 26.83-.86 2.95-.87 2.94-4 2.95-4.17.01-4.2.02-5.28-4.1-2.12-8.08-4.52-16.1-6.06-24.32-.11-.6-.37-1.16-.57-1.78-.83.65-.45 1.47-.49 2.17l-1.22 26.64c-.06 1.66-.61 2.22-2.2 2.08-2.07-.19-4.65.83-6.09-.41-1.43-1.23-.14-3.74-.03-5.66l2.1-34.13c.04-.63.18-1.25.17-1.87-.01-1.42.55-2.02 2.07-1.95 2.61.12 5.25.19 7.85-.02 1.94-.16 2.51.74 2.93 2.36 2.14 8.29 4.55 16.52 6.29 24.91.14.69.05 1.5 1.04 1.98 1.79-8.6 4.17-16.98 6.66-25.34 1.37-4.58.23-3.79 5.2-3.87 1.78-.03 3.56-.02 5.34 0 2.41.03 2.42.04 2.56 2.35l1.04 17.22 1.26 22.24c.11 2.09.09 2.11-1.96 2.16-1.57.04-3.14.03-4.71 0-2.42-.03-2.45-.04-2.53-2.35l-.89-24.76c-.05-1.14 0-2.29-.61-3.33zm449.88 14.95c.52-.87.22-1.7.19-2.49-.33-7.73-.31-15.47-.28-23.21.01-2.81.03-2.81 2.96-2.82 1.36-.01 2.72.04 4.08-.01 1.1-.04 1.51.47 1.46 1.5-.02.42 0 .84 0 1.25v38.58c0 2.91.15 2.69-2.75 2.69-1.26 0-2.55-.18-3.76.04-2.57.46-3.69-.85-4.71-2.97-4.12-8.57-8.83-16.85-12.57-25.6-.14-.34-.2-.85-.88-.81-.49.82-.18 1.73-.17 2.61l.14 24.46c.01 2.21-.05 2.32-2.24 2.24-2.05-.07-4.64.95-6.02-.49-1.23-1.29-.38-3.79-.38-5.75l-.02-34.19.01-2.2c-.01-.89.38-1.35 1.3-1.35l8.17-.01c1.06-.01 1.41.72 1.79 1.48 4.06 8.13 8.65 16 12.24 24.37.38.91.55 1.97 1.44 2.68zm-191.45-14.27c-.77.96-.58 1.6-.56 2.19.37 8.36.15 16.73.2 25.09.01 2.43-.03 2.5-2.34 2.47-1.97-.02-4.44.81-5.79-.35-1.43-1.23-.48-3.75-.49-5.69l-.03-34.82c0-3.26-.29-3.21 2.97-3.12 2.49.07 5.36-.89 7.37.41 1.89 1.22 2.43 4.04 3.53 6.16 3.76 7.2 7.7 14.31 10.91 22.34.55-1.06.4-1.74.37-2.37-.37-8.05-.35-16.1-.31-24.15.01-2.37.06-2.46 2.43-2.38 1.95.07 4.41-.91 5.71.49 1.13 1.23.35 3.6.35 5.46l.01 35.45c0 2.55-.03 2.59-2.53 2.58-2.3 0-4.9.56-6.8-.32-1.97-.91-2.38-3.77-3.42-5.8-3.95-7.69-8.04-15.32-11.58-23.64zm456.65.01v17.8l.03 10.05c.04 1.55-.53 2.02-2.01 1.93-1.67-.1-3.35-.06-5.03-.02-1.04.03-1.59-.33-1.5-1.44.04-.52 0-1.05 0-1.57v-38l.02-1.88c.02-.76.4-1.13 1.17-1.13l8.18-.01c1.07-.01 1.42.74 1.79 1.49 4.05 8.15 8.66 16.01 12.25 24.4.44 1.03.68 2.18 1.76 3.27 0-.99.06-1.75-.01-2.49-.76-8.04-.39-16.11-.46-24.17-.02-2.44.04-2.51 2.35-2.48 1.97.03 4.43-.83 5.79.38 1.42 1.26.48 3.76.49 5.71l.02 35.17c0 2.71-.03 2.75-2.73 2.73-2.3-.02-4.95.77-6.8-.32-1.86-1.1-2.37-3.83-3.39-5.87-3.94-7.83-8.21-15.51-11.92-23.55zm-656.16-.14v26.21 2.2c.04 1.03-.34 1.54-1.45 1.51-1.89-.05-3.77-.05-5.66 0-1.13.03-1.46-.52-1.4-1.53v-1.88-37.06l.01-2.2c-.02-.88.33-1.36 1.28-1.35l7.86-.02c1.2-.03 1.64.72 2.06 1.58 4.13 8.34 8.87 16.38 12.48 24.98.35.83.46 1.83 1.36 2.4.37-.79.16-1.6.09-2.38-.75-8.04-.38-16.11-.45-24.17-.02-2.35.04-2.37 2.45-2.4l4.72-.01c1.06-.02 1.55.43 1.49 1.49-.03.63 0 1.26 0 1.88v37.37c0 .63-.02 1.26 0 1.88.03.88-.32 1.38-1.26 1.38-2.52-.01-5.03-.02-7.55 0-1.26.01-1.48-1.02-1.87-1.82-4.36-8.69-9.08-17.21-12.97-26.14-.27-.63-.39-1.37-1.19-1.92zm407.54 8.06l-.03-19.44c-.02-1.55.44-2.22 2.05-2.38 5.95-.58 11.9-1.06 17.81.12 8.6 1.72 13.68 6.88 15.07 15.47.74 4.56.6 9.17-.68 13.67-2.51 8.84-8.84 13.04-17.55 14.31-4.69.69-9.38.63-14.08.09-2.55-.29-2.59-.26-2.59-2.73v-19.11zm9.52-.12v12.23c0 .1.01.21 0 .31-.24 1.67.61 2.14 2.16 2.23 6.25.37 11.02-2.95 12.7-8.95.86-3.07.93-6.2.67-9.33-.62-7.53-5.49-11.71-13.03-11.26-2.36.14-2.46.2-2.48 2.54l-.02 12.23zm-74.16 21.96c-2.86 0-5.36-.07-7.86.03-1.39.05-2.14-.43-2.47-1.77l-1.87-7.28-.79-3.35c-1.07-3.54-2.81-4.72-6.4-4.76-1.59-.02-2.24.39-2.19 2.1.11 3.86.04 7.73.03 11.6 0 .63-.03 1.26 0 1.88.05.98-.22 1.58-1.37 1.56-2.2-.04-4.4-.03-6.6 0-1.05.01-1.55-.4-1.48-1.48.03-.52 0-1.04 0-1.57v-37.32c0-3.06 0-3.2 2.96-3.44 5.52-.44 11.08-.89 16.58.21 5.01 1 8.82 3.56 9.79 8.86.89 4.84.26 9.76-5.74 13.42-.26.16-.49.37-1 .76 3.82 2.38 4.86 6.22 5.75 10.19.78 3.35 1.71 6.66 2.66 10.36zm-21.54-30.53c0 .52-.05 1.05.01 1.56.19 1.51-.8 3.54.51 4.42 1.54 1.05 3.63.24 5.47-.07.1-.02.2-.05.3-.08 2.84-.94 4.44-3.37 4.31-6.51-.13-3.03-1.77-4.9-4.88-5.62-1.24-.29-2.48-.18-3.73-.16-1.4.02-2.1.58-2 2.09.09 1.45.01 2.91.01 4.37zm-201.42 10c3.31 1.99 4.59 5.11 5.42 8.5l2.97 12.03c-2.89 0-5.6-.04-8.31.02-1.22.03-1.67-.66-1.92-1.64l-2.01-7.89c-.4-1.51-.76-3.05-1.34-4.49-.66-1.64-1.94-2.68-3.74-3.01-3.62-.68-4.17-.24-4.17 3.41l.02 11.6c.03 1.41-.27 2.14-1.89 2.03-1.98-.12-3.98-.07-5.96-.02-1.22.03-1.73-.47-1.62-1.67.03-.31 0-.63 0-.94l.01-38.26c0-2.49.02-2.65 2.51-2.88 5.73-.53 11.49-.98 17.19.18 5.02 1.03 8.73 3.68 9.66 8.99.97 5.52-.61 10.14-5.66 13.18-.34.22-.66.49-1.16.86zm-13.11-10.16v2.19c0 4.73.21 4.9 4.9 4.08.31-.05.62-.08.92-.16 3.07-.8 4.85-3.2 4.77-6.46-.07-3.16-1.79-5.14-5.03-5.82-1.24-.26-2.49-.15-3.74-.11s-1.92.54-1.85 1.91c.1 1.45.04 2.91.03 4.37zm470.45 10.2c2.79 1.61 4.22 4.01 4.97 6.81l3.42 13.49c-2.86.39-5.66.09-8.45.19-1.27.04-1.55-.86-1.8-1.78l-1.88-7.27-.79-3.35c-1.1-3.61-2.98-4.85-6.74-4.73-1.33.04-1.85.45-1.83 1.81l.02 12.54c0 2.92.18 2.79-2.66 2.78-1.78 0-3.56-.03-5.34 0-1.07.02-1.53-.45-1.45-1.51.04-.52 0-1.04 0-1.57l.01-37.32c0-3.19-.5-3.04 2.99-3.39 5.51-.55 11.07-.91 16.58.2 5.01 1.01 8.81 3.58 9.77 8.88.89 4.91.2 9.77-5.77 13.4-.27.17-.5.39-1.05.82zm-13.08-10.17l-.01 2.19c0 4.69.22 4.87 4.94 4.04.31-.05.62-.08.92-.16 3.06-.81 4.83-3.23 4.74-6.49-.09-3.15-1.81-5.13-5.06-5.79-1.35-.27-2.7-.17-4.05-.07-.97.08-1.51.54-1.49 1.59.04 1.57.01 3.13.01 4.69zm-115.46 3.36l.01-14.44c.02-2.18.06-2.2 2.28-2.23l5.34-.03c1.9-.15 1.96.93 1.95 2.33l-.01 20.7a151.56 151.56 0 0 0 .1 5.64 11.35 11.35 0 0 0 1.4 5.09c1.16 2.12 3.05 3.17 5.42 3.12 2.34-.05 4.23-1.06 5.35-3.25.73-1.42 1.05-2.93 1.2-4.51.48-5.22.17-10.45.24-15.67v-11.6c-.01-1.28.36-1.91 1.78-1.85 1.99.09 3.98.07 5.97.01 1.32-.05 1.89.4 1.85 1.79-.07 2.82-.02 5.64-.02 8.47l-.01 16c-.02 3.26-.52 6.46-1.79 9.49-1.81 4.33-4.96 7.13-9.56 8.31-3.21.82-6.46.88-9.65.27-6.74-1.29-10.82-6.36-11.59-14.15-.5-4.82-.15-9.64-.26-13.49zm-577.01-16.68l-10.8 15.47c-.36.51-.66 1.08-1.09 1.53-1.21 1.26-1.1 2.44-.25 3.93l8.32 15.11 4.3 7.92h-10.2c-1.24-.01-1.39-1.14-1.79-1.92l-7.09-13.98c-.37-.73-.55-1.6-1.44-2.15-2.04 1.88-3.29 3.97-3.06 6.98.25 3.12.02 6.27.07 9.41.02 1.16-.34 1.74-1.6 1.7a119.53 119.53 0 0 0-6.28 0c-1.26.04-1.68-.51-1.59-1.67.04-.52 0-1.05 0-1.57v-37.33l-.01-1.57c-.1-1.28.31-1.93 1.74-1.87h5.97c1.43-.06 1.77.61 1.76 1.88l-.02 13.49c0 .99 0 1.97.52 3.03 2.87-4.81 5.94-9.51 8.52-14.46 1.62-3.1 3.61-4.46 7.11-3.97 2.05.27 4.16.04 6.91.04zm770.52 43.98c-3.11 0-5.92-.03-8.73.01-1.04.01-1.44-.46-1.68-1.41l-2.04-7.56c-.32-1.4-.99-1.85-2.38-1.79h-7.53c-1.34-.05-1.85.57-2.13 1.72l-1.92 7.59c-.22.95-.58 1.47-1.63 1.45l-8.44-.01 2.9-10.5 8.49-30.79c.74-2.67.76-2.67 3.57-2.68h6.59c2.83.01 2.84.01 3.57 2.64l9.34 33.81 2.02 7.52zm-22.62-18.05c2.12.46 4.1.2 6.05.22 2.31.02 2.35-.06 1.85-2.26l-3.22-13.7c-.12-.49-.22-1.03-.78-1.34l-3.9 17.08zm-434.8 17.68c-.42.19-.51.27-.61.27l-8.78.05c-1.94-2.34-1.86-5.39-2.76-8.09-.84-2.52-.75-2.55-3.35-2.57-2.2-.01-4.4.09-6.59-.03-1.44-.08-2.08.48-2.39 1.81l-1.82 7.29c-.27 1.24-.82 1.72-2.1 1.68l-7.66-.02c-.29-.94.06-1.72.26-2.45l10.78-38.93c.72-2.58.74-2.58 3.31-2.59l7.53-.04c1.69-.1 2.35.55 2.77 2.15l6.53 23.86 4.88 17.61zm-22.56-17.68c2.11.46 4.09.2 6.04.22 2.32.02 2.36-.06 1.86-2.25l-3.24-13.71c-.11-.45-.07-1.18-.93-1.22-.89 5.7-2.56 11.19-3.73 16.96zm117.56-3.69l.01-19.78c.01-2.4.04-2.44 2.41-2.44h20.13c2.17.01 2.17.05 2.25 2.3.18 5.71.18 5.71-5.47 5.71-2.52 0-5.03-.03-7.55.01-2.14.04-2.16.07-2.2 2.35v4.71c.05 2.25.08 2.3 2.28 2.33l10.06-.01c1.45-.03 2.14.35 2.02 1.92-.11 1.35-.1 2.73 0 4.08.1 1.44-.57 1.76-1.86 1.74-3.46-.06-6.92.06-10.38-.05-1.68-.05-2.24.55-2.16 2.18.1 2.19.09 4.4.01 6.59-.06 1.59.5 2.25 2.16 2.22 3.77-.08 7.55-.04 11.32-.01 2.59.02 2.59.04 2.63 2.55.09 5.35.09 5.35-5.15 5.35-6.08 0-12.16.02-18.24-.01-2.2-.01-2.24-.06-2.25-2.27l-.02-19.47zm-214.53-.45l.01-19.47c.01-2.25.05-2.3 2.22-2.31l20.44-.04c1.68-.02 2.24.56 2.14 2.16-.09 1.35-.07 2.72-.01 4.08.06 1.33-.47 1.86-1.83 1.83-3.56-.06-7.13-.04-10.69-.01-2.67.02-2.68.04-2.71 2.8v3.77c.03 2.8.04 2.82 2.73 2.84l9.43-.02c1.53-.04 2.2.3 2.23 2.05.11 5.68.19 5.67-5.47 5.67-2.41 0-4.82.03-7.23-.01-1.19-.02-1.71.45-1.7 1.65.04 2.51.05 5.02 0 7.54-.03 1.42.72 1.77 1.96 1.76h11.64c2.44.02 2.45.05 2.5 2.37.02 1.15-.09 2.31.03 3.45.18 1.7-.57 2.13-2.16 2.11l-18.87-.03c-.84 0-1.68-.07-2.51.01-1.6.15-2.2-.41-2.17-2.1.1-5.34.04-10.68.04-16.01l-.02-4.09zm179.09.57l-.02-19.77c-.01-1.34.24-2.15 1.78-2.3 5.84-.57 11.7-1.15 17.49.18 6.18 1.42 9.81 5.48 10.27 11.51.49 6.47-1.93 11.93-8.04 14.59-3.03 1.32-6.2 1.78-9.49 1.72-2.5-.05-2.52.02-2.53 2.58l.02 11.29c.02 1.34-.42 1.89-1.8 1.83-1.99-.08-3.98-.09-5.97 0-1.44.07-1.73-.61-1.72-1.87l.01-19.76zm12.46-1.58c3.16-.02 5.81-1.03 7.05-4.2 1.02-2.61.86-5.24-1.1-7.36-2.14-2.32-4.99-2.36-7.89-1.9-.76.12-1.05.55-1.05 1.28v10.99c0 .76.36 1.17 1.12 1.19.62.01 1.24 0 1.87 0zm-297.44 1.27l.01-19.77c.01-2.22.05-2.27 2.23-2.28h20.11c2.23.01 2.23.05 2.29 2.24.18 5.78.18 5.78-5.69 5.78-2.51 0-5.03.08-7.54-.02-1.56-.06-2.01.56-1.93 2.02l.01 5.65c-.05 1.38.52 1.82 1.86 1.79l9.43-.02c3.13.01 3.13.01 3.15 2.97.03 4.72.03 4.72-4.83 4.72-2.51 0-5.03.06-7.54-.02-1.4-.04-2.15.27-2.07 1.88a72.18 72.18 0 0 1 0 6.9c-.07 1.6.45 2.24 2.11 2.2 3.66-.09 7.33-.04 11-.02 2.85.01 2.85.03 2.88 2.95.04 4.95.04 4.95-4.9 4.95-5.76 0-11.52.02-17.28-.01-3.7-.01-3.26.41-3.27-3.41l-.03-18.5zm-83.05-.23V313.1c0-2.96.04-2.69 2.79-2.68l19.17.01c2.66.01 2.67.03 2.69 2.78l.01 3.45c.08 1.38-.52 1.82-1.85 1.8-3.56-.06-7.12-.03-10.68-.01-2.58.02-2.59.04-2.62 2.53v4.39c.04 2.43.05 2.46 2.38 2.48l10.05-.01c1.47-.03 1.97.45 2.02 1.97.19 5.75.25 5.75-5.41 5.75-2.51 0-5.03.03-7.54-.01-1.06-.02-1.51.4-1.5 1.47l-.01 7.84c-.03 1.26.56 1.64 1.7 1.63h10.68l2.2.01c.87 0 1.39.36 1.38 1.29a3.21 3.21 0 0 0 .01.31c.6 6.29.6 6.29-5.75 6.29-5.87 0-11.73-.05-17.6.03-1.62.02-2.16-.45-2.14-2.11l.02-20.07zm635.81-12.68c-2.99-1.18-5.7-1.93-8.58-1.74-.94.06-1.86.12-2.75.53-3.23 1.46-3.74 4.77-1.02 7.01 1.47 1.2 3.22 1.93 4.95 2.69 2.3 1.01 4.5 2.2 6.5 3.75 6.69 5.18 6.12 16.98-2.22 21.11-6.49 3.21-13.17 2.69-19.83.42-1.16-.4-1.34-1.13-1.05-2.2.35-1.31.63-2.64.95-3.96.55-2.33.56-2.37 2.7-1.57 2.18.81 4.4 1.34 6.73 1.4.84.02 1.68.01 2.51-.08 2.74-.28 4.47-1.55 4.99-3.59s-.38-3.98-2.76-5.46c-1.41-.88-2.94-1.58-4.47-2.27-2.21-.99-4.26-2.21-6.13-3.75-6.75-5.55-5.25-16.36 2.68-20.14 5.6-2.67 11.34-2.45 17.12-.56 1.41.46 1.66 1.32 1.25 2.65-.56 1.8-.99 3.62-1.57 5.76zm17.36 16.68v-14.13c-.01-3.76.29-3.44-3.31-3.45-1.89-.01-3.77-.04-5.66.01-1.18.03-1.61-.4-1.7-1.63-.49-6.62-.52-6.61 6.14-6.61l22.33.01c2.42.01 2.43.04 2.47 2.38l.01 4.4c.03 1.09-.46 1.48-1.51 1.46-1.99-.04-3.98-.01-5.97 0-3.28.01-3.29.01-3.29 3.18v28.57c0 3.98 0 3.99-3.97 3.99-1.26 0-2.52-.07-3.77.01-1.4.09-1.79-.52-1.78-1.85l.01-16.34zm-489.05.48v-15.07c-.01-2.96-.02-2.97-2.86-2.99-2.1-.02-4.19-.04-6.29 0-1.09.02-1.5-.42-1.47-1.49l-.01-5.02c-.07-1.41.57-1.77 1.87-1.75l16.35.02 10.69-.02c1.46-.03 2.15.4 2.01 1.95-.18 1.96.79 4.4-.4 5.77-1.25 1.45-3.75.47-5.7.51-4.66.1-4.66.03-4.66 4.64l-.01 28.57c0 2.53-.03 2.54-2.59 2.57-1.68.02-3.36-.09-5.03.03-1.58.11-1.95-.56-1.93-2.01l.03-15.71zm102.69-4l-.01 19.15c-.01 2.49-.04 2.5-2.62 2.53h-3.77c-3.37-.03-3.1.34-3.1-2.97v-24.8l-.03-14.13c-.03-1.64.52-2.27 2.16-2.1 2.36.25 5.38-1.02 6.93.58 1.4 1.44.39 4.39.42 6.67l.02 15.07zm457.36-.37l-.01 19.78c-.01 2.21-.05 2.23-2.24 2.27-1.89.03-3.77-.05-5.66.02-1.25.05-1.69-.5-1.59-1.67.04-.52 0-1.05 0-1.57v-37.36l-.01-1.57c-.11-1.3.35-1.92 1.76-1.85 1.88.09 3.78.12 5.66-.01 1.7-.11 2.13.59 2.11 2.18l-.03 17.58.01 2.2zm-242.83.05l-.01 19.46c-.01 2.5-.04 2.5-2.61 2.53h-3.46c-3.83-.04-3.41.45-3.42-3.27l-.01-24.17-.03-14.44c-.03-1.64.51-2.28 2.16-2.1 2.36.25 5.38-1.02 6.93.57 1.4 1.44.4 4.39.42 6.66l.03 14.76zM178.72 219.97c-1.2.65-2.2.08-3.22-.51l-42.03-24.42c-1.56-.9-2.4-2.09-2.75-3.91-1.51-7.94-10.65-12.08-15.93-11.65-.31.03-.62.06-.94.11-5.02.74-7.3 4.71-5.39 9.4 2.32 5.71 9.57 10.17 15.77 9.06 3.83-.69 6.81.23 10.01 2.16l41.6 24.53c.81.48 1.59.99 2.39 1.49l-.23 20.38c-1.2-.11-2.14-.83-3.14-1.38L62.05 182.54c-1.97-1.09-2.83-2.33-2.82-4.67l.06-68.13c0-4.59.24-4.77 4.19-2.53l69.63 39.52 45.08 25.52c.53 3.75.41 7.52.42 11.28l.11 36.44z"/><path d="M179 272.09c-1.35 1.29-2.52.33-3.67-.34l-18.7-10.89-21.71-12.59c-2.42-1.37-4.07-3.04-4.6-5.91-.62-3.39-2.95-5.71-5.7-7.56-2.93-1.96-6.15-3.1-9.74-2.97-5.97.23-8.76 4.92-6.11 10.27 2.92 5.89 10.49 9.65 16.86 8.19 2.3-.53 4.24-.24 6.27.96l42.19 24.76c1.81 1.07 4.11 1.71 4.94 4.04-.7 4.56-.45 9.14-.3 13.72l.09 3.43c-1.34.94-2.37.01-3.44-.59l-43.33-24.14-69.4-38.63c-2.42-1.34-3.43-2.82-3.4-5.63l.06-38.29c0-3.09.83-3.52 3.51-2.02l52.92 29.48 63.04 35.18-.08 15.5c-.03 1.36.18 2.7.3 4.03zm55.76-1.26c-.92-.08-2.37.33-3.01-1.12-.62-1.38-.07-2.69.79-3.78 2.02-2.58 4.78-3.96 7.97-4.38 1.3-.17 2.43.54 3.19 1.63.77 1.11.39 2.11-.32 3.14-2.04 2.91-4.63 4.73-8.62 4.51zm.34-50.85c-1.25-.12-2.56.26-3.25-.99-.75-1.36-.23-2.66.56-3.82 2.04-3 5.12-4.25 8.55-4.54 2.29-.2 3.45 2.57 2.1 4.93-1.77 3.1-4.61 4.39-7.96 4.42zm-113.61 74.66c-3.35-.52-6.56-2.05-8.41-5.6-1.18-2.26-.03-4.14 2.56-4.39 3.46-.34 8.58 2.89 9.79 6.17.76 2.09-.82 3.83-3.94 3.82zm-5.07-110.34c3.57.41 6.64 1.97 8.59 5.25 1.35 2.27.43 4.13-2.1 4.54-3.57.58-8.92-2.62-10.08-6.02-.76-2.24.68-3.83 3.59-3.77zm5.23 62.19c-3.47-.36-6.22-2.04-8.25-4.91-.75-1.05-1.22-2.26-.51-3.5.7-1.23 2.03-1.52 3.27-1.44 3.5.24 6.4 1.7 8.43 4.65.77 1.12 1.48 2.31.66 3.74-.8 1.4-2.18 1.4-3.6 1.46z"/></svg>