<svg xmlns="http://www.w3.org/2000/svg" width="785" height="240" shape-rendering="geometricPrecision" image-rendering="optimizeQuality" fill-rule="evenodd" xmlns:v="https://vecta.io/nano"><path d="M85 10l24-9c4-2 9 0 13 4l10 13h12 13l10-13c3-4 9-6 13-4l24 9c4 2 6 8 6 13l-2 17c6 5 12 10 17 17l17-2c5-1 10 2 12 6l10 23c1 4-1 10-5 13l-13 11c1 4 1 8 1 12s0 8-1 12l13 11c4 3 6 9 5 13l-10 23c-2 4-7 7-12 6l-17-2c-5 7-11 13-17 18l2 17c0 5-2 10-6 12l-24 10c-4 1-10-1-13-5l-10-13c-4 0-9 1-13 1s-9-1-14-1c1-1 2-2 3-2l26-25c35-7 61-38 61-75 0-42-34-76-76-76-19 0-37 7-51 20L75 45c2-2 4-4 6-5l-2-17c-1-5 2-11 6-13z" fill="#ee4035"/><path d="M62 180l30-28c6-5 12-7 19-7 6 0 12 2 18 7l32 31-32 30c-6 5-12 8-18 7-7 1-13-2-19-7l-30-28h41c2 5 6 8 11 8s10-4 10-10-5-11-10-11-9 4-11 8H62zm-10-7l-41-41c-8-7-12-16-11-24-1-9 3-18 11-25l45-44 44 44c8 7 12 16 11 25 1 8-3 17-11 24l-41 41v-56c6-1 11-7 11-13 0-8-7-14-14-14-8 0-14 6-14 14 0 6 4 12 10 13v56z" fill="#7ac043"/><path d="M312 218v-26h12 7c2 1 3 2 4 3s1 2 1 4-1 4-2 5-3 2-6 2c1 1 2 2 3 2 1 1 2 3 4 5l3 5h-7l-4-6c-2-2-3-3-3-4-1 0-2-1-2-1h-3-1v11h-6zm6-15h4c3 0 5 0 5-1 1 0 2 0 2-1 1 0 1-1 1-2s-1-1-1-2c-1 0-1-1-2-1h-5-4v7zm25 15v-26h22v4h-16v6h15v4h-15v7h17v5h-23zm29 0v-26h10 7c2 0 3 1 4 3 1 1 2 3 2 5 0 1 0 3-1 4s-2 2-3 2c-1 1-2 1-3 2h-6-4v10h-6zm6-22v7h3 5c1 0 2-1 2-1 0-1 1-1 1-2s-1-2-1-3c-1 0-2-1-3-1h-4-3zm23-4h6v14 4c1 1 1 2 2 3 1 0 2 1 4 1s3-1 4-1c1-1 1-2 2-2v-5-14h6v13c0 4 0 6-1 7 0 1-1 2-1 3-1 1-2 2-4 2-1 1-3 1-6 1s-5 0-6-1c-2 0-3-1-4-2s-1-2-1-3c-1-1-1-3-1-6v-14zm31 0h12 6c1 0 2 0 3 1l2 2c1 1 1 2 1 3s0 3-1 4-2 1-3 2c2 0 3 1 4 2s1 3 1 4v4c-1 1-2 2-3 2-1 1-2 1-4 2h-7-11v-26zm6 4v6h4 5c1 0 2 0 2-1 1 0 1-1 1-2s0-1-1-2c0 0-1-1-2-1h-5-4zm0 10v7h6 4c1 0 2 0 2-1 1 0 1-1 1-2v-2c-1-1-1-1-2-1s-3-1-6-1h-5zm26 12v-26h6v21h15v5h-21zm26 0v-26h6v26h-6zm13 0v-26h6v11l13-11h8l-11 10 11 16h-7l-9-12-5 4v8h-6zm43 0v-26h6v26h-6zm13 0v-26h6l12 17v-17h6v26h-6l-12-17v17h-6zm32-26h11 5c2 1 4 1 5 3 1 1 2 2 3 4 0 1 1 4 1 6s-1 4-1 6c-1 1-2 3-4 4-1 1-2 2-4 2-1 1-3 1-5 1h-11v-26zm6 4v17h4 4c1 0 2 0 2-1 1 0 1-1 2-2v-5-5c-1-1-1-2-2-2-1-1-2-1-3-2h-5-2zm24 9c0-3 0-5 1-7l3-3c1-1 2-2 4-3 2 0 4-1 6-1 5 0 8 1 11 4 2 2 4 6 4 10s-2 7-4 10c-3 2-6 3-11 3-4 0-8-1-10-3-3-3-4-6-4-10zm6 0c0 3 1 5 2 6 2 2 4 3 6 3 3 0 5-1 6-3 2-1 2-3 2-6s0-6-2-7c-1-2-3-2-6-2-2 0-4 0-6 2-1 1-2 4-2 7zm29 13v-26h6l12 17v-17h5v26h-6l-12-17v17h-5zm31 0v-26h22v4h-16v6h15v4h-15v7h17v5h-23zm28-9h5c1 2 2 3 3 4 1 0 2 1 4 1s3-1 4-1c1-1 2-2 2-3 0 0 0-1-1-1 0-1-1-1-2-2-1 0-2 0-5-1-3 0-5-1-7-2-1-2-2-3-2-5s0-3 1-4 2-2 4-3c1 0 3-1 6-1s6 1 8 2c2 2 3 4 3 6h-6c0-1-1-2-2-3h-3c-2 0-4 0-5 1 0 0-1 0-1 1s1 1 1 2c1 0 3 1 6 1 3 1 5 2 6 2 2 1 3 2 4 3s1 3 1 4c0 2-1 3-2 4 0 2-2 3-4 3-1 1-3 1-6 1-4 0-7-1-9-2-2-2-3-4-3-7zm30 9v-26h6v26h-6zm40 0h-7l-2-6h-12l-3 6h-6l12-26h6l12 26zm-11-11l-4-9-4 9h8z" fill="#757475"/><path d="M354 87h-13c0-2-2-7-7-16-5-10-8-14-10-14h-1v30h-11V53 22h11v26h0c2 0 5-4 10-12 4-8 7-13 7-14h12c0 1-3 5-8 12-5 8-9 13-11 15h0c3 2 7 9 13 20s8 16 8 18zm-4 33c0 8-2 14-7 18s-11 6-18 6h-2v24h-11v-34-30h7c1 0 3-1 5-1h8c5 0 9 2 13 4 3 3 5 8 5 13zm-10 3c0-7-4-10-12-10h-6v22h3c10 0 15-4 15-12zm52 17v6l-27 1c1 3 2 7 4 9 3 3 6 4 9 4 4 0 9-1 13-2l-1 9c-3 2-8 3-13 3-7 0-13-3-17-8-3-4-5-10-5-17a34.53 34.53 0 0 1 5-18c4-5 9-8 15-8s10 2 13 6c3 3 4 8 4 15zm-10-1c0-8-2-11-8-11-5 0-8 4-9 12l17-1zm44-18l-2 12c-2-1-4-2-6-2-4 0-7 2-8 7v30h-11c1-10 1-18 1-24 0-8-1-16-2-23l10-1c1 4 1 6 1 6h1c2-4 5-7 10-7 1 0 4 1 6 2zm17 47h-11c0-7 1-14 1-23s-1-17-2-24l12-1c0 6-1 15-1 25 0 8 1 16 1 23zm2-62c0 2-1 4-2 6s-3 2-5 2-4 0-5-2c-1-1-1-3-1-5s0-4 1-6c2-2 4-2 6-2s3 0 4 2c1 1 2 3 2 5zm44 62h-11c1-8 1-17 1-25 0-5-1-9-2-11s-3-3-6-3-6 2-8 4v35h-11c0-10 1-18 1-24 0-8-1-16-2-23l10-1 1 5h0c4-4 8-6 13-6 4 0 8 2 10 4 3 2 4 7 4 13v4 5 23zm46 0l-9 1c0-2-1-3-1-4h0c-3 3-7 5-12 5s-9-3-12-7c-3-5-5-10-5-17s2-13 5-19c4-5 8-8 14-8 4 0 7 1 9 3h1c0-8-1-16-1-24h11c0 8-1 19-1 33 0 15 1 27 1 37zm-10-11v-26c-2-2-5-3-7-3-4 0-6 2-8 5s-3 7-3 12c0 4 1 8 3 11 1 3 4 4 7 4 4 0 7-1 8-3zm55 11l-9 1c-1-2-1-4-1-5h0c-4 4-8 6-13 6-4 0-8-2-10-5-2-2-3-8-3-17v-4-5c0-4-1-10-1-18h11v18c0 8 0 14 1 16 1 3 3 5 6 5s6-1 8-3v-36h11c-1 6-1 14-1 24 0 8 1 15 1 23zm37-13c0 10-6 15-18 15-5 0-9-1-12-2l1-10c4 2 7 2 11 2 3 0 5 0 6-1 2 0 2-1 2-3s-2-5-7-7c-4-2-6-4-8-6-3-2-4-5-4-9 0-5 1-8 4-11 3-2 7-4 12-4s8 1 11 2l-1 10c-3-2-7-3-10-3-5 0-7 2-7 5 0 1 1 2 2 3s2 2 5 3c4 2 7 4 9 5 2 3 4 7 4 11zm31 4l-1 9c-1 1-4 1-7 1-4 0-7-1-10-4-2-3-3-9-3-17v-17h-5v-9h6v-14l10-1c-1 6-1 11-1 15 2 0 6 0 10-1v10h-10v14c0 6 0 10 1 12s3 3 5 3 3-1 5-1zm33-38l-2 12c-2-1-4-2-6-2-4 0-7 2-8 7v30h-11c1-10 1-18 1-24 0-8-1-16-2-23l10-1c1 4 1 6 1 6h1c2-4 5-7 10-7 2 0 4 1 6 2zm17 47h-11c0-7 1-14 1-23s-1-17-2-24l12-1c0 6-1 15-1 25 0 8 1 16 1 23zm2-62c0 2-1 4-2 6s-3 2-5 2-4 0-5-2c-1-1-1-3-1-5s0-4 2-6c1-2 3-2 5-2s3 0 4 2c1 1 2 3 2 5zm40 62l-9 1c-1-2-1-3-1-4h0c-3 3-7 4-13 4-3 0-6-1-8-3s-3-5-3-9c0-5 1-9 5-13 3-3 9-4 18-5v-1c0-4 0-6-2-7-1-2-4-2-8-2s-8 1-12 2l1-9c4-2 9-3 16-3 5 0 9 2 11 4 3 3 4 7 4 13v8 7c0 7 0 13 1 17zm-11-10v-12c-9 0-14 3-14 9 0 4 2 6 6 6s6-1 8-3zm56 10h-11c1-8 1-17 1-25 0-5-1-9-2-11s-3-3-6-3-6 2-8 4v35h-11c0-10 1-18 1-24 0-8-1-16-2-23l10-1 1 5h0c4-4 8-6 13-6 4 0 8 2 10 4 3 2 4 7 4 13v4 5 23zM395 58c0 2 0 4-1 7h-26c1 4 2 7 4 10 2 2 5 3 9 3s8 0 13-2l-1 10c-3 1-8 2-14 2-7 0-12-2-16-7s-5-11-5-17c0-7 1-13 5-19 3-5 8-7 15-7 5 0 10 1 13 5 2 4 4 9 4 15zm-10 0c0-8-2-12-8-12-5 0-8 4-9 12h17zm77 29h-10V62c0-6 0-9-1-11-2-2-4-3-6-3-3 0-5 1-7 3 0 4-1 8-1 11 0 6 1 14 1 25h-11c0-9 1-18 1-27 0-4-1-7-2-9s-3-3-6-3-6 1-8 4c1 13 1 24 1 35h-11V62c0-7 0-15-2-22l11-1 1 5h0c4-4 8-6 12-6 6 0 10 2 12 6h1c4-4 8-6 11-6 5 0 9 1 11 4 2 2 3 6 3 13v3 4 25zm45-29v7h-27c1 4 2 7 4 10 3 2 6 3 9 3 4 0 9 0 13-2l-1 10c-3 1-8 2-14 2-7 0-12-2-16-7-3-5-5-11-5-17 0-7 2-13 5-19 4-5 9-7 15-7s10 1 13 5c2 4 4 9 4 15zm-10 0c0-8-2-12-8-12-5 0-8 4-9 12h17zm54 29h-11c1-9 1-17 1-26 0-5-1-8-2-10s-3-3-6-3-6 1-8 4v35h-11c0-11 1-19 1-25 0-8-1-15-2-22l10-1 1 5h0c4-4 8-6 13-6 4 0 8 1 10 4 3 2 4 6 4 13v4 5 23zm33-9v8c-2 1-5 2-8 2-4 0-7-2-10-5-2-2-3-8-3-16V50h-5V40h6V27l10-2c-1 7-1 12-1 15h10v10h-10v14c0 5 0 9 1 11s3 3 5 3h5zm42-20c0 2 0 4-1 7h-26c1 4 2 7 4 10 2 2 5 3 9 3s8 0 13-2l-1 10c-3 1-8 2-14 2-7 0-12-2-16-7s-5-11-5-17c0-7 1-13 5-19 3-5 8-7 15-7 5 0 10 1 13 5 2 4 4 9 4 15zm-10 0c0-8-2-12-8-12-5 0-8 4-9 12h17zm44-18l-2 11c-2-1-4-1-7-1-4 0-6 2-7 6v31h-11c0-10 1-18 1-25 0-8-1-15-2-22l10-1c0 3 1 5 1 6h0c3-5 6-7 10-7 2 0 4 1 7 2zm17 47h-11V63c0-9 0-16-1-23l12-1c-1 6-1 14-1 24 0 9 0 17 1 24zm2-62c0 2-1 4-2 6-2 1-3 2-6 2-1 0-3-1-4-2-1-2-2-3-2-5 0-3 1-5 2-6 2-2 3-3 6-3 2 0 3 1 4 2 1 2 2 4 2 6zm40 62h-9c-1-1-1-2-1-4h-1c-3 3-7 5-12 5-3 0-6-1-8-3-2-3-4-6-4-10 0-5 2-9 6-12 3-3 9-5 18-5v-2c0-3-1-6-2-7s-4-2-8-2-8 1-12 2l1-9c4-1 9-2 16-2 5 0 8 1 11 4 3 2 4 7 4 13v8 7c0 7 0 12 1 17zm-11-11V65c-9 0-14 3-14 8 0 4 2 6 6 6 3 0 6-1 8-3zm56 11h-11c1-9 1-17 1-26 0-5-1-8-2-10s-3-3-6-3-6 1-9 4c0 13 1 24 1 35h-11V62c0-8 0-15-2-22l11-1v5h1c4-4 8-6 13-6 4 0 7 1 10 4 2 2 4 6 4 13v4 5 23z" fill="#09589e"/></svg>