<?xml version="1.0" encoding="UTF-8"?>
<!DOCTYPE svg PUBLIC "-//W3C//DTD SVG 1.1//EN" "http://www.w3.org/Graphics/SVG/1.1/DTD/svg11.dtd">
<!-- Creator: CorelDRAW X7 -->
<svg xmlns="http://www.w3.org/2000/svg" xml:space="preserve" width="785px" height="240px" version="1.1" style="shape-rendering:geometricPrecision; text-rendering:geometricPrecision; image-rendering:optimizeQuality; fill-rule:evenodd; clip-rule:evenodd"
viewBox="0 0 785 240"
 xmlns:xlink="http://www.w3.org/1999/xlink">
 <defs>
  <style type="text/css">
   <![CDATA[
    .fil2 {fill:#757475}
    .fil3 {fill:#09589E}
    .fil1 {fill:#7AC043}
    .fil0 {fill:#EE4035}
   ]]>
  </style>
 </defs>
 <g id="Layer_x0020_1">
  <metadata id="CorelCorpID_0Corel-Layer"/>
  <g id="_2426086038016">
   <path class="fil0" d="M85 10l24 -9c4,-2 9,0 13,4l10 13c4,0 8,0 12,0 4,0 9,0 13,0l10 -13c3,-4 9,-6 13,-4l24 9c4,2 6,8 6,13l-2 17c6,5 12,10 17,17l17 -2c5,-1 10,2 12,6l10 23c1,4 -1,10 -5,13l-13 11c1,4 1,8 1,12 0,4 0,8 -1,12l13 11c4,3 6,9 5,13l-10 23c-2,4 -7,7 -12,6l-17 -2c-5,7 -11,13 -17,18l2 17c0,5 -2,10 -6,12l-24 10c-4,1 -10,-1 -13,-5l-10 -13c-4,0 -9,1 -13,1 -4,0 -9,-1 -14,-1 1,-1 2,-2 3,-2l26 -25c35,-7 61,-38 61,-75 0,-42 -34,-76 -76,-76 -19,0 -37,7 -51,20l-18 -19c2,-2 4,-4 6,-5l-2 -17c-1,-5 2,-11 6,-13z"/>
   <path class="fil1" d="M62 180l30 -28c6,-5 12,-7 19,-7 6,0 12,2 18,7l32 31 -32 30c-6,5 -12,8 -18,7 -7,1 -13,-2 -19,-7l-30 -28 41 0c2,5 6,8 11,8 5,0 10,-4 10,-10 0,-6 -5,-11 -10,-11 -5,0 -9,4 -11,8l-41 0zm-10 -7l-41 -41c-8,-7 -12,-16 -11,-24 -1,-9 3,-18 11,-25l45 -44 44 44c8,7 12,16 11,25 1,8 -3,17 -11,24l-41 41 0 -56c6,-1 11,-7 11,-13 0,-8 -7,-14 -14,-14 -8,0 -14,6 -14,14 0,6 4,12 10,13l0 56z"/>
   <path class="fil2" d="M312 218l0 -26 12 0c3,0 6,0 7,0 2,1 3,2 4,3 1,1 1,2 1,4 0,2 -1,4 -2,5 -1,1 -3,2 -6,2 1,1 2,2 3,2 1,1 2,3 4,5l3 5 -7 0 -4 -6c-2,-2 -3,-3 -3,-4 -1,0 -2,-1 -2,-1 -1,0 -2,0 -3,0l-1 0 0 11 -6 0zm6 -15l4 0c3,0 5,0 5,-1 1,0 2,0 2,-1 1,0 1,-1 1,-2 0,-1 -1,-1 -1,-2 -1,0 -1,-1 -2,-1 -1,0 -2,0 -5,0l-4 0 0 7zm25 15l0 -26 22 0 0 4 -16 0 0 6 15 0 0 4 -15 0 0 7 17 0 0 5 -23 0zm29 0l0 -26 10 0c3,0 6,0 7,0 2,0 3,1 4,3 1,1 2,3 2,5 0,1 0,3 -1,4 -1,1 -2,2 -3,2 -1,1 -2,1 -3,2 -1,0 -3,0 -6,0l-4 0 0 10 -6 0zm6 -22l0 7 3 0c3,0 4,0 5,0 1,0 2,-1 2,-1 0,-1 1,-1 1,-2 0,-1 -1,-2 -1,-3 -1,0 -2,-1 -3,-1 0,0 -2,0 -4,0l-3 0zm23 -4l6 0 0 14c0,2 0,4 0,4 1,1 1,2 2,3 1,0 2,1 4,1 2,0 3,-1 4,-1 1,-1 1,-2 2,-2 0,-1 0,-3 0,-5l0 -14 6 0 0 13c0,4 0,6 -1,7 0,1 -1,2 -1,3 -1,1 -2,2 -4,2 -1,1 -3,1 -6,1 -3,0 -5,0 -6,-1 -2,0 -3,-1 -4,-2 -1,-1 -1,-2 -1,-3 -1,-1 -1,-3 -1,-6l0 -14zm31 0l12 0c3,0 5,0 6,0 1,0 2,0 3,1 1,1 1,1 2,2 1,1 1,2 1,3 0,1 0,3 -1,4 -1,1 -2,1 -3,2 2,0 3,1 4,2 1,1 1,3 1,4 0,1 0,3 0,4 -1,1 -2,2 -3,2 -1,1 -2,1 -4,2 -1,0 -4,0 -7,0l-11 0 0 -26zm6 4l0 6 4 0c3,0 4,0 5,0 1,0 2,0 2,-1 1,0 1,-1 1,-2 0,-1 0,-1 -1,-2 0,0 -1,-1 -2,-1 0,0 -2,0 -5,0l-4 0zm0 10l0 7 6 0c2,0 4,0 4,0 1,0 2,0 2,-1 1,0 1,-1 1,-2 0,-1 0,-1 0,-2 -1,-1 -1,-1 -2,-1 -1,0 -3,-1 -6,-1l-5 0zm26 12l0 -26 6 0 0 21 15 0 0 5 -21 0zm26 0l0 -26 6 0 0 26 -6 0zm13 0l0 -26 6 0 0 11 13 -11 8 0 -11 10 11 16 -7 0 -9 -12 -5 4 0 8 -6 0zm43 0l0 -26 6 0 0 26 -6 0zm13 0l0 -26 6 0 12 17 0 -17 6 0 0 26 -6 0 -12 -17 0 17 -6 0zm32 -26l11 0c2,0 4,0 5,0 2,1 4,1 5,3 1,1 2,2 3,4 0,1 1,4 1,6 0,2 -1,4 -1,6 -1,1 -2,3 -4,4 -1,1 -2,2 -4,2 -1,1 -3,1 -5,1l-11 0 0 -26zm6 4l0 17 4 0c2,0 3,0 4,0 1,0 2,0 2,-1 1,0 1,-1 2,-2 0,-2 0,-3 0,-5 0,-2 0,-4 0,-5 -1,-1 -1,-2 -2,-2 -1,-1 -2,-1 -3,-2 -1,0 -2,0 -5,0l-2 0zm24 9c0,-3 0,-5 1,-7 1,-1 2,-2 3,-3 1,-1 2,-2 4,-3 2,0 4,-1 6,-1 5,0 8,1 11,4 2,2 4,6 4,10 0,4 -2,7 -4,10 -3,2 -6,3 -11,3 -4,0 -8,-1 -10,-3 -3,-3 -4,-6 -4,-10zm6 0c0,3 1,5 2,6 2,2 4,3 6,3 3,0 5,-1 6,-3 2,-1 2,-3 2,-6 0,-3 0,-6 -2,-7 -1,-2 -3,-2 -6,-2 -2,0 -4,0 -6,2 -1,1 -2,4 -2,7zm29 13l0 -26 6 0 12 17 0 -17 5 0 0 26 -6 0 -12 -17 0 17 -5 0zm31 0l0 -26 22 0 0 4 -16 0 0 6 15 0 0 4 -15 0 0 7 17 0 0 5 -23 0zm28 -9l5 0c1,2 2,3 3,4 1,0 2,1 4,1 2,0 3,-1 4,-1 1,-1 2,-2 2,-3 0,0 0,-1 -1,-1 0,-1 -1,-1 -2,-2 -1,0 -2,0 -5,-1 -3,0 -5,-1 -7,-2 -1,-2 -2,-3 -2,-5 0,-2 0,-3 1,-4 1,-1 2,-2 4,-3 1,0 3,-1 6,-1 3,0 6,1 8,2 2,2 3,4 3,6l-6 0c0,-1 -1,-2 -2,-3 0,0 -2,0 -3,0 -2,0 -4,0 -5,1 0,0 -1,0 -1,1 0,1 1,1 1,2 1,0 3,1 6,1 3,1 5,2 6,2 2,1 3,2 4,3 1,1 1,3 1,4 0,2 -1,3 -2,4 0,2 -2,3 -4,3 -1,1 -3,1 -6,1 -4,0 -7,-1 -9,-2 -2,-2 -3,-4 -3,-7zm30 9l0 -26 6 0 0 26 -6 0zm40 0l-7 0 -2 -6 -12 0 -3 6 -6 0 12 -26 6 0 12 26zm-11 -11l-4 -9 -4 9 8 0z"/>
   <path class="fil3" d="M354 87l-13 0c0,-2 -2,-7 -7,-16 -5,-10 -8,-14 -10,-14l-1 0c0,7 0,17 0,30l-11 0c0,-10 0,-21 0,-34 0,-12 0,-22 0,-31l11 0c0,9 0,18 0,26l0 0c2,0 5,-4 10,-12 4,-8 7,-13 7,-14l12 0c0,1 -3,5 -8,12 -5,8 -9,13 -11,15l0 0c3,2 7,9 13,20 6,11 8,16 8,18zm-4 33c0,8 -2,14 -7,18 -5,4 -11,6 -18,6 -1,0 -2,0 -2,0 0,6 0,14 0,24l-11 0c0,-9 0,-21 0,-34 0,-12 0,-22 0,-30l7 0c1,0 3,-1 5,-1 3,0 6,0 8,0 5,0 9,2 13,4 3,3 5,8 5,13zm-10 3c0,-7 -4,-10 -12,-10 -2,0 -4,0 -6,0 0,7 0,14 0,22 1,0 2,0 3,0 10,0 15,-4 15,-12zm52 17c0,1 0,3 0,6l-27 1c1,3 2,7 4,9 3,3 6,4 9,4 4,0 9,-1 13,-2l-1 9c-3,2 -8,3 -13,3 -7,0 -13,-3 -17,-8 -3,-4 -5,-10 -5,-17 0,-7 2,-13 5,-18 4,-5 9,-8 15,-8 6,0 10,2 13,6 3,3 4,8 4,15zm-10 -1c0,-8 -2,-11 -8,-11 -5,0 -8,4 -9,12l17 -1zm44 -18l-2 12c-2,-1 -4,-2 -6,-2 -4,0 -7,2 -8,7 0,13 0,23 0,30l-11 0c1,-10 1,-18 1,-24 0,-8 -1,-16 -2,-23l10 -1c1,4 1,6 1,6l1 0c2,-4 5,-7 10,-7 1,0 4,1 6,2zm17 47l-11 0c0,-7 1,-14 1,-23 0,-9 -1,-17 -2,-24l12 -1c0,6 -1,15 -1,25 0,8 1,16 1,23zm2 -62c0,2 -1,4 -2,6 -1,2 -3,2 -5,2 -2,0 -4,0 -5,-2 -1,-1 -1,-3 -1,-5 0,-2 0,-4 1,-6 2,-2 4,-2 6,-2 2,0 3,0 4,2 1,1 2,3 2,5zm44 62l-11 0c1,-8 1,-17 1,-25 0,-5 -1,-9 -2,-11 -1,-2 -3,-3 -6,-3 -3,0 -6,2 -8,4 0,13 0,25 0,35l-11 0c0,-10 1,-18 1,-24 0,-8 -1,-16 -2,-23l10 -1 1 5 0 0c4,-4 8,-6 13,-6 4,0 8,2 10,4 3,2 4,7 4,13 0,1 0,3 0,4 0,2 0,3 0,5 0,5 0,12 0,23zm46 0l-9 1c0,-2 -1,-3 -1,-4l0 0c-3,3 -7,5 -12,5 -5,0 -9,-3 -12,-7 -3,-5 -5,-10 -5,-17 0,-7 2,-13 5,-19 4,-5 8,-8 14,-8 4,0 7,1 9,3l1 0c0,-8 -1,-16 -1,-24l11 0c0,8 -1,19 -1,33 0,15 1,27 1,37zm-10 -11c0,-11 0,-19 0,-26 -2,-2 -5,-3 -7,-3 -4,0 -6,2 -8,5 -2,3 -3,7 -3,12 0,4 1,8 3,11 1,3 4,4 7,4 4,0 7,-1 8,-3zm55 11l-9 1c-1,-2 -1,-4 -1,-5l0 0c-4,4 -8,6 -13,6 -4,0 -8,-2 -10,-5 -2,-2 -3,-8 -3,-17 0,-1 0,-2 0,-4 0,-2 0,-4 0,-5 0,-4 -1,-10 -1,-18l11 0c0,6 0,12 0,18 0,8 0,14 1,16 1,3 3,5 6,5 3,0 6,-1 8,-3 0,-18 0,-29 0,-36l11 0c-1,6 -1,14 -1,24 0,8 1,15 1,23zm37 -13c0,10 -6,15 -18,15 -5,0 -9,-1 -12,-2l1 -10c4,2 7,2 11,2 3,0 5,0 6,-1 2,0 2,-1 2,-3 0,-2 -2,-5 -7,-7 -4,-2 -6,-4 -8,-6 -3,-2 -4,-5 -4,-9 0,-5 1,-8 4,-11 3,-2 7,-4 12,-4 5,0 8,1 11,2l-1 10c-3,-2 -7,-3 -10,-3 -5,0 -7,2 -7,5 0,1 1,2 2,3 1,1 2,2 5,3 4,2 7,4 9,5 2,3 4,7 4,11zm31 4l-1 9c-1,1 -4,1 -7,1 -4,0 -7,-1 -10,-4 -2,-3 -3,-9 -3,-17 0,-5 0,-11 0,-17 -1,0 -3,0 -5,0l0 -9c2,0 4,0 6,0 0,-2 0,-7 0,-14l10 -1c-1,6 -1,11 -1,15 2,0 6,0 10,-1l0 10c-4,0 -8,0 -10,0 0,4 0,9 0,14 0,6 0,10 1,12 1,2 3,3 5,3 2,0 3,-1 5,-1zm33 -38l-2 12c-2,-1 -4,-2 -6,-2 -4,0 -7,2 -8,7 0,13 0,23 0,30l-11 0c1,-10 1,-18 1,-24 0,-8 -1,-16 -2,-23l10 -1c1,4 1,6 1,6l1 0c2,-4 5,-7 10,-7 2,0 4,1 6,2zm17 47l-11 0c0,-7 1,-14 1,-23 0,-9 -1,-17 -2,-24l12 -1c0,6 -1,15 -1,25 0,8 1,16 1,23zm2 -62c0,2 -1,4 -2,6 -1,2 -3,2 -5,2 -2,0 -4,0 -5,-2 -1,-1 -1,-3 -1,-5 0,-2 0,-4 2,-6 1,-2 3,-2 5,-2 2,0 3,0 4,2 1,1 2,3 2,5zm40 62l-9 1c-1,-2 -1,-3 -1,-4l0 0c-3,3 -7,4 -13,4 -3,0 -6,-1 -8,-3 -2,-2 -3,-5 -3,-9 0,-5 1,-9 5,-13 3,-3 9,-4 18,-5 0,0 0,-1 0,-1 0,-4 0,-6 -2,-7 -1,-2 -4,-2 -8,-2 -4,0 -8,1 -12,2l1 -9c4,-2 9,-3 16,-3 5,0 9,2 11,4 3,3 4,7 4,13 0,2 0,4 0,8 0,4 0,6 0,7 0,7 0,13 1,17zm-11 -10c0,-5 0,-9 0,-12 -9,0 -14,3 -14,9 0,4 2,6 6,6 4,0 6,-1 8,-3zm56 10l-11 0c1,-8 1,-17 1,-25 0,-5 -1,-9 -2,-11 -1,-2 -3,-3 -6,-3 -3,0 -6,2 -8,4 0,13 0,25 0,35l-11 0c0,-10 1,-18 1,-24 0,-8 -1,-16 -2,-23l10 -1 1 5 0 0c4,-4 8,-6 13,-6 4,0 8,2 10,4 3,2 4,7 4,13 0,1 0,3 0,4 0,2 0,3 0,5 0,5 0,12 0,23zm-390 -110c0,2 0,4 -1,7l-26 0c1,4 2,7 4,10 2,2 5,3 9,3 4,0 8,0 13,-2l-1 10c-3,1 -8,2 -14,2 -7,0 -12,-2 -16,-7 -4,-5 -5,-11 -5,-17 0,-7 1,-13 5,-19 3,-5 8,-7 15,-7 5,0 10,1 13,5 2,4 4,9 4,15zm-10 0c0,-8 -2,-12 -8,-12 -5,0 -8,4 -9,12l17 0zm77 29l-10 0c0,-9 0,-17 0,-25 0,-6 0,-9 -1,-11 -2,-2 -4,-3 -6,-3 -3,0 -5,1 -7,3 0,4 -1,8 -1,11 0,6 1,14 1,25l-11 0c0,-9 1,-18 1,-27 0,-4 -1,-7 -2,-9 -1,-2 -3,-3 -6,-3 -3,0 -6,1 -8,4 1,13 1,24 1,35l-11 0c0,-11 0,-19 0,-25 0,-7 0,-15 -2,-22l11 -1 1 5 0 0c4,-4 8,-6 12,-6 6,0 10,2 12,6l1 0c4,-4 8,-6 11,-6 5,0 9,1 11,4 2,2 3,6 3,13 0,0 0,2 0,3 0,2 0,3 0,4 0,6 0,14 0,25zm45 -29c0,2 0,4 0,7l-27 0c1,4 2,7 4,10 3,2 6,3 9,3 4,0 9,0 13,-2l-1 10c-3,1 -8,2 -14,2 -7,0 -12,-2 -16,-7 -3,-5 -5,-11 -5,-17 0,-7 2,-13 5,-19 4,-5 9,-7 15,-7 6,0 10,1 13,5 2,4 4,9 4,15zm-10 0c0,-8 -2,-12 -8,-12 -5,0 -8,4 -9,12l17 0zm54 29l-11 0c1,-9 1,-17 1,-26 0,-5 -1,-8 -2,-10 -1,-2 -3,-3 -6,-3 -3,0 -6,1 -8,4 0,13 0,24 0,35l-11 0c0,-11 1,-19 1,-25 0,-8 -1,-15 -2,-22l10 -1 1 5 0 0c4,-4 8,-6 13,-6 4,0 8,1 10,4 3,2 4,6 4,13 0,1 0,2 0,4 0,1 0,3 0,5 0,4 0,12 0,23zm33 -9l0 8c-2,1 -5,2 -8,2 -4,0 -7,-2 -10,-5 -2,-2 -3,-8 -3,-16 0,-5 0,-11 0,-17 -1,0 -3,0 -5,0l0 -10c2,0 4,0 6,0 0,-1 0,-6 0,-13l10 -2c-1,7 -1,12 -1,15 2,0 6,0 10,0l0 10c-4,0 -8,0 -10,0 0,4 0,9 0,14 0,5 0,9 1,11 1,2 3,3 5,3 2,0 3,0 5,0zm42 -20c0,2 0,4 -1,7l-26 0c1,4 2,7 4,10 2,2 5,3 9,3 4,0 8,0 13,-2l-1 10c-3,1 -8,2 -14,2 -7,0 -12,-2 -16,-7 -4,-5 -5,-11 -5,-17 0,-7 1,-13 5,-19 3,-5 8,-7 15,-7 5,0 10,1 13,5 2,4 4,9 4,15zm-10 0c0,-8 -2,-12 -8,-12 -5,0 -8,4 -9,12l17 0zm44 -18l-2 11c-2,-1 -4,-1 -7,-1 -4,0 -6,2 -7,6 0,14 0,24 0,31l-11 0c0,-10 1,-18 1,-25 0,-8 -1,-15 -2,-22l10 -1c0,3 1,5 1,6l0 0c3,-5 6,-7 10,-7 2,0 4,1 7,2zm17 47l-11 0c0,-7 0,-15 0,-24 0,-9 0,-16 -1,-23l12 -1c-1,6 -1,14 -1,24 0,9 0,17 1,24zm2 -62c0,2 -1,4 -2,6 -2,1 -3,2 -6,2 -1,0 -3,-1 -4,-2 -1,-2 -2,-3 -2,-5 0,-3 1,-5 2,-6 2,-2 3,-3 6,-3 2,0 3,1 4,2 1,2 2,4 2,6zm40 62l-9 0c-1,-1 -1,-2 -1,-4l-1 0c-3,3 -7,5 -12,5 -3,0 -6,-1 -8,-3 -2,-3 -4,-6 -4,-10 0,-5 2,-9 6,-12 3,-3 9,-5 18,-5 0,-1 0,-1 0,-2 0,-3 -1,-6 -2,-7 -1,-1 -4,-2 -8,-2 -4,0 -8,1 -12,2l1 -9c4,-1 9,-2 16,-2 5,0 8,1 11,4 3,2 4,7 4,13 0,1 0,4 0,8 0,3 0,6 0,7 0,7 0,12 1,17zm-11 -11c0,-4 0,-8 0,-11 -9,0 -14,3 -14,8 0,4 2,6 6,6 3,0 6,-1 8,-3zm56 11l-11 0c1,-9 1,-17 1,-26 0,-5 -1,-8 -2,-10 -1,-2 -3,-3 -6,-3 -3,0 -6,1 -9,4 0,13 1,24 1,35l-11 0c0,-11 0,-19 0,-25 0,-8 0,-15 -2,-22l11 -1 0 5 1 0c4,-4 8,-6 13,-6 4,0 7,1 10,4 2,2 4,6 4,13 0,1 0,2 0,4 0,1 0,3 0,5 0,4 0,12 0,23z"/>
  </g>
 </g>
</svg>
